<?xml version="1.0" encoding="iso-8859-1"?>
<!-- Generator: Adobe Illustrator 19.0.0, SVG Export Plug-In . SVG Version: 6.00 Build 0)  -->
<svg version="1.1" id="Layer_1" xmlns="http://www.w3.org/2000/svg" xmlns:xlink="http://www.w3.org/1999/xlink" x="0px" y="0px"
	 viewBox="0 0 512 512" style="enable-background:new 0 0 512 512;" xml:space="preserve">
<path style="fill:#EAEAEA;" d="M417.392,161.936h-7.584c-7.536-31.728-36.128-55.504-70.336-55.504c-8.304,0-16.72,1.824-23.68,4.16
	c-16.72-47.488-62.032-81.584-115.44-81.584c-67.616,0-122.448,54.544-122.448,121.84c0,4.24,0.224,8.432,0.64,12.544
	C34.112,171.04,0,209.744,0,256.064c0,51.776,42.576,94.144,94.608,94.144h322.784c52.032,0,94.608-42.368,94.608-94.144
	C512,204.304,469.424,161.936,417.392,161.936z"/>
<circle style="fill:#E04F5F;" cx="256" cy="345.536" r="137.456"/>
<path style="fill:#FFFFFF;" d="M269.152,276.368c0.24,7.296-5.104,13.136-13.648,13.136c-7.536,0-12.896-5.84-12.896-13.136
	c0-7.552,5.6-13.392,13.392-13.392C264.048,262.976,269.152,268.816,269.152,276.368z M245.296,427.28V309.472h21.424V427.28
	L245.296,427.28L245.296,427.28z"/>
<g>
</g>
<g>
</g>
<g>
</g>
<g>
</g>
<g>
</g>
<g>
</g>
<g>
</g>
<g>
</g>
<g>
</g>
<g>
</g>
<g>
</g>
<g>
</g>
<g>
</g>
<g>
</g>
<g>
</g>
</svg>
