<?xml version="1.0" encoding="iso-8859-1"?>
<!-- Generator: Adobe Illustrator 19.0.0, SVG Export Plug-In . SVG Version: 6.00 Build 0)  -->
<svg version="1.1" id="Layer_1" xmlns="http://www.w3.org/2000/svg" xmlns:xlink="http://www.w3.org/1999/xlink" x="0px" y="0px"
	 viewBox="0 0 512 512" style="enable-background:new 0 0 512 512;" xml:space="preserve">
<circle style="fill:#FFEDB5;" cx="256" cy="256" r="256"/>
<g>
	<polygon style="fill:#FEE187;" points="125.845,194.284 166.416,234.855 158.025,168.253 	"/>
	<path style="fill:#FEE187;" d="M146.544,400.868l111.111,111.111c133.492-0.846,242.729-103.855,253.464-234.779L379.689,145.77
		l-187.473,82.647L146.544,400.868z"/>
</g>
<path style="fill:#FF7F4F;" d="M142.222,180.321v208.45c0,10.552,8.554,19.106,19.106,19.106H350.67
	c10.552,0,19.106-8.554,19.106-19.106v-208.45H142.222z M290.909,265.654h-69.818c-6.427,0-11.636-6.368-11.636-14.222
	s5.21-14.222,11.636-14.222h69.818c6.427,0,11.636,6.368,11.636,14.222S297.336,265.654,290.909,265.654z"/>
<path style="fill:#EA5F34;" d="M255.426,180.321v56.889h35.483c6.427,0,11.636,6.368,11.636,14.222s-5.21,14.222-11.636,14.222
	h-35.483v142.222h95.246c10.552,0,19.106-8.554,19.106-19.106v-208.45H255.426z"/>
<path style="fill:#E03A00;" d="M386.155,194.284h-260.31v-35.312c0-9.25,7.499-16.749,16.749-16.749h226.809
	c9.25,0,16.751,7.499,16.751,16.749V194.284z"/>
<path style="fill:#940030;" d="M386.155,158.972c0-9.25-7.499-16.749-16.749-16.749H255.426v52.062h130.729V158.972z"/>
<g>
</g>
<g>
</g>
<g>
</g>
<g>
</g>
<g>
</g>
<g>
</g>
<g>
</g>
<g>
</g>
<g>
</g>
<g>
</g>
<g>
</g>
<g>
</g>
<g>
</g>
<g>
</g>
<g>
</g>
</svg>
