<?xml version="1.0" encoding="iso-8859-1"?>
<!-- Generator: Adobe Illustrator 19.0.0, SVG Export Plug-In . SVG Version: 6.00 Build 0)  -->
<svg version="1.1" id="Layer_1" xmlns="http://www.w3.org/2000/svg" xmlns:xlink="http://www.w3.org/1999/xlink" x="0px" y="0px"
	 viewBox="0 0 508.4 508.4" style="enable-background:new 0 0 508.4 508.4;" xml:space="preserve">
<circle style="fill:#90DFAA;" cx="254.2" cy="254" r="254"/>
<g>
	<path style="fill:#324A5E;" d="M351.8,344.4c0,0,2,6.4-0.8,8.4c0,0-2.8,0.8-2.4,4.4c0,0,0,4-5.6,4c0,0-14.4,1.6-16.8-1.6
		c0,0-1.6-2-0.4-4.8l16.8-6.4L351.8,344.4z"/>
	<path style="fill:#324A5E;" d="M349.4,334.4c0,0,6.4,5.2,1.6,12.4c0,0-3.2,4.4-3.2,6.8c0,0,0.4,7.2-7.2,5.6c0,0-7.6-5.6-12.8-0.8
		c0,0-4-0.4-2-5.6c0,0,4.4-5.6,6.8-10.4c0,0,1.6-1.2,0.8-4.8L349.4,334.4z"/>
	<path style="fill:#324A5E;" d="M367,344.4c0,0-2,6.4,0.8,8.4c0,0,2.8,0.8,2.4,4.4c0,0,0,4,5.6,4c0,0,14.4,1.6,16.8-1.6
		c0,0,1.6-2,0.4-4.8l-16.8-6.4L367,344.4z"/>
	<path style="fill:#324A5E;" d="M369,334.4c0,0-6.4,5.2-1.6,12.4c0,0,3.2,4.4,3.2,6.8c0,0-0.4,7.2,7.2,5.6c0,0,7.6-5.6,12.8-0.8
		c0,0,4-0.4,2-5.6c0,0-4.4-5.6-6.8-10.4c0,0-1.6-1.2-0.8-4.8L369,334.4z"/>
</g>
<polygon style="fill:#E6E9EE;" points="343.8,98.4 358.6,155.2 373,98.4 "/>
<polygon style="fill:#F1543F;" points="362.6,104.4 364.6,98.4 353.8,98.4 355.8,104.4 "/>
<polygon style="fill:#FF7058;" points="362.6,104.4 359.4,104.4 355.8,104.4 348.6,147.6 359.4,155.2 370.2,147.6 "/>
<g>
	<path style="fill:#2B3B4E;" d="M331.8,178c-2.8,14.8-5.6,41.2-0.8,72c0,0,4.4,70.8,0.4,86.4c0,0,8.4,14.8,23.2,0
		c0,0,0.4-116.4,4.4-121.2V178H331.8z"/>
	<path style="fill:#2B3B4E;" d="M359,178v37.2c4,4.8,4.4,121.2,4.4,121.2c14.8,14.8,23.2,0,23.2,0c-4-15.6,0.4-86.4,0.4-86.4
		c4.8-30.8,2-57.2-0.8-72H359z"/>
</g>
<polygon style="fill:#CED5E0;" points="370.6,90.4 347.4,90.4 344.2,98.4 372.6,98.4 "/>
<path style="fill:#324A5E;" d="M345,95.6l-26,9.6c0,0,15.6,47.6,8.8,79.6c0,0-2.8,16-0.8,28.8c0,0,18,13.2,24.8,0.8
	c0,0,9.2-28.8,7.6-56.8l-8-21.6L345,95.6z"/>
<path style="fill:#2B3B4E;" d="M347.4,90.4L335,104l4.8,2l-3.6,3.2c0,0,11.6,35.6,24,48C360.2,157.6,347,102,347.4,90.4z"/>
<path style="fill:#324A5E;" d="M373,95.6l26,9.6c0,0-15.6,47.6-8.8,79.6c0,0,2.8,16,0.8,28.8c0,0-18,13.2-24.8,0.8
	c0,0-9.2-28.8-7.6-56.8l8-21.6L373,95.6z"/>
<g>
	<path style="fill:#2B3B4E;" d="M370.6,90.4L383,104l-4.4,2l3.6,3.2c0,0-11.6,35.6-24,48C358.2,157.6,371.4,102,370.6,90.4z"/>
	<circle style="fill:#2B3B4E;" cx="362.6" cy="160" r="2.4"/>
</g>
<polygon style="fill:#FFFFFF;" points="375,139.2 379.4,132 386.2,136.8 "/>
<rect x="373.386" y="136.779" transform="matrix(-0.9789 0.2042 -0.2042 -0.9789 781.4507 196.5205)" style="fill:#2B3B4E;" width="14.4" height="3.6"/>
<g>
	<path style="fill:#FFD05B;" d="M400.6,209.2c0,2.8,0.4,4.8,0.4,4.8c0.8,0.8,2.8,3.2,2.8,3.2c3.6,2.8,1.6,5.2,1.6,5.2v2.4
		c0.8,1.2,0.4,2.8,0.4,2.8c-2,3.6-3.2,0.8-3.2,0.8c-2,2.4-3.2-0.8-3.2-0.8c-2.4,1.2-3.2-1.2-3.2-1.2s-4.4,0.8-3.6-9.2
		c0.4-2.4,0-4.8,0-7.6h8V209.2z"/>
	<path style="fill:#FFD05B;" d="M396.6,219.2c0-0.4,0.4-2,0.4-2c-0.4,2,1.6,3.2,1.6,3.2c-0.4,0-0.4-1.2-0.4-1.2
		c0.4,1.6,3.2,2.8,3.2,2.8c0.4-1.2,1.2-1.6,1.2-1.6c-0.8,0.8-0.8,2-0.8,2c0.4,0,1.2,0.4,1.2,0.4c-0.8-0.8-1.2,0-1.2,0
		c1.2,0.4,0.8,1.6,0.8,1.6c0-1.2-0.8-1.2-0.8-1.2c0.8,0.4,0.4,1.6,0.4,1.6c0-1.2-1.2-1.2-1.2-1.2c0.4-0.8,0-0.8,0-0.8
		c-1.2-1.6-1.6,0-2,0.8h-0.4c0.8-1.6,0-2,0-2c-1.2-0.8-1.2,0.4-1.2,0.4c0,2.8-2,3.6-2,3.6H395c1.2-0.4,1.6-2,1.6-2
		c1.2-2.8-0.4-2.8-0.4-2.8c-2.4-0.4-1.6,1.6-1.6,1.6c-0.8,0.4-2,0-2,0c0.4,0,0.8-0.4,0.8-0.4c0.8-0.8-0.4-2.4-0.4-2.4
		c0.4,0.8,3.2,0.8,3.2,0.8C397.8,220.8,397,219.6,396.6,219.2l-0.4,0.4c0-0.4-0.8-2-0.8-2C396.2,218,396.6,218.8,396.6,219.2z"/>
	<path style="fill:#FFD05B;" d="M405.4,223.2c0,0-0.4,0.4-1.2,2c0,0,0,0.4-0.4,0.8c0,0.4-0.8,0.8-1.2,0.8c-0.8-0.4-1.6-0.4-2.4-0.4
		c0,0-0.8,0-1.2,0s-0.8-0.4-0.8-0.8c0.4-0.8,0.8-1.6,2-1.6c0,0,1.6-0.4,2,0c0,0-2-0.8-3.2,0.8c0,0-1.2,1.2-0.4,2c0,0,3.2,0,3.6,0.4
		c0,0,1.2,0.8,2-0.4c0,0,0.4-1.6,1.6-1.2c0,0-0.4-0.4-0.8-0.4C404.6,224.8,404.6,224,405.4,223.2z"/>
	<path style="fill:#FFD05B;" d="M402.2,226.4c0,0.8,0.4,2.4,0.4,2.4c-0.4-0.4-0.4-0.8-0.4-0.8l-0.4,0.4
		C402.2,227.6,402.2,226.4,402.2,226.4L402.2,226.4z"/>
	<path style="fill:#FFD05B;" d="M399.4,228C399,227.6,399,227.6,399.4,228c-0.4-0.4-0.4,0-0.4,0c0.4-0.8,0.4-1.6,0.4-1.6h0.4
		C399.8,226.8,399.4,228,399.4,228z"/>
</g>
<rect x="391" y="204" style="fill:#FFFFFF;" width="10.8" height="7.2"/>
<g>
	<path style="fill:#FFD05B;" d="M318.2,209.2c0,2.8-0.4,4.8-0.4,4.8c-0.8,0.8-2.8,3.2-2.8,3.2c-3.6,2.8-1.6,5.2-1.6,5.2v2.4
		c-0.8,1.2-0.4,2.8-0.4,2.8c2,3.6,3.2,0.8,3.2,0.8c2,2.4,3.2-0.8,3.2-0.8c2.4,1.2,3.2-1.2,3.2-1.2s4.4,0.8,3.6-9.2
		c-0.4-2.4,0-4.8,0-7.6h-8V209.2z"/>
	<path style="fill:#FFD05B;" d="M322.2,219.2c0-0.4-0.4-2-0.4-2c0.4,2-1.6,3.2-1.6,3.2c0.4,0,0.4-1.2,0.4-1.2
		c-0.4,1.6-3.2,2.8-3.2,2.8c-0.4-1.2-1.2-1.6-1.2-1.6c0.8,0.8,0.8,2,0.8,2c-0.4,0-1.2,0.4-1.2,0.4c0.8-0.8,1.2,0,1.2,0
		c-1.2,0.4-0.8,1.6-0.8,1.6c0-1.2,0.8-1.2,0.8-1.2c-0.8,0.4-0.4,1.6-0.4,1.6c0-1.2,1.2-1.2,1.2-1.2c-0.4-0.8,0-0.8,0-0.8
		c1.2-1.6,1.6,0,2,0.8h0.4c-0.8-1.6,0-2,0-2c1.2-0.8,1.2,0.4,1.2,0.4c0,2.8,2,3.6,2,3.6h0.4c-1.2-0.4-1.6-2-1.6-2
		c-1.2-2.8,0.4-2.8,0.4-2.8c2.4-0.4,1.6,1.6,1.6,1.6c0.8,0.4,2,0,2,0c-0.4,0-0.8-0.4-0.8-0.4c-0.8-0.8,0.4-2.4,0.4-2.4
		c-0.4,0.8-3.2,0.8-3.2,0.8C321,220.8,321.8,219.6,322.2,219.2l0.4,0.4c0-0.4,0.8-2,0.8-2C322.6,218,322.2,218.8,322.2,219.2z"/>
	<path style="fill:#FFD05B;" d="M313.4,223.2c0,0,0.4,0.4,1.2,2c0,0,0,0.4,0.4,0.8c0,0.4,0.8,0.8,1.2,0.8c0.8-0.4,1.6-0.4,2.4-0.4
		c0,0,0.8,0,1.2,0c0.4,0,0.8-0.4,0.8-0.8c-0.4-0.8-0.8-1.6-2-1.6c0,0-1.6-0.4-2,0c0,0,2-0.8,3.2,0.8c0,0,1.2,1.2,0.4,2
		c0,0-3.2,0-3.6,0.4c0,0-1.2,0.8-2-0.4c0,0-0.4-1.6-1.6-1.2c0,0,0.4-0.4,0.8-0.4C314.2,224.8,314.2,224,313.4,223.2z"/>
	<path style="fill:#FFD05B;" d="M316.2,226.4c0,0.8-0.4,2.4-0.4,2.4c0.4-0.4,0.4-0.8,0.4-0.8l0.4,0.4
		C316.6,227.6,316.6,226.4,316.2,226.4L316.2,226.4z"/>
	<path style="fill:#FFD05B;" d="M319.4,228C319.4,227.6,319.4,227.6,319.4,228c0.4-0.4,0.4,0,0.4,0c-0.4-0.8-0.4-1.6-0.4-1.6H319
		C319,226.8,319.4,228,319.4,228z"/>
</g>
<rect x="316.6" y="204" style="fill:#FFFFFF;" width="10.8" height="7.2"/>
<g>
	<path style="fill:#324A5E;" d="M404.2,208.8H389c0,0-0.4-38.4,1.6-46c0,0,0.8-7.6-1.2-13.6c2.8-23.2,9.2-43.6,9.6-44
		C399,104.8,406.6,124,404.2,208.8z"/>
	<path style="fill:#324A5E;" d="M314.2,208.8h15.2c0,0,0.4-38.4-1.6-46c0,0-0.8-7.6,1.2-13.6c-2.8-23.2-9.2-43.6-9.6-44
		C319.4,104.8,311.8,124,314.2,208.8z"/>
</g>
<ellipse style="fill:#F9B54C;" cx="359.4" cy="87.6" rx="10" ry="10.8"/>
<g>
	<path style="fill:#FFFFFF;" d="M369,85.6c0,0,2,9.2-9.6,12.8c0,0,6.4,1.6,9.2,9.2C368.6,108,376.2,95.6,369,85.6z"/>
	<path style="fill:#FFFFFF;" d="M349.8,85.6c0,0-2,9.2,9.6,12.8c0,0-6.4,1.6-9.2,9.2C349.8,108,342.2,95.6,349.8,85.6z"/>
</g>
<path style="fill:#FFD05B;" d="M373,77.6c-1.2,4-2,6.4-2,6.8l0,0c-3.2,4.4-7.2,7.2-11.6,7.2c-4,0-8-2.4-10.8-6.4
	c-6.4-8-2-22.8-2-22.8c3.2,3.6,14,4,14,4c-4.4-0.8-5.2-4-5.2-4.4c0.4,2.4,10.8,4,10.8,4C376.6,67.2,373,77.6,373,77.6z"/>
<path style="fill:#324A5E;" d="M353.4,47.2c0,0,14.4-5.6,21.6,7.2c8,14-2,29.2-4,30.4c0,0,0.4-2.4,2-7.2c0,0,3.6-10.4-7.2-12
	c0,0-10.4-1.2-11.2-3.6c0,0,0.8,3.6,5.2,4.4c0,0-10.4-0.4-14-4c0,0-4.4,14.8,2,22.8c0,0-11.2-9.2-10-23.2
	C338.6,62.4,337.8,43.2,353.4,47.2z"/>
<g>
	<path style="fill:#E6E9EE;" d="M301,360.4V408h-53.2v46H97.4c43.2,34,97.6,54.4,156.8,54.4c102.4,0,190.4-60.4,230.8-147.6H301
		V360.4z"/>
	<path style="fill:#E6E9EE;" d="M175.8,258c0,0,7.6,16.8,26,28.4c0,0,16.8,1.2,10.8,12.8c0,0-10,7.2-18-6.4c0,0-20.8-10.4-21.6-15.2
		L175.8,258z"/>
</g>
<path style="fill:#2B3B4E;" d="M142.6,312.8c0,0-9.2,14.4-7.6,46.8c0,0-28.4,53.2-27.2,70.4h20.4c0,0,14-42,18.8-46.4
	c0,0,19.2-24.8,19.2-37.6L142.6,312.8z"/>
<path style="fill:#324A5E;" d="M142.6,312.8c0,0-5.6,24,31.6,51.2c0,0,9.2,63.2,16.8,73.2l17.2-9.2L197,374.8c0,0,3.6-14.8-3.6-18.8
	c0,0-4.8-28-20.8-43.2H142.6z"/>
<path style="fill:#FFD05B;" d="M183,174.8c0,0-0.4,9.2,1.6,12.4l3.2,5.6l-3.6,0.8v2.8c0,0,0.4,1.2-0.4,1.6c0,0,0.4,0.8-0.4,1.2
	c0,0,4,6.8-2,6.8c0,0-5.2,0.8-5.6,0c0,0,0.4,6.4-5.2,12.4c0,0-13.2-10.4-13.6-14.4c0,0,0.8-7.2,0-11.6c0,0-2.8-14.4,8.8-18
	c0,0,10.8-6.8,15.6-2L183,174.8z"/>
<g>
	<path style="fill:#324A5E;" d="M156.6,198c-12.4-32.4,4.8-30.4,4.8-30.4C179.8,160,185,176,185,176s-2,3.6-7.6-0.8
		c-5.2-4.4-4,6.8-4,6.8l-2.8-0.4c0,0-3.2,2.4-1.2,6.8h-2.8c0.8-4.4-7.2-10.4-6.8,1.2c0,0,3.6,8-1.2,9.2
		C158.6,198,156.6,198.4,156.6,198z"/>
	<path style="fill:#324A5E;" d="M107.8,430.4l-5.2,18l14.8,2.8l2.8-2.8c0,0,8.4,9.6,29.6,5.2l1.2-7.2c0,0-14.8,2.4-18.8-5.6
		c0,0-5.6-4.4-3.6-10.4H107.8z"/>
</g>
<path style="fill:#2B3B4E;" d="M191,437.2c0,0,0.8,14.8,2.8,16h12v-2.8c0,0,25.2-2,33.2-8.4l-2-5.2c0,0-14.8,3.6-20-2.4
	c0,0-6-4.8-8.8-6.4C205,426.8,191,437.2,191,437.2z"/>
<g>
	<path style="fill:#FFFFFF;" d="M155.8,200.4c0,0,7.2,13.2,16,18c0,0,0,5.6,0.8,7.6l-22.4-17.2C150.2,208.8,151.8,202.4,155.8,200.4
		z"/>
	<path style="fill:#FFFFFF;" d="M142.6,312.8l-5.6-77.6c-0.8-11.2,4-22,12.8-29.2l10.8,6c13.6,7.2,20.8,22.4,18,37.2l-6.4,63.6
		H142.6z"/>
</g>
<path style="fill:#E6E9EE;" d="M148.6,213.2c0,0-24,16.4-35.2,47.6l3.6,42c0,0-3.6,9.6-2.4,15.6c0,0,7.6,7.2,11.2,6.8
	c0,0,4-15.2,0-24.8c0,0,2-37.2,5.2-40.8l33.6-28.8C164.6,211.6,148.6,213.2,148.6,213.2z"/>
<g>
</g>
<g>
</g>
<g>
</g>
<g>
</g>
<g>
</g>
<g>
</g>
<g>
</g>
<g>
</g>
<g>
</g>
<g>
</g>
<g>
</g>
<g>
</g>
<g>
</g>
<g>
</g>
<g>
</g>
</svg>
