<?xml version="1.0" encoding="iso-8859-1"?>
<!-- Generator: Adobe Illustrator 19.0.0, SVG Export Plug-In . SVG Version: 6.00 Build 0)  -->
<svg version="1.1" id="Layer_1" xmlns="http://www.w3.org/2000/svg" xmlns:xlink="http://www.w3.org/1999/xlink" x="0px" y="0px"
	 viewBox="0 0 473.935 473.935" style="enable-background:new 0 0 473.935 473.935;" xml:space="preserve">
<circle style="fill:#4ABC96;" cx="236.967" cy="236.967" r="236.967"/>
<g>
	<path style="fill:#DAECEF;" d="M235.37,117.013c17.598,0,35.525-16.64,35.525-34.245c0-17.583-17.074-35.498-34.679-35.498
		c-17.59,0-35.087,18.346-35.087,35.932C201.132,100.804,217.765,117.013,235.37,117.013z M304.69,166.117
		c0-17.268,1.141-15.611,0-26.406c-4.408-13.197-13.205-17.59-22.005-17.59c-18.802,0-25.051,0-39.588,0
		c-17.665,0-26.245-0.052-43.85-0.052c-8.801,0-14.529-0.599-21.063,5.351c-8.887,10.069-8.004,10.971-8.004,39.128
		c0,13.901,0,38.192,0,53.721c0,13.893-2.354,35.517,11.577,35.517c13.197,0,13.081-9.414,13.081-23.465
		c0-19.82-0.052-24.965-0.052-36.681c0-12.819-0.737-14.99,1.841-14.99c2.601,0,2.578,0.168,2.578,13.785
		c0,12.599-0.094,190.195-0.094,200.455c0,8.801,4.685,18.211,17.934,18.211c13.212,0,18.731-7.719,18.731-16.531
		c0-15.85,0-84.879,0-92.381c0-8.808,0.299-13.059,2.47-13.059c2.223,0,1.923,4.254,1.923,13.059c0,7.936,0,76.13,0,92.381
		c0,5.467,5.811,17.373,19.016,17.373c8.793,0,16.89-11.319,16.89-17.19c0-35.173,0.198-191.774,0.198-202.854
		c0-5.994-0.513-13.631,1.732-13.631s2.208,2.077,2.208,10.713c0,9.931,0,19.989,0,33.889c0,23.147,3.596,29.235,12.397,29.235
		c13.197,0,12.082-22.604,12.082-35.195C304.69,201.742,304.69,183.568,304.69,166.117z"/>
	<rect x="230.307" y="283.291" style="fill:#3F3E3D;" width="125.964" height="32.939"/>
	<path style="fill:#827159;" d="M230.333,285.102c0,0,35.861,14.099,62.705,14.099c29.328,0,63.221-14.23,63.221-14.23v-17.343
		c0-8.801-8.666-8.404-8.666-8.404H238.565c-8.535,0-8.228,8.404-8.228,8.404v17.474H230.333z M301.618,295.085l-16.947-0.131
		c0,0,0.131-1.878,0.131-4.202c0-2.324,1.886-4.21,4.202-4.21h8.412c2.324,0,4.202,1.886,4.202,4.21
		C301.618,293.076,301.618,295.085,301.618,295.085z M356.263,330.505v-40.677c0,0-27.281,13.616-63.405,13.616
		c-33.231,0-62.522-14.009-62.522-14.009v41.074c0,8.535,8.097,8.412,8.097,8.412h109.294
		C356.779,338.92,356.263,330.505,356.263,330.505z M301.48,311.9c0,2.316-1.878,4.064-4.195,4.064h-8.412
		c-2.316,0-4.202-1.747-4.202-4.064c0-2.331,0-4.34,0-4.34l16.947-0.131C301.618,307.425,301.48,309.569,301.48,311.9z"/>
	<path style="fill:#5B4F3F;" d="M230.333,285.102c0,0,35.861,14.099,62.705,14.099c29.328,0,63.221-14.23,63.221-14.23v-17.343
		c0-8.801-8.666-8.404-8.666-8.404H238.565c-8.535,0-8.228,8.404-8.228,8.404v17.474H230.333z M301.618,295.085l-16.947-0.131
		c0,0,0.131-1.878,0.131-4.202c0-2.324,1.886-4.21,4.202-4.21h8.412c2.324,0,4.202,1.886,4.202,4.21
		C301.618,293.076,301.618,295.085,301.618,295.085z"/>
	<path style="fill:#3F3E3D;" d="M314.093,259.224v-8.535c0-8.673-8.142-8.273-8.142-8.273h-25.485c-8.011,0-8.281,8.412-8.281,8.412
		v8.397L314.093,259.224L314.093,259.224z M280.469,254.748c0-3.802,4.202-4.064,4.202-4.064h16.947
		c4.464,0,4.202,4.591,4.202,4.591l-0.131,3.948h-25.22V254.748z"/>
</g>
<g>
</g>
<g>
</g>
<g>
</g>
<g>
</g>
<g>
</g>
<g>
</g>
<g>
</g>
<g>
</g>
<g>
</g>
<g>
</g>
<g>
</g>
<g>
</g>
<g>
</g>
<g>
</g>
<g>
</g>
</svg>
