<?xml version="1.0" encoding="iso-8859-1"?>
<!-- Generator: Adobe Illustrator 19.0.0, SVG Export Plug-In . SVG Version: 6.00 Build 0)  -->
<svg version="1.1" id="Layer_1" xmlns="http://www.w3.org/2000/svg" xmlns:xlink="http://www.w3.org/1999/xlink" x="0px" y="0px"
	 viewBox="0 0 512 512" style="enable-background:new 0 0 512 512;" xml:space="preserve">
<circle style="fill:#E6F3FF;" cx="256" cy="256" r="256"/>
<path style="fill:#CFDBE6;" d="M437.019,437.019c50.657-50.657,75.628-117.26,74.95-183.651L391.327,132.725l-153.14,138.79
	l-117.513,96.434L264.564,511.84C327.197,509.755,389.211,484.828,437.019,437.019z"/>
<rect x="120.673" y="132.725" style="fill:#2C9984;" width="270.653" height="135.327"/>
<rect x="255.379" y="132.725" style="fill:#1E826F;" width="135.951" height="135.327"/>
<rect x="130.517" y="141.338" style="fill:#90DFAA;" width="250.966" height="118.105"/>
<rect x="255.379" y="141.338" style="fill:#6FC688;" width="126.104" height="118.105"/>
<ellipse style="fill:#2C9984;" cx="256" cy="200.387" rx="27.065" ry="40.598"/>
<path style="fill:#1E826F;" d="M256,159.791c-0.21,0-0.415,0.017-0.624,0.024v81.148c0.209,0.007,0.415,0.024,0.624,0.024
	c14.948,0,27.065-18.177,27.065-40.598S270.948,159.791,256,159.791z"/>
<rect x="120.673" y="163.668" style="fill:#2C9984;" width="270.653" height="135.327"/>
<rect x="255.379" y="163.668" style="fill:#1E826F;" width="135.951" height="135.327"/>
<rect x="130.517" y="172.287" style="fill:#90DFAA;" width="250.966" height="118.105"/>
<rect x="255.379" y="172.287" style="fill:#6FC688;" width="126.104" height="118.105"/>
<ellipse style="fill:#2C9984;" cx="256" cy="231.331" rx="27.065" ry="40.598"/>
<path style="fill:#1E826F;" d="M256,190.735c-0.21,0-0.415,0.017-0.624,0.024v81.148c0.209,0.007,0.415,0.024,0.624,0.024
	c14.948,0,27.065-18.177,27.065-40.598C283.065,208.91,270.948,190.735,256,190.735z"/>
<rect x="120.673" y="194.612" style="fill:#2C9984;" width="270.653" height="135.327"/>
<rect x="255.379" y="194.612" style="fill:#1E826F;" width="135.951" height="135.327"/>
<rect x="130.517" y="203.231" style="fill:#90DFAA;" width="250.966" height="118.105"/>
<rect x="255.379" y="203.231" style="fill:#6FC688;" width="126.104" height="118.105"/>
<ellipse style="fill:#2C9984;" cx="256" cy="262.275" rx="27.065" ry="40.598"/>
<path style="fill:#1E826F;" d="M256,221.677c-0.21,0-0.415,0.017-0.624,0.024v81.148c0.209,0.007,0.415,0.024,0.624,0.024
	c14.948,0,27.065-18.177,27.065-40.598C283.065,239.854,270.948,221.677,256,221.677z"/>
<rect x="120.673" y="232.624" style="fill:#2C9984;" width="270.653" height="135.327"/>
<rect x="255.379" y="232.624" style="fill:#1E826F;" width="135.951" height="135.327"/>
<rect x="130.517" y="241.243" style="fill:#90DFAA;" width="250.966" height="118.105"/>
<rect x="255.379" y="241.243" style="fill:#6FC688;" width="126.104" height="118.105"/>
<ellipse style="fill:#2C9984;" cx="256" cy="300.287" rx="27.065" ry="40.598"/>
<path style="fill:#1E826F;" d="M256,259.687c-0.21,0-0.415,0.017-0.624,0.024v81.148c0.209,0.007,0.415,0.024,0.624,0.024
	c14.948,0,27.065-18.177,27.065-40.598C283.065,277.864,270.948,259.687,256,259.687z"/>
<g>
</g>
<g>
</g>
<g>
</g>
<g>
</g>
<g>
</g>
<g>
</g>
<g>
</g>
<g>
</g>
<g>
</g>
<g>
</g>
<g>
</g>
<g>
</g>
<g>
</g>
<g>
</g>
<g>
</g>
</svg>
