<?xml version="1.0" encoding="iso-8859-1"?>
<!-- Generator: Adobe Illustrator 19.0.0, SVG Export Plug-In . SVG Version: 6.00 Build 0)  -->
<svg version="1.1" id="Layer_1" xmlns="http://www.w3.org/2000/svg" xmlns:xlink="http://www.w3.org/1999/xlink" x="0px" y="0px"
	 viewBox="0 0 512 512" style="enable-background:new 0 0 512 512;" xml:space="preserve">
<circle style="fill:#C2D5D8;" cx="256" cy="256" r="256"/>
<rect x="328" y="120" style="fill:#CC584C;" width="40" height="72"/>
<polygon style="fill:#B34D43;" points="368,164.172 328,130.26 328,192 368,192 "/>
<rect x="324" y="112" style="fill:#BF5347;" width="48" height="8"/>
<polygon style="fill:#E6E6E6;" points="412,416 100,416 100,232 256,100 412,232 "/>
<polygon style="fill:#D9D9D9;" points="100,232 100,261.032 256,128.772 412,261.032 412,232 256,100 "/>
<path style="fill:#CCCCCC;" d="M120.892,416c1.916-2.128,3.108-4.916,3.108-8c6.628,0,12-5.372,12-12
	c0-5.244-3.384-9.656-8.072-11.288c0.008-0.24,0.072-0.468,0.072-0.712c0-6.628-5.372-12-12-12c-0.028,0-0.056,0.008-0.084,0.008
	C112.264,367.172,106.528,364,100,364v52H120.892z"/>
<g>
	<path style="fill:#805026;" d="M224,356c0-2.2-1.8-4-4-4h-80c-2.2,0-4,1.8-4,4l0,0c0,2.2,1.8,4,4,4h80C222.2,360,224,358.2,224,356
		L224,356z"/>
	<path style="fill:#805026;" d="M224,268c0-2.2-1.8-4-4-4h-80c-2.2,0-4,1.8-4,4l0,0c0,2.2,1.8,4,4,4h80C222.2,272,224,270.2,224,268
		L224,268z"/>
</g>
<rect x="148" y="272" style="fill:#99602E;" width="64" height="80"/>
<rect x="148" y="272" style="fill:#8C582A;" width="64" height="4"/>
<path style="fill:#805026;" d="M384,292c0-2.2-1.8-4-4-4h-80c-2.2,0-4,1.8-4,4l0,0c0,2.2,1.8,4,4,4h80C382.2,296,384,294.2,384,292
	L384,292z"/>
<rect x="308" y="296" style="fill:#99602E;" width="64" height="120"/>
<rect x="308" y="296" style="fill:#8C582A;" width="64" height="4"/>
<rect x="156" y="280" style="fill:#91D2F2;" width="48" height="64"/>
<path style="opacity:0.3;fill:#F5F5F5;enable-background:new    ;" d="M164,300c-1.024,0-2.048-0.392-2.828-1.172
	c-1.564-1.564-1.564-4.092,0-5.656l8-8c1.564-1.564,4.092-1.564,5.656,0s1.564,4.092,0,5.656l-8,8
	C166.048,299.608,165.024,300,164,300z M166.828,314.828l24-24c1.564-1.564,1.564-4.092,0-5.656s-4.092-1.564-5.656,0l-24,24
	c-1.564,1.564-1.564,4.092,0,5.656c0.78,0.78,1.804,1.172,2.828,1.172S166.048,315.608,166.828,314.828z"/>
<path style="fill:#805026;" d="M56.228,416c46.916,58.504,118.948,96,199.772,96s152.856-37.496,199.772-96H56.228z"/>
<path style="fill:#198058;" d="M123.928,384.712c0.008-0.24,0.072-0.468,0.072-0.712c0-6.628-5.372-12-12-12
	c-0.028,0-0.056,0.008-0.084,0.008C108.264,367.172,102.528,364,96,364c-8.296,0-15.416,5.056-18.436,12.252
	C72.1,377.38,68,382.212,68,388.004c0,3.088,1.2,5.872,3.108,8c-1.916,2.128-3.108,4.912-3.108,8c0,6.628,5.372,12,12,12
	c0.972,0,1.908-0.148,2.812-0.364c2.2,2.64,5.476,4.364,9.188,4.364c3.084,0,5.876-1.2,8-3.112c2.124,1.916,4.916,3.112,8,3.112
	c6.628,0,12-5.372,12-12c6.628,0,12-5.372,12-12C132,390.756,128.616,386.344,123.928,384.712z"/>
<g>
	<path style="fill:#16734F;" d="M78.812,415.636c-0.344,0.084-0.712,0.084-1.064,0.136c0.428,0.084,0.892,0.1,1.344,0.14
		C79.008,415.812,78.9,415.736,78.812,415.636z"/>
	<path style="fill:#16734F;" d="M123.928,384.712c0.008-0.24,0.072-0.468,0.072-0.712c0-6.628-5.372-12-12-12
		c-0.028,0-0.056,0.008-0.084,0.008C108.264,367.172,102.528,364,96,364c-0.6,0-1.188,0.084-1.772,0.136
		c5.592,0.628,10.46,3.596,13.696,7.872c0.024,0,0.056-0.008,0.084-0.008c6.628,0,12,5.372,12,12c0,0.244-0.06,0.472-0.076,0.712
		c4.688,1.632,8.076,6.048,8.076,11.288c0,6.628-5.372,12-12,12c0,5.956-4.352,10.864-10.044,11.804
		C106.616,419.92,107.3,420,108,420c6.628,0,12-5.372,12-12c6.628,0,12-5.372,12-12C132,390.756,128.616,386.344,123.928,384.712z"
		/>
	<path style="fill:#16734F;" d="M96,416.892c-1.608,1.448-3.6,2.48-5.82,2.904c0.592,0.096,1.192,0.212,1.82,0.212
		c2.2,0,4.236-0.632,6-1.672C97.288,417.908,96.608,417.436,96,416.892z"/>
</g>
<path style="fill:#99602D;" d="M66.4,428h379.212c3.524-3.88,6.888-7.908,10.164-12H56.228C59.508,420.092,62.872,424.12,66.4,428z"
	/>
<path style="fill:#CC584C;" d="M429.652,264L256,116.772L82.348,264l-20.696-24.408l184-156c5.968-5.064,14.732-5.064,20.696,0
	l184,156L429.652,264z"/>
<circle style="fill:#263740;" cx="256" cy="200" r="40"/>
<path style="fill:#91D2F2;" d="M256,232c-17.644,0-32-14.356-32-32s14.356-32,32-32s32,14.356,32,32S273.644,232,256,232z"/>
<circle style="fill:#263740;" cx="364" cy="368" r="4"/>
<g>
</g>
<g>
</g>
<g>
</g>
<g>
</g>
<g>
</g>
<g>
</g>
<g>
</g>
<g>
</g>
<g>
</g>
<g>
</g>
<g>
</g>
<g>
</g>
<g>
</g>
<g>
</g>
<g>
</g>
</svg>
