<?xml version="1.0" encoding="iso-8859-1"?>
<!-- Generator: Adobe Illustrator 19.0.0, SVG Export Plug-In . SVG Version: 6.00 Build 0)  -->
<svg version="1.1" id="Layer_1" xmlns="http://www.w3.org/2000/svg" xmlns:xlink="http://www.w3.org/1999/xlink" x="0px" y="0px"
	 viewBox="0 0 512 512" style="enable-background:new 0 0 512 512;" xml:space="preserve">
<circle style="fill:#FFC61B;" cx="256" cy="256" r="256"/>
<path style="fill:#EAA22F;" d="M512,256l-56.889-56.889l-28.284,18.963h-38.66v25.919l-28.837,19.334h-59.225l-10.488-10.487
	H128.431l-7.184,6.03v-53.438H64.359v101.186l-7.47,6.27L256,512l0,0C397.384,512,512,397.384,512,256z"/>
<rect x="142.222" y="241.778" style="fill:#3A3838;" width="227.556" height="28.444"/>
<rect x="142.222" y="255.431" style="fill:#272525;" width="227.556" height="14.796"/>
<g>
	<path style="fill:#D35933;" d="M113.778,199.111H56.889v113.778h56.889c31.418,0,56.889-25.471,56.889-56.889l0,0
		C170.667,224.582,145.196,199.111,113.778,199.111z M101.279,293.926H72.835v-75.852h28.444V293.926z"/>
	<path style="fill:#D35933;" d="M398.222,312.889h56.889V199.111h-56.889c-31.418,0-56.889,25.471-56.889,56.889l0,0
		C341.333,287.418,366.804,312.889,398.222,312.889z M410.721,218.074h28.444v75.852h-28.444V218.074z"/>
</g>
<g>
	<path style="fill:#B54324;" d="M101.279,255.426v38.5H72.835v-38.5H56.889v57.463h56.889c31.418,0,56.889-25.471,56.889-56.889
		c0-0.193-0.012-0.383-0.014-0.574H101.279z"/>
	<path style="fill:#B54324;" d="M439.165,255.426v38.5h-28.444v-38.5h-69.373c-0.002,0.193-0.014,0.383-0.014,0.574
		c0,31.418,25.471,56.889,56.889,56.889h56.889v-57.463L439.165,255.426L439.165,255.426z"/>
</g>
<g>
</g>
<g>
</g>
<g>
</g>
<g>
</g>
<g>
</g>
<g>
</g>
<g>
</g>
<g>
</g>
<g>
</g>
<g>
</g>
<g>
</g>
<g>
</g>
<g>
</g>
<g>
</g>
<g>
</g>
</svg>
