<?xml version="1.0" encoding="iso-8859-1"?>
<!-- Generator: Adobe Illustrator 19.0.0, SVG Export Plug-In . SVG Version: 6.00 Build 0)  -->
<svg version="1.1" id="Layer_1" xmlns="http://www.w3.org/2000/svg" xmlns:xlink="http://www.w3.org/1999/xlink" x="0px" y="0px"
	 viewBox="0 0 504 504" style="enable-background:new 0 0 504 504;" xml:space="preserve">
<circle style="fill:#324A5E;" cx="252" cy="252" r="252"/>
<rect x="151.2" y="233.2" style="fill:#FF7058;" width="241.2" height="176.4"/>
<path style="fill:#4CDBC4;" d="M250,96.8c-13.2-5.6-28.8,0.4-34.4,13.6c-1.2,2.8-2.4,6.4-2.8,10.4c-3.2-2.4-6.4-4.4-9.2-6
	c-13.2-5.6-28.8,0.4-34.4,13.6c-5.6,13.2,0.4,28.8,13.6,34.4c6,2.8,15.2,4,23.6,3.2c4-0.4,7.6-1.2,10.8-2.4c4.4-1.6,7.6-4.4,10-7.6
	c3.6,0.8,8,0.8,12.4-1.2c3.2-1.2,6.4-3.2,9.6-5.6c6.4-5.2,12.4-12.4,15.2-18.4C269.2,118,263.2,102.4,250,96.8z M188,150.4
	c-6.4-2.8-9.2-10.4-6.4-16.8c1.2-3.2,4-5.6,6.8-6.8c3.2-1.2,6.4-1.2,9.6,0c6.4,2.8,14,10.8,16.4,16.4c0,0.4,0.4,0.4,0.4,0.8
	c0.4,1.6,0.8,2.8,0.4,4C213.2,153.2,196.4,154,188,150.4z M251.2,125.6c-3.6,8.4-16.8,19.2-21.2,17.2c-0.8-0.4-1.6-1.2-2-2.8
	c0-0.4-0.4-0.8-0.4-1.2c-2-6-2-16.8,0.8-23.2c1.2-3.2,4-5.6,6.8-6.8c3.2-1.2,6.4-1.2,9.6,0C250.8,112,254,119.2,251.2,125.6z"/>
<rect x="110.335" y="149.128" transform="matrix(-0.9311 0.3647 -0.3647 -0.9311 540.884 240.5045)" style="fill:#F1543F;" width="274.794" height="44.399"/>
<path style="fill:#FFFFFF;" d="M272,270.8c12-14.4,28-17.6,40-13.2c28.4,10.8,35.2,51.2,10.8,76.8C272,386.8,272,386.8,272,386.8
	s0,0-50.4-52.8c-24.8-25.2-18-66,10.4-76.4C244,253.2,260,256.4,272,270.8z"/>
<path style="fill:#ACB3BA;" d="M332.4,182c2-8.4,7.6-12.8,13.6-13.2c13.6-1.6,24.8,13.6,20,28.8c-10,31.6-10,31.6-10,31.6
	s0,0-31.2-11.2c-15.2-5.6-20.4-23.2-11.2-33.2C317.6,180.4,324.8,178.4,332.4,182z"/>
<path style="fill:#FFFFFF;" d="M273.6,198.4c1.2-5.2,4.8-8,8.4-8c8.4-0.8,15.2,8.4,12,17.6c-6,19.2-6,19.2-6,19.2s0,0-19.2-6.8
	c-9.2-3.2-12.4-14.4-6.8-20.4C264.4,197.6,268.8,196.4,273.6,198.4z"/>
<g>
</g>
<g>
</g>
<g>
</g>
<g>
</g>
<g>
</g>
<g>
</g>
<g>
</g>
<g>
</g>
<g>
</g>
<g>
</g>
<g>
</g>
<g>
</g>
<g>
</g>
<g>
</g>
<g>
</g>
</svg>
