<?xml version="1.0" encoding="iso-8859-1"?>
<!-- Generator: Adobe Illustrator 19.0.0, SVG Export Plug-In . SVG Version: 6.00 Build 0)  -->
<svg version="1.1" id="Layer_1" xmlns="http://www.w3.org/2000/svg" xmlns:xlink="http://www.w3.org/1999/xlink" x="0px" y="0px"
	 viewBox="0 0 473.931 473.931" style="enable-background:new 0 0 473.931 473.931;" xml:space="preserve">
<circle style="fill:#EDC92C;" cx="236.966" cy="236.966" r="236.966"/>
<path style="fill:#DCD5B1;" d="M276.348,205.194c-1.964-0.041-3.94-0.075-5.931-0.075c-3.33,0-6.619,0.079-9.875,0.202
	c-38.974,1.478-82.775,13.036-98.932,27.251c0,0,0.146,17.152,0.146,24.228c0,23.884,43.404,43.483,98.79,45.59
	c3.255,0.123,6.544,0.198,9.875,0.198c1.991,0,3.966-0.022,5.931-0.075c57.256-1.298,102.738-21.268,102.738-45.713
	c0-5.422-0.09-26.312-0.09-26.312C364.571,213.568,320.882,206.208,276.348,205.194z"/>
<path style="fill:#F1EDCD;" d="M161.753,235.087c0,23.876,43.404,43.476,98.79,45.586v-91.172
	C205.157,191.604,161.753,211.211,161.753,235.087z"/>
<path style="fill:#E6E2C5;" d="M379.085,235.087c0-24.441-45.481-44.415-102.738-45.721v91.43
	C333.608,279.502,379.085,259.528,379.085,235.087z"/>
<path style="fill:#E7E2C3;" d="M270.417,189.303c-3.33,0-6.619,0.079-9.875,0.198v91.172c3.255,0.12,6.544,0.198,9.875,0.198
	c1.991,0,3.966-0.026,5.931-0.075V189.37C274.383,189.333,272.408,189.303,270.417,189.303z"/>
<path style="fill:#DCD5B1;" d="M270.417,189.303v91.568c1.991,0,3.966-0.026,5.931-0.075V189.37
	C274.383,189.333,272.408,189.303,270.417,189.303z"/>
<path style="fill:#E4DFBC;" d="M169.857,361.424c24.8,0,44.901-20.104,44.901-44.901V147.526c0-24.797-20.104-44.901-44.901-44.901
	c-24.797,0.004-44.901,20.104-44.901,44.901v168.997C124.96,341.32,145.061,361.424,169.857,361.424z"/>
<path style="fill:#ED3432;" d="M169.857,361.424c24.8,0,44.901-20.104,44.901-44.901v-85.432h-89.802v85.432
	C124.96,341.32,145.061,361.424,169.857,361.424z"/>
<path style="fill:#F1EDCD;" d="M214.762,231.095v-83.568c0-24.797-20.104-44.901-44.901-44.901V231.08L214.762,231.095z"/>
<path style="fill:#EE4646;" d="M169.857,361.424c24.8,0,44.901-20.104,44.901-44.901v-85.432h-44.901V361.424z"/>
<g>
</g>
<g>
</g>
<g>
</g>
<g>
</g>
<g>
</g>
<g>
</g>
<g>
</g>
<g>
</g>
<g>
</g>
<g>
</g>
<g>
</g>
<g>
</g>
<g>
</g>
<g>
</g>
<g>
</g>
</svg>
