<?xml version="1.0" encoding="iso-8859-1"?>
<!-- Generator: Adobe Illustrator 19.0.0, SVG Export Plug-In . SVG Version: 6.00 Build 0)  -->
<svg version="1.1" id="Layer_1" xmlns="http://www.w3.org/2000/svg" xmlns:xlink="http://www.w3.org/1999/xlink" x="0px" y="0px"
	 viewBox="0 0 512 512" style="enable-background:new 0 0 512 512;" xml:space="preserve">
<path style="fill:#F63341;" d="M502.388,186.283C472.029,78.782,373.217,0,256,0C114.616,0,0,114.616,0,256
	c0,117.217,78.782,216.029,186.283,246.388L502.388,186.283z"/>
<path style="fill:#C92B31;" d="M512,256c0-24.168-3.354-47.551-9.612-69.717l-88.336-88.336L97.948,414.052l88.336,88.336
	C208.447,508.647,231.832,512,256,512C397.384,512,512,397.384,512,256z"/>
<polygon style="fill:#B1EAE5;" points="256,97.948 228.174,256 256,414.052 414.052,414.052 414.052,97.948 "/>
<g>
	<rect x="97.948" y="97.948" style="fill:#D8F4F2;" width="158.052" height="316.104"/>
	<polygon style="fill:#D8F4F2;" points="391.791,120.209 256,120.209 211.478,256 256,391.791 391.791,391.791 	"/>
</g>
<rect x="120.209" y="120.209" style="fill:#FFFFFF;" width="135.791" height="271.583"/>
<circle style="fill:#889391;" cx="358.4" cy="256" r="11.13"/>
<polygon style="fill:#F63341;" points="278.261,233.739 278.261,188.104 256,188.104 244.87,256 256,323.896 278.261,323.896 
	278.261,278.261 323.896,278.261 323.896,233.739 "/>
<polygon style="fill:#F85C67;" points="233.739,188.104 233.739,233.739 188.104,233.739 188.104,278.261 233.739,278.261 
	233.739,323.896 256,323.896 256,188.104 "/>
<polygon style="fill:#C3C9C8;" points="131.339,175.861 120.209,186.991 109.078,175.861 109.078,142.47 131.339,142.47 "/>
<rect x="109.078" y="175.861" style="fill:#B0B7B6;" width="22.261" height="33.391"/>
<polygon style="fill:#C3C9C8;" points="131.339,336.139 120.209,347.27 109.078,336.139 109.078,302.748 131.339,302.748 "/>
<rect x="109.078" y="336.139" style="fill:#B0B7B6;" width="22.261" height="33.391"/>
<g>
</g>
<g>
</g>
<g>
</g>
<g>
</g>
<g>
</g>
<g>
</g>
<g>
</g>
<g>
</g>
<g>
</g>
<g>
</g>
<g>
</g>
<g>
</g>
<g>
</g>
<g>
</g>
<g>
</g>
</svg>
