<?xml version="1.0" encoding="iso-8859-1"?>
<!-- Generator: Adobe Illustrator 19.0.0, SVG Export Plug-In . SVG Version: 6.00 Build 0)  -->
<svg version="1.1" id="Layer_1" xmlns="http://www.w3.org/2000/svg" xmlns:xlink="http://www.w3.org/1999/xlink" x="0px" y="0px"
	 viewBox="0 0 508 508" style="enable-background:new 0 0 508 508;" xml:space="preserve">
<circle style="fill:#324A5E;" cx="254" cy="254" r="254"/>
<polygon style="fill:#FFD05B;" points="426.8,171.6 362.8,171.6 381.2,190 272,299.2 156.8,184 73.2,267.6 99.6,294 156.8,236.8 
	272,352 407.6,216.4 426.8,235.6 "/>
<path style="fill:#E6E9EE;" d="M216,220.8c-0.4-14.8-12.4-57.6-20.4-70c-6.8-10.8-10.8-24-10.8-36.8c0-4.4,3.2-8.4,7.2-9.2
	c8.4-2.4,16.8-4,25.6-3.2c11.2,1.2,23.2,6.8,33.6,2.8c4-1.6,7.2-4.4,11.2-6c8.8-3.6,18.8-0.4,28,1.6c13.2,2.8,26.4,3.2,39.6,0.8
	c3.2-0.4,6.4-1.2,8.8,0.8c0.8,0.8,1.6,1.6,2,2.4c4.8,7.6-0.4,17.6-5.2,25.2c-13.6,21.2-27.6,74-41.2,95.2"/>
<path style="fill:#84DBFF;" d="M354.8,346.8c0,46.8-45.2,64.8-100.8,64.8s-100.8-18-100.8-64.8s45.2-172,100.8-172
	C309.6,175.2,354.8,300.4,354.8,346.8z"/>
<path style="fill:#FF7058;" d="M258.4,351.2v13.2h-8.8v-12.8c-8,0-15.6-2-22.8-5.6v-16.8c2.4,2,6,3.6,10.4,5.2
	c4.8,1.6,8.8,2.4,12.4,2.8v-22c-9.6-3.6-16-7.2-19.2-11.2s-5.2-9.2-5.2-14.8c0-6.4,2.4-11.6,6.8-16c4.4-4.4,10.4-7.2,17.6-7.6V254
	h8.8v10.8c8.4,0.4,14.8,1.6,19.2,4v16.4c-5.6-3.6-12-5.6-19.2-6.4V302c8.8,3.2,15.2,6.8,18.8,10.8c4,4,5.6,9.2,5.6,14.8
	c0,6.8-2,12-6.4,16C272.4,348,266.4,350.4,258.4,351.2z M249.6,298.4v-19.2c-5.6,1.2-8.4,4-8.4,8.8
	C241.2,292.4,244,295.6,249.6,298.4z M258.4,318.8v18.4c5.6-0.8,8.8-3.6,8.8-8.8C266.8,324.8,264,321.6,258.4,318.8z"/>
<g>
</g>
<g>
</g>
<g>
</g>
<g>
</g>
<g>
</g>
<g>
</g>
<g>
</g>
<g>
</g>
<g>
</g>
<g>
</g>
<g>
</g>
<g>
</g>
<g>
</g>
<g>
</g>
<g>
</g>
</svg>
