<?xml version="1.0" encoding="iso-8859-1"?>
<!-- Generator: Adobe Illustrator 19.0.0, SVG Export Plug-In . SVG Version: 6.00 Build 0)  -->
<svg version="1.1" id="Layer_1" xmlns="http://www.w3.org/2000/svg" xmlns:xlink="http://www.w3.org/1999/xlink" x="0px" y="0px"
	 viewBox="0 0 512 512" style="enable-background:new 0 0 512 512;" xml:space="preserve">
<circle style="fill:#366695;" cx="256" cy="256" r="256"/>
<path style="fill:#273B7A;" d="M400.198,146.537L123.599,387.243l124.63,124.63c2.582,0.078,5.172,0.128,7.773,0.128
	c140.603,0,254.714-113.357,255.971-253.662L400.198,146.537z"/>
<path style="fill:#FFC91B;" d="M149.263,398.222h213.476c19.597,0,35.485-15.888,35.485-35.483V170.667H113.778v192.072
	C113.778,382.335,129.665,398.222,149.263,398.222z"/>
<path style="fill:#E2AE1A;" d="M255.426,170.667v227.556h107.313c19.597,0,35.483-15.888,35.483-35.483V170.667H255.426z"/>
<path style="fill:#D48B07;" d="M106.02,200.663h299.96v-40.11c0-10.981-8.902-19.884-19.884-19.884H125.904
	c-10.981,0-19.884,8.902-19.884,19.884C106.02,160.553,106.02,200.663,106.02,200.663z"/>
<path style="fill:#B77409;" d="M405.98,160.554c0-10.981-8.902-19.882-19.884-19.882h-130.67v59.992H405.98V160.554z"/>
<path style="fill:#D48B07;" d="M215.623,273.67h80.753c2.931,0,5.306-2.376,5.306-5.306v-35.069c0-2.931-2.376-5.306-5.306-5.306
	h-80.753c-2.931,0-5.306,2.376-5.306,5.306v35.069C210.316,271.294,212.692,273.67,215.623,273.67z"/>
<path style="fill:#B77409;" d="M296.377,227.987h-40.951v45.683h40.951c2.931,0,5.306-2.376,5.306-5.306v-35.069
	C301.684,230.362,299.308,227.987,296.377,227.987z"/>
<g>
</g>
<g>
</g>
<g>
</g>
<g>
</g>
<g>
</g>
<g>
</g>
<g>
</g>
<g>
</g>
<g>
</g>
<g>
</g>
<g>
</g>
<g>
</g>
<g>
</g>
<g>
</g>
<g>
</g>
</svg>
