<?xml version="1.0" encoding="iso-8859-1"?>
<!-- Generator: Adobe Illustrator 19.0.0, SVG Export Plug-In . SVG Version: 6.00 Build 0)  -->
<svg version="1.1" id="Layer_1" xmlns="http://www.w3.org/2000/svg" xmlns:xlink="http://www.w3.org/1999/xlink" x="0px" y="0px"
	 viewBox="0 0 508 508" style="enable-background:new 0 0 508 508;" xml:space="preserve">
<circle style="fill:#FD8469;" cx="254" cy="254" r="254"/>
<path style="fill:#FFD05B;" d="M396.8,361.2H111.2V135.6c0-28,22.8-51.2,51.2-51.2H346c28,0,51.2,22.8,51.2,51.2v225.6H396.8z"/>
<path id="SVGCleanerId_0" style="fill:#FFD05B;" d="M396.8,135.2v226H111.2v-226c0-28,22.8-50.8,50.8-50.8h184
	C374,84.8,396.8,107.2,396.8,135.2z"/>
<g>
	<path id="SVGCleanerId_0_1_" style="fill:#FFD05B;" d="M396.8,135.2v226H111.2v-226c0-28,22.8-50.8,50.8-50.8h184
		C374,84.8,396.8,107.2,396.8,135.2z"/>
</g>
<path style="fill:#F9B54C;" d="M396.8,266v72H111.2v-72c7.2-8,17.6-12.8,28.8-12.8h227.6C379.2,252.8,389.6,258,396.8,266z"/>
<g>
	<rect x="120" y="142.4" style="fill:#E6E9EE;" width="130" height="121.6"/>
	<rect x="258.4" y="142.4" style="fill:#E6E9EE;" width="130" height="121.6"/>
</g>
<g>
	<polygon style="fill:#FFFFFF;" points="368.4,142.4 258.4,142.4 258.4,263.6 310,263.6 	"/>
	<polygon style="fill:#FFFFFF;" points="229.6,142.4 119.6,142.4 119.6,263.6 171.2,263.6 	"/>
</g>
<g>
	<path style="fill:#324A5E;" d="M400.8,367.6h-51.6v47.2c0,4.8,4,8.4,8.4,8.4H392c4.8,0,8.4-4,8.4-8.4L400.8,367.6L400.8,367.6z"/>
	<path style="fill:#324A5E;" d="M158.8,367.6h-51.6v47.2c0,4.8,4,8.4,8.4,8.4H150c4.8,0,8.4-4,8.4-8.4v-47.2H158.8z"/>
</g>
<path style="fill:#E6E9EE;" d="M414,382.8H94c-3.6,0-6.8-3.2-6.8-6.8v-25.2c0-3.6,3.2-6.8,6.8-6.8h320c3.6,0,6.8,3.2,6.8,6.8V376
	C420.8,380,418,382.8,414,382.8z"/>
<path style="fill:#FFD05B;" d="M406.8,344H101.2v-46c0-21.6,17.6-39.2,39.2-39.2h227.2c21.6,0,39.2,17.6,39.2,39.2V344z"/>
<rect x="159.2" y="258.8" style="fill:#F9B54C;" width="190" height="85.2"/>
<path style="fill:#FFD05B;" d="M164.4,344v-92.4c0-7.6,6-13.6,13.6-13.6h152c7.6,0,13.6,6,13.6,13.6V344H164.4z"/>
<g>
	<rect x="180.8" y="250.8" style="fill:#F9B54C;" width="40.8" height="8"/>
	<rect x="180.8" y="267.6" style="fill:#F9B54C;" width="40.8" height="8"/>
	<rect x="180.8" y="284.4" style="fill:#F9B54C;" width="40.8" height="8"/>
	<rect x="180.8" y="301.2" style="fill:#F9B54C;" width="40.8" height="8"/>
	<rect x="180.8" y="318.4" style="fill:#F9B54C;" width="40.8" height="8"/>
	<rect x="233.6" y="250.8" style="fill:#F9B54C;" width="40.8" height="8"/>
	<rect x="233.6" y="267.6" style="fill:#F9B54C;" width="40.8" height="8"/>
	<rect x="233.6" y="284.4" style="fill:#F9B54C;" width="40.8" height="8"/>
	<rect x="233.6" y="301.2" style="fill:#F9B54C;" width="40.8" height="8"/>
	<rect x="233.6" y="318.4" style="fill:#F9B54C;" width="40.8" height="8"/>
	<rect x="286.4" y="250.8" style="fill:#F9B54C;" width="40.8" height="8"/>
	<rect x="286.4" y="267.6" style="fill:#F9B54C;" width="40.8" height="8"/>
	<rect x="286.4" y="284.4" style="fill:#F9B54C;" width="40.8" height="8"/>
	<rect x="286.4" y="301.2" style="fill:#F9B54C;" width="40.8" height="8"/>
	<rect x="286.4" y="318.4" style="fill:#F9B54C;" width="40.8" height="8"/>
</g>
<circle style="fill:#FFFFFF;" cx="377.2" cy="298.4" r="21.2"/>
<circle style="fill:#54C0EB;" cx="377.2" cy="298.4" r="17.2"/>
<path style="fill:#84DBFF;" d="M389.2,286.4c-0.8-0.8-2-2-3.2-2.4l-23.6,23.6c0.8,1.2,1.6,2.4,2.4,3.2c6.8,6.8,17.6,6.8,24.4,0
	C396,304,396,293.2,389.2,286.4z"/>
<circle style="fill:#FF7058;" cx="390.4" cy="332.8" r="8"/>
<circle style="fill:#FFFFFF;" cx="132.8" cy="298.4" r="21.2"/>
<circle style="fill:#FF7058;" cx="119.6" cy="332.8" r="8"/>
<g>
	<circle style="fill:#FFFFFF;" cx="353.2" cy="114" r="13.6"/>
	<circle style="fill:#FFFFFF;" cx="154.8" cy="114" r="13.6"/>
</g>
<g>
	<path style="fill:#324A5E;" d="M183.6,107.6c-0.4,0.4-0.4,0.8-0.4,1.2c0,0.4,0.4,0.8,0.8,1.2c0.4,0.4,1.2,0.4,2.8,0.8
		s2.8,0.8,3.6,1.6c0.8,0.8,1.2,2,1.2,3.2c0,1.6-0.4,2.4-1.6,3.6c-1.2,0.8-2.4,1.2-4,1.2c-2.4,0-4.8-0.8-6.8-2.8l2-2.4
		c1.6,1.6,3.2,2.4,4.8,2.4c0.8,0,1.2,0,1.6-0.4c0.4-0.4,0.4-0.8,0.4-1.2s0-0.8-0.4-1.2c-0.4-0.4-1.2-0.4-2.4-0.8
		c-2-0.4-3.2-0.8-4-1.6c-0.8-0.8-1.2-1.6-1.2-3.2s0.4-2.8,1.6-3.6c1.2-0.8,2.4-1.2,4-1.2c1.2,0,2,0,3.2,0.4s2,0.8,2.8,1.6l-1.6,2.4
		c-1.2-1.2-2.8-1.6-4.4-1.6C184.4,107.2,184,107.2,183.6,107.6z"/>
	<path style="fill:#324A5E;" d="M201.2,117.2c1.6,0,3.2-0.8,4.4-2l2.4,2.4c-1.6,2-4,3.2-6.4,3.2s-4.4-0.8-6-2.4s-2.4-3.6-2.4-5.6
		c0-2.4,0.8-4.4,2.4-6c1.6-1.6,3.6-2.4,6-2.4s4.8,0.8,6.4,2.8l-2,2.4c-1.2-1.2-2.4-2-4-2c-1.2,0-2.4,0.4-3.2,1.2
		c-0.8,0.8-1.6,2-1.6,3.6s0.4,2.8,1.2,3.6C199.2,116.8,200,117.2,201.2,117.2z"/>
	<path style="fill:#324A5E;" d="M220.4,104.4h3.6V120h-3.6v-6H214v6h-3.6v-15.6h3.6v6.4h6.4V104.4z"/>
	<path style="fill:#324A5E;" d="M240.8,118c-1.6,1.6-3.6,2.4-6,2.4s-4.4-0.8-6-2.4s-2.4-3.6-2.4-5.6c0-2.4,0.8-4.4,2.4-5.6
		c1.6-1.6,3.6-2.4,6-2.4s4.4,0.8,6,2.4s2.4,3.6,2.4,5.6S242.4,116.4,240.8,118z M239.6,112.4c0-1.2-0.4-2.4-1.2-3.6
		c-0.8-0.8-2-1.6-3.2-1.6s-2.4,0.4-3.2,1.6c-0.8,0.8-1.2,2-1.2,3.6c0,1.2,0.4,2.4,1.2,3.6c0.8,0.8,2,1.6,3.2,1.6s2.4-0.4,3.2-1.6
		C239.2,114.8,239.6,113.6,239.6,112.4z"/>
	<path style="fill:#324A5E;" d="M259.2,118c-1.6,1.6-3.6,2.4-6,2.4s-4.4-0.8-6-2.4s-2.4-3.6-2.4-5.6c0-2.4,0.8-4.4,2.4-5.6
		c1.6-1.6,3.6-2.4,6-2.4s4.4,0.8,6,2.4s2.4,3.6,2.4,5.6S260.8,116.4,259.2,118z M258.4,112.4c0-1.2-0.4-2.4-1.2-3.6
		c-0.8-0.8-2-1.6-3.2-1.6s-2.4,0.4-3.2,1.6c-0.8,0.8-1.2,2-1.2,3.6c0,1.2,0.4,2.4,1.2,3.6c0.8,0.8,2,1.6,3.2,1.6s2.4-0.4,3.2-1.6
		C257.6,114.8,258.4,113.6,258.4,112.4z"/>
	<path style="fill:#324A5E;" d="M264.8,120.4v-15.6h3.6v12.4h6.8v3.2H264.8z"/>
	<path style="fill:#324A5E;" d="M290.4,120.4h-6.8v-15.6h6c1.2,0,2,0,2.8,0.4s1.2,0.4,1.6,1.2c0.8,0.8,1.2,1.6,1.2,2.8
		c0,1.2-0.4,2-1.2,2.8c-0.4,0.4-0.4,0.4-0.4,0.4s-0.4,0-0.4,0.4c0.8,0.4,1.6,0.8,2.4,1.2c0.4,0.8,0.8,1.6,0.8,2.4
		c0,1.2-0.4,2-1.2,2.8C294,119.6,292.4,120.4,290.4,120.4z M286.8,110.8h1.6c0.8,0,1.6,0,2-0.4s0.8-0.8,0.8-1.2
		c0-0.8-0.4-1.2-0.8-1.2c-0.4-0.4-1.2-0.4-2-0.4h-1.6V110.8z M286.8,117.2h2.4c1.2,0,1.6,0,2.4-0.4c0.4-0.4,0.8-0.8,0.8-1.6
		c0-0.8-0.4-1.2-0.8-1.6s-1.2-0.4-2.4-0.4h-2L286.8,117.2L286.8,117.2z"/>
	<path style="fill:#324A5E;" d="M303.2,116c0.4,0.8,1.2,1.2,2.4,1.2c0.8,0,1.6-0.4,2.4-1.2c0.4-0.8,0.8-1.6,0.8-2.8v-8.8h3.6v8.8
		c0,2.4-0.8,4-2,5.2s-2.8,2-4.8,2s-3.6-0.8-4.8-2c-1.2-1.2-2-2.8-2-5.2v-8.8h3.2v8.8C302,114.4,302.4,115.6,303.2,116z"/>
	<path style="fill:#324A5E;" d="M319.2,107.6c-0.4,0.4-0.4,0.8-0.4,1.2c0,0.4,0.4,0.8,0.8,1.2c0.4,0.4,1.2,0.4,2.8,0.8
		c1.6,0.4,2.8,0.8,3.6,1.6c0.8,0.8,1.2,2,1.2,3.2c0,1.6-0.4,2.4-1.6,3.6c-1.2,0.8-2.4,1.2-4,1.2c-2.4,0-4.8-0.8-6.8-2.8l2-2.4
		c1.6,1.6,3.2,2.4,4.8,2.4c0.8,0,1.2,0,1.6-0.4s0.4-0.8,0.4-1.2s0-0.8-0.4-1.2c-0.4-0.4-1.2-0.4-2.4-0.8c-2-0.4-3.2-0.8-4-1.6
		c-0.8-0.8-1.2-1.6-1.2-3.2s0.4-2.8,1.6-3.6c1.2-0.8,2.4-1.2,4-1.2c1.2,0,2,0,3.2,0.4s2,0.8,2.8,1.6l-1.6,2.4
		c-1.2-1.2-2.8-1.6-4.4-1.6C320,107.2,319.6,107.2,319.2,107.6z"/>
</g>
<circle style="fill:#54C0EB;" cx="132.8" cy="298.4" r="17.2"/>
<path style="fill:#84DBFF;" d="M145.2,286.4c-0.8-0.8-2-2-3.2-2.4l-23.6,23.6c0.8,1.2,1.6,2.4,2.4,3.2c6.8,6.8,17.6,6.8,24.4,0
	C152,304,152,293.2,145.2,286.4z"/>
<g>
</g>
<g>
</g>
<g>
</g>
<g>
</g>
<g>
</g>
<g>
</g>
<g>
</g>
<g>
</g>
<g>
</g>
<g>
</g>
<g>
</g>
<g>
</g>
<g>
</g>
<g>
</g>
<g>
</g>
</svg>
