<?xml version="1.0" encoding="iso-8859-1"?>
<!-- Generator: Adobe Illustrator 19.0.0, SVG Export Plug-In . SVG Version: 6.00 Build 0)  -->
<svg version="1.1" id="Layer_1" xmlns="http://www.w3.org/2000/svg" xmlns:xlink="http://www.w3.org/1999/xlink" x="0px" y="0px"
	 viewBox="0 0 512 512" style="enable-background:new 0 0 512 512;" xml:space="preserve">
<circle style="fill:#273B7A;" cx="256" cy="256" r="256"/>
<path style="fill:#121149;" d="M505.282,314.478L357.71,166.907l-7.042,18.103l-53.867-53.867l-81.603,13.6v60.235h127.7
	l-26.734,68.718l-206.06,63.783l46.845,46.845l-33.339,2.32l125.252,125.252c2.372,0.066,4.749,0.103,7.137,0.103
	C377.265,512,478.829,427.682,505.282,314.478z"/>
<path style="fill:#FFFFFF;" d="M132.36,244.481h247.282l-12.05-63.621c-1.965-10.376-12.167-17.982-24.121-17.982h-174.94
	c-11.954,0-22.156,7.606-24.121,17.982L132.36,244.481z"/>
<path style="fill:#D0D1D3;" d="M367.592,180.86c-1.965-10.376-12.167-17.982-24.121-17.982H256v81.603h123.64L367.592,180.86z"/>
<g>
	<path style="fill:#A6A8AA;" d="M160.521,391.201H133.87c-7.663,0-13.876-6.211-13.876-13.876v-53.853
		c0-7.663,6.211-13.876,13.876-13.876h26.652c7.663,0,13.876,6.211,13.876,13.876v53.853
		C174.397,384.988,168.184,391.201,160.521,391.201z"/>
	<path style="fill:#A6A8AA;" d="M378.13,391.201h-26.652c-7.663,0-13.876-6.211-13.876-13.876v-53.853
		c0-7.663,6.211-13.876,13.876-13.876h26.652c7.663,0,13.876,6.211,13.876,13.876v53.853
		C392.004,384.988,385.793,391.201,378.13,391.201z"/>
</g>
<path style="fill:#FFC61B;" d="M380.076,348.751H131.924c-14.782,0-26.765-11.983-26.765-26.765v-55.274
	c0-14.782,11.983-26.765,26.765-26.765h248.153c14.782,0,26.765,11.983,26.765,26.765v55.274
	C406.842,336.767,394.859,348.751,380.076,348.751z"/>
<path style="fill:#EAA22F;" d="M380.076,239.947H256v108.804h124.076c14.782,0,26.765-11.983,26.765-26.765v-55.274
	C406.842,251.93,394.859,239.947,380.076,239.947z"/>
<path style="fill:#FFFFFF;" d="M180.339,318.252h-57.511c-7.028,0-12.726-5.698-12.726-12.726v-22.357
	c0-7.028,5.698-12.726,12.726-12.726h57.509c7.028,0,12.726,5.697,12.726,12.726v22.357
	C193.064,312.556,187.368,318.252,180.339,318.252z"/>
<path style="fill:#D0D1D3;" d="M389.172,318.252h-57.51c-7.028,0-12.726-5.698-12.726-12.726v-22.357
	c0-7.028,5.697-12.726,12.726-12.726h57.51c7.028,0,12.726,5.697,12.726,12.726v22.357
	C401.896,312.556,396.198,318.252,389.172,318.252z"/>
<rect x="215.195" y="131.138" style="fill:#FFC61B;" width="81.61" height="27.202"/>
<rect x="256" y="131.138" style="fill:#EAA22F;" width="40.801" height="27.202"/>
<g>
	<rect x="201.594" y="291.874" style="fill:#FFFFFF;" width="108.813" height="4.946"/>
	<rect x="201.594" y="273.739" style="fill:#FFFFFF;" width="108.813" height="4.946"/>
	<rect x="201.594" y="311.665" style="fill:#FFFFFF;" width="108.813" height="4.946"/>
</g>
<g>
	<rect x="256" y="291.874" style="fill:#D0D1D3;" width="54.401" height="4.946"/>
	<rect x="256" y="273.739" style="fill:#D0D1D3;" width="54.401" height="4.946"/>
	<rect x="256" y="311.665" style="fill:#D0D1D3;" width="54.401" height="4.946"/>
</g>
<g>
</g>
<g>
</g>
<g>
</g>
<g>
</g>
<g>
</g>
<g>
</g>
<g>
</g>
<g>
</g>
<g>
</g>
<g>
</g>
<g>
</g>
<g>
</g>
<g>
</g>
<g>
</g>
<g>
</g>
</svg>
