<?xml version="1.0" encoding="iso-8859-1"?>
<!-- Generator: Adobe Illustrator 19.0.0, SVG Export Plug-In . SVG Version: 6.00 Build 0)  -->
<svg version="1.1" id="Layer_1" xmlns="http://www.w3.org/2000/svg" xmlns:xlink="http://www.w3.org/1999/xlink" x="0px" y="0px"
	 viewBox="0 0 504 504" style="enable-background:new 0 0 504 504;" xml:space="preserve">
<circle style="fill:#84DBFF;" cx="252" cy="252" r="252"/>
<path style="fill:#FF7058;" d="M292.8,111.5h-81.6l4.9-20.4c1.2-5.1,5.8-8.7,11.1-8.7h49.7c5.3,0,9.8,3.6,11.1,8.7L292.8,111.5z"/>
<path style="fill:#FFD05B;" d="M403.6,163v29.5c17.9-0.7,31.9-7,31.9-14.8S421.4,163.7,403.6,163z"/>
<path style="fill:#F9B54C;" d="M435.4,177.8c0,0.2,0,0.5,0,0.7l-0.1,0.7c-1.6,7.1-14.9,12.7-31.7,13.3h-23.7V187
	c9.1,0.3,17-0.3,23.7-1.4c17.1-2.7,26.7-8.6,30.6-11.7C435,175.1,435.4,176.4,435.4,177.8z"/>
<path style="fill:#FFD05B;" d="M100.4,163v29.5c-17.9-0.7-31.9-7-31.9-14.8S82.6,163.7,100.4,163z"/>
<path style="fill:#F9B54C;" d="M68.6,177.8c0,0.2,0,0.5,0,0.7l0.1,0.7c1.6,7.1,14.9,12.7,31.7,13.3h23.7V187
	c-9.1,0.3-17-0.3-23.7-1.4c-17.1-2.7-26.7-8.6-30.6-11.7C69,175.1,68.6,176.4,68.6,177.8z"/>
<g>
	<path style="fill:#2B3B4E;" d="M415.2,309.2h-35.5c-1.3,0-2.3,1-2.3,2.3v64.9c0,1.3,1,2.3,2.3,2.3h35.5c1.3,0,2.3-1,2.3-2.3v-64.9
		C417.6,310.3,416.5,309.2,415.2,309.2z"/>
	<path style="fill:#2B3B4E;" d="M124.2,309.2H88.8c-1.3,0-2.3,1-2.3,2.3v64.9c0,1.3,1,2.3,2.3,2.3h35.5c1.3,0,2.3-1,2.3-2.3v-64.9
		C126.6,310.3,125.5,309.2,124.2,309.2z"/>
</g>
<path style="fill:#FFD05B;" d="M420.5,323.4v-79.7c-2.5-2-11.5-19.1-11.5-19.1c-13.5-58.2-54.2-110.8-54.2-110.8
	c-19.4-3.3-70.5-4.4-96.8-4.8v-0.1c-1.6,0-3.6,0-6,0.1c-2.4,0-4.4-0.1-6-0.1v0.1c-26.2,0.4-77.4,1.5-96.8,4.8
	c0,0-40.6,52.6-54.2,110.8c0,0-9,17-11.5,19.1v79.7c0,0-6,30.1,39.6,31.6H246h12h122.8C426.5,353.5,420.5,323.4,420.5,323.4z"/>
<g>
	<path style="fill:#F9B54C;" d="M349,303.9c0,0,21.9-15.4,46.7-9c0,0,5.2,10.2,6.7,20.9c1.7,12.1-7.3,23.1-19.4,24.2l-14.5,1.4
		L349,303.9z"/>
	<path style="fill:#F9B54C;" d="M150.8,303.9l-19.4,37.5l-14.5-1.4c-3.3-0.3-6.4-1.4-9.1-3c-7.1-4.3-11.5-12.5-10.3-21.2
		c0.1-0.7,0.2-1.4,0.3-2.1c1.8-9.9,6.3-18.8,6.3-18.8C128.9,288.5,150.8,303.9,150.8,303.9z"/>
	<polygon style="fill:#F9B54C;" points="349,355 319.7,298.4 184.3,298.4 155,355 	"/>
</g>
<path style="fill:#FFFFFF;" d="M406,232.5c0,0-27.8,19.4-154,19.2c-126.2,0.2-154-19.2-154-19.2L95.3,253
	c16.5,17.4,46.7,22.7,46.7,22.7l9.5-7.6c18.3,11.2,76.4,15.2,100.5,16.5c24.1-1.2,82.2-5.3,100.5-16.5l9.5,7.6
	c0,0,30.3-5.3,46.7-22.7L406,232.5z"/>
<g>
	<path style="fill:#F9B54C;" d="M407.4,218.7l-10.8-5l-18,13.2l16.4-43.3C399.9,194.7,404.2,206.5,407.4,218.7z"/>
	<path style="fill:#F9B54C;" d="M125.3,226.9l-18-13.2l-10.8,5c3.2-12.1,7.5-24,12.3-35.1L125.3,226.9z"/>
</g>
<ellipse style="fill:none;stroke:#324A5E;stroke-width:0.25;stroke-miterlimit:10;" cx="248.6" cy="267" rx="15.4" ry="7.1"/>
<path style="fill:#2B3B4E;" d="M341.5,247.6l-11.8,28.3c-25.1,5.5-60.3,7.9-77.8,8.7c-17.4-0.9-52.7-3.3-77.8-8.7l-11.7-28.3
	c22.1,2.5,51.3,4.2,89.5,4.1C290.2,251.8,319.4,250,341.5,247.6z"/>
<ellipse style="fill:#E6E9EE;" cx="252" cy="267.9" rx="19.5" ry="10.1"/>
<path style="fill:#F9B54C;" d="M310.6,110.4l-3.5,6.7H196.9l-3.5-6.7c19-0.8,39.1-1.2,52.6-1.4v-0.1c1.6,0,3.6,0,6,0.1
	c2.4,0,4.4-0.1,6-0.1v0.1C271.5,109.2,291.6,109.6,310.6,110.4z"/>
<g>
	<circle style="fill:#ACB3BA;" cx="369" cy="259.4" r="11.1"/>
	<circle style="fill:#ACB3BA;" cx="391.6" cy="251.2" r="7.3"/>
	<circle style="fill:#ACB3BA;" cx="135" cy="258.9" r="11.1"/>
	<circle style="fill:#ACB3BA;" cx="112.4" cy="250.8" r="7.3"/>
</g>
<g>
	<path style="fill:#FFFFFF;" d="M233.9,91.8v13.6h-3.8V91.8h-4.8v-3.3h13.3v3.3H233.9z"/>
	<path style="fill:#FFFFFF;" d="M252.2,105.4l-1.6-3.6h-7.1l-1.6,3.6h-4l7.3-16.8h3.6l7.3,16.8C256.1,105.4,252.2,105.4,252.2,105.4
		z M247.1,93.5l-2.1,4.9h4.2L247.1,93.5z"/>
	<path style="fill:#FFFFFF;" d="M267.6,88.5h4.5l-5.2,8.1l5.7,8.7H268l-3.6-5.5l-3.6,5.5h-4.5l5.7-8.6l-5.3-8.2h4.5l3.2,5
		L267.6,88.5z"/>
	<path style="fill:#FFFFFF;" d="M274.9,88.5h3.8v16.8h-3.8V88.5z"/>
	<rect x="204.8" y="310.9" style="fill:#FFFFFF;" width="94.4" height="33.2"/>
	<path style="fill:#FFFFFF;" d="M387.6,185.5l-35.2-62.1c-0.6-1-1.7-1.6-2.9-1.6c-30.5,1.8-75.7,1.9-96.4,1.8
		c-20.7,0.1-65.9,0-96.4-1.8c-1.2-0.1-2.3,0.5-2.9,1.6l-35.2,62.1c-1.1,2,0.2,4.5,2.5,4.6c17.9,0.9,80.5,3.8,132,4
		c51.5-0.1,114-3.1,132-4C387.3,190,388.7,187.5,387.6,185.5z"/>
</g>
<path style="fill:#54C0EB;" d="M34.1,378.6C77.8,453.6,159,504,252,504s174.2-50.4,217.9-125.4H34.1z"/>
<g>
</g>
<g>
</g>
<g>
</g>
<g>
</g>
<g>
</g>
<g>
</g>
<g>
</g>
<g>
</g>
<g>
</g>
<g>
</g>
<g>
</g>
<g>
</g>
<g>
</g>
<g>
</g>
<g>
</g>
</svg>
