<?xml version="1.0" encoding="iso-8859-1"?>
<!-- Generator: Adobe Illustrator 19.0.0, SVG Export Plug-In . SVG Version: 6.00 Build 0)  -->
<svg version="1.1" id="Layer_1" xmlns="http://www.w3.org/2000/svg" xmlns:xlink="http://www.w3.org/1999/xlink" x="0px" y="0px"
	 viewBox="0 0 511.998 511.998" style="enable-background:new 0 0 511.998 511.998;" xml:space="preserve">
<circle style="fill:#FFD630;" cx="255.999" cy="255.975" r="255.975"/>
<path style="fill:#F5BE18;" d="M510.574,283.252L283.28,55.958l-64.131,6.318v81.581l-60.722,270.917l97.225,97.225h0.351
	C388.177,512,496.935,411.816,510.574,283.252z"/>
<path style="fill:#4D4D4D;" d="M184.752,413.721h4.563v20.257h-4.563V413.721z M206.162,413.721h4.563v20.257h-4.563V413.721z"/>
<path style="fill:#808080;" d="M197.738,420.641L197.738,420.641c4.652,0,8.423,3.772,8.423,8.423v11.383
	c0,4.652-3.772,8.423-8.423,8.423l0,0c-4.652,0-8.423-3.772-8.423-8.423v-11.383C189.314,424.413,193.086,420.641,197.738,420.641z"
	/>
<g>
	<path style="fill:#4D4D4D;" d="M197.738,420.641L197.738,420.641v28.23l0,0c4.663,0,8.423-3.811,8.423-8.423v-11.383
		C206.162,424.452,202.352,420.641,197.738,420.641z"/>
	<path style="fill:#4D4D4D;" d="M277.765,413.721h4.563v20.257h-4.563V413.721z M299.176,413.721h4.563v20.257h-4.563V413.721z"/>
</g>
<path style="fill:#808080;" d="M290.751,420.641L290.751,420.641c4.652,0,8.423,3.772,8.423,8.423v11.383
	c0,4.652-3.772,8.423-8.423,8.423l0,0c-4.652,0-8.423-3.772-8.423-8.423v-11.383C282.328,424.413,286.099,420.641,290.751,420.641z"
	/>
<path style="fill:#4D4D4D;" d="M290.751,420.641L290.751,420.641v28.23l0,0c4.663,0,8.423-3.811,8.423-8.423v-11.383
	C299.176,424.452,295.365,420.641,290.751,420.641z"/>
<path style="fill:#E84F4F;" d="M171.965,143.857h144.56c14.04,0,25.421,11.382,25.421,25.422v223.984
	c0,14.04-11.382,25.421-25.421,25.421h-144.56c-14.04,0-25.421-11.382-25.421-25.421V169.28
	C146.544,155.239,157.926,143.857,171.965,143.857z"/>
<g>
	<rect x="212.331" y="62.276" style="fill:#666666;" width="13.689" height="81.584"/>
	<rect x="262.472" y="62.276" style="fill:#666666;" width="13.689" height="81.584"/>
</g>
<path style="fill:#E84F4F;" d="M213.132,51.846h62.176c5.4,0,9.778,4.378,9.778,9.778l0,0c0,5.4-4.378,9.778-9.778,9.778h-62.176
	c-5.4,0-9.778-4.378-9.778-9.778l0,0C203.354,56.224,207.732,51.846,213.132,51.846z"/>
<path style="fill:#C94545;" d="M285.086,61.624c0,5.365-4.413,9.778-9.778,9.778h-62.176c-5.365,0-9.778-4.413-9.778-9.778H285.086z
	"/>
<path style="fill:#4D4D4D;" d="M341.946,250.258h10.129c10.931,0,19.856,8.926,19.856,19.806v22.363
	c0,10.931-8.926,19.806-19.856,19.806h-10.129v-10.429h9.728c2.958,0,5.365-2.407,5.365-5.365v-27.327
	c0-2.958-2.407-5.365-5.365-5.365h-9.728V250.258z"/>
<path style="fill:#C94545;" d="M187.259,165.619h113.973c8.976,0,16.296,7.321,16.296,16.296v58.616
	c0,4.513-1.855,8.625-4.864,11.583v-70.85c0-5.365-4.413-9.778-9.778-9.778H185.604c-5.365,0-9.778,4.413-9.778,9.778v70.85
	c-3.008-2.958-4.864-7.07-4.864-11.583v-58.616C170.963,172.939,178.283,165.619,187.259,165.619z M187.259,310.379h113.973
	c8.976,0,16.296,7.321,16.296,16.296v58.616c0,4.513-1.855,8.625-4.864,11.583v-70.85c0-5.365-4.413-9.778-9.778-9.778H185.604
	c-5.365,0-9.778,4.413-9.778,9.778v70.85c-3.008-2.958-4.864-7.07-4.864-11.583v-58.616
	C170.963,317.7,178.283,310.379,187.259,310.379z"/>
<g>
</g>
<g>
</g>
<g>
</g>
<g>
</g>
<g>
</g>
<g>
</g>
<g>
</g>
<g>
</g>
<g>
</g>
<g>
</g>
<g>
</g>
<g>
</g>
<g>
</g>
<g>
</g>
<g>
</g>
</svg>
