<?xml version="1.0" encoding="iso-8859-1"?>
<!-- Generator: Adobe Illustrator 19.0.0, SVG Export Plug-In . SVG Version: 6.00 Build 0)  -->
<svg version="1.1" id="Layer_1" xmlns="http://www.w3.org/2000/svg" xmlns:xlink="http://www.w3.org/1999/xlink" x="0px" y="0px"
	 viewBox="0 0 512 512" style="enable-background:new 0 0 512 512;" xml:space="preserve">
<circle style="fill:#FFC91B;" cx="256" cy="256" r="256"/>
<path style="fill:#EAA22F;" d="M510.121,287.051L292.476,69.404l-26.259,114.64l64.984,64.984l-192.231,163.24l99.095,99.095
	c5.925,0.41,11.902,0.634,17.932,0.634C386.874,512,494.795,413.789,510.121,287.051z"/>
<path style="fill:#273B7A;" d="M261.172,170.236h-10.343c-20.437,0-37.064-16.627-37.064-37.064v-43.96
	c0-20.437,16.627-37.064,37.064-37.064h10.343c20.437,0,37.064,16.627,37.064,37.064v43.96
	C298.236,153.609,281.609,170.236,261.172,170.236z M250.828,69.387c-10.931,0-19.825,8.894-19.825,19.825v43.96
	c0,10.931,8.894,19.825,19.825,19.825h10.343c10.931,0,19.825-8.894,19.825-19.825v-43.96c0-10.931-8.894-19.825-19.825-19.825
	H250.828z"/>
<path style="fill:#121149;" d="M261.172,52.148h-5.746v17.239h5.746c10.931,0,19.825,8.894,19.825,19.825v43.96
	c0,10.931-8.894,19.825-19.825,19.825h-5.746v17.239h5.746c20.437,0,37.064-16.627,37.064-37.064v-43.96
	C298.236,68.775,281.609,52.148,261.172,52.148z"/>
<path style="fill:#386895;" d="M351.939,422.753H160.061c-14.612,0-26.458-11.845-26.458-26.459v-170.86
	c0-67.598,54.8-122.397,122.397-122.397l0,0c67.598,0,122.397,54.8,122.397,122.397v170.861
	C378.397,410.908,366.552,422.753,351.939,422.753z"/>
<g>
	<path style="fill:#273B7A;" d="M256,103.038L256,103.038c-0.193,0-0.381,0.014-0.574,0.016v319.7h96.513
		c14.612,0,26.458-11.845,26.458-26.457V225.435C378.397,157.836,323.598,103.038,256,103.038z"/>
	<path style="fill:#273B7A;" d="M164.376,393.085h183.249c8.49,0,15.372-6.882,15.372-15.372v-67.518
		c0-8.49-6.882-15.372-15.372-15.372H164.376c-8.49,0-15.372,6.882-15.372,15.372v67.518
		C149.004,386.203,155.886,393.085,164.376,393.085z"/>
</g>
<path style="fill:#121149;" d="M347.624,294.822h-92.198v98.263h92.198c8.49,0,15.372-6.882,15.372-15.372v-67.518
	C362.996,301.704,356.114,294.822,347.624,294.822z"/>
<rect x="175.752" y="323.232" style="fill:#FFEDB5;" width="160.496" height="17.239"/>
<rect x="255.431" y="323.232" style="fill:#FEE187;" width="80.822" height="17.239"/>
<circle style="fill:#273B7A;" cx="256" cy="196.836" r="36.478"/>
<path style="fill:#121149;" d="M256,160.358c-0.193,0-0.381,0.026-0.574,0.029v72.894c0.193,0.003,0.381,0.029,0.574,0.029
	c20.146,0,36.476-16.331,36.476-36.476S276.146,160.358,256,160.358z"/>
<g>
</g>
<g>
</g>
<g>
</g>
<g>
</g>
<g>
</g>
<g>
</g>
<g>
</g>
<g>
</g>
<g>
</g>
<g>
</g>
<g>
</g>
<g>
</g>
<g>
</g>
<g>
</g>
<g>
</g>
</svg>
