<?xml version="1.0" encoding="iso-8859-1"?>
<!-- Generator: Adobe Illustrator 19.0.0, SVG Export Plug-In . SVG Version: 6.00 Build 0)  -->
<svg version="1.1" id="Layer_1" xmlns="http://www.w3.org/2000/svg" xmlns:xlink="http://www.w3.org/1999/xlink" x="0px" y="0px"
	 viewBox="0 0 512 512" style="enable-background:new 0 0 512 512;" xml:space="preserve">
<circle style="fill:#FFD15D;" cx="256" cy="256" r="256"/>
<path style="fill:#F9B54C;" d="M509.119,294.491L332.391,117.01L194.453,294.438l-52.231,89.086l128.072,128.072
	C392.123,504.889,491.246,413.01,509.119,294.491z"/>
<path style="fill:#B5F1F4;" d="M354.59,231.817l-175.064,48.936c-5.798,1.62-11.81-1.765-13.431-7.563l-27.015-96.642
	c-1.62-5.797,1.765-11.81,7.563-13.431l175.064-48.937c5.798-1.62,11.81,1.765,13.431,7.563l27.015,96.642
	C363.772,224.184,360.386,230.197,354.59,231.817z"/>
<path style="fill:#84DBFF;" d="M362.151,218.388l-27.015-96.642c-1.62-5.797-7.633-9.183-13.431-7.563l-86.39,24.148l31.027,118.153
	l88.245-24.667C360.386,230.197,363.772,224.184,362.151,218.388z"/>
<rect x="157.461" y="146.891" transform="matrix(-0.9631 0.2692 -0.2692 -0.9631 545.1362 320.1977)" style="fill:#00A49A;" width="186.305" height="101.171"/>
<polygon style="fill:#2C9984;" points="326.709,123.673 237.982,148.477 263.68,246.341 353.945,221.108 "/>
<ellipse transform="matrix(-0.2692 -0.9631 0.9631 -0.2692 127.8977 492.0211)" style="fill:#B5F1F4;" cx="250.625" cy="197.485" rx="40.716" ry="24.059"/>
<path style="fill:#84DBFF;" d="M273.786,190.992c-5.922-21.183-20.67-35.657-33.289-32.932l20.671,78.715
	c0.136-0.034,0.272-0.057,0.409-0.095C274.373,233.103,279.84,212.647,273.786,190.992z"/>
<path style="fill:#00A49A;" d="M258.782,189.185c1.222-0.341,1.936-1.61,1.595-2.832l-0.422-1.512
	c-1.281-4.584-6.659-7.109-12.09-5.748l-0.162-0.577c-0.341-1.222-1.61-1.936-2.832-1.595s-1.936,1.61-1.595,2.832l0.162,0.578
	c-5.349,1.652-8.638,6.599-7.356,11.183l0.846,3.025c1.281,4.584,6.659,7.108,12.09,5.747l3.112,11.131
	c-2.938,0.684-5.834-0.441-6.425-2.56l-0.422-1.512c-0.341-1.222-1.61-1.936-2.832-1.595c-1.222,0.341-1.936,1.61-1.595,2.832
	l0.422,1.512c1.281,4.584,6.659,7.108,12.09,5.747l0.162,0.579c0.341,1.222,1.61,1.936,2.832,1.595
	c1.222-0.341,1.936-1.61,1.595-2.832l-0.162-0.579c5.349-1.652,8.638-6.599,7.356-11.183l-0.846-3.025
	c-1.281-4.584-6.659-7.109-12.09-5.747l-3.112-11.131c2.938-0.684,5.834,0.441,6.425,2.56l0.422,1.512
	C256.293,188.813,257.56,189.528,258.782,189.185z M241.355,193.302l-0.846-3.025c-0.591-2.119,1.3-4.584,4.167-5.522l3.105,11.105
	C244.843,196.546,241.947,195.42,241.355,193.302z M259.877,201.635l0.846,3.025c0.591,2.119-1.3,4.584-4.167,5.52l-3.105-11.105
	C256.388,198.389,259.284,199.516,259.877,201.635z"/>
<path style="fill:#2C9984;" d="M256.36,218.015c1.222-0.341,1.936-1.61,1.595-2.832l-0.162-0.579
	c5.349-1.652,8.638-6.599,7.356-11.183l-0.846-3.025c-1.281-4.584-6.659-7.109-12.09-5.747l-3.112-11.131
	c2.938-0.686,5.834,0.441,6.425,2.56l0.422,1.512c0.341,1.222,1.61,1.936,2.832,1.595c1.222-0.341,1.936-1.61,1.595-2.832
	l-0.422-1.512c-1.281-4.584-6.659-7.109-12.09-5.747l-0.162-0.577c-0.29-1.036-1.245-1.698-2.274-1.672l10.818,41.193
	C256.286,218.028,256.322,218.026,256.36,218.015z M259.877,201.635l0.845,3.025c0.593,2.119-1.3,4.584-4.167,5.52l-3.105-11.105
	C256.388,198.389,259.286,199.516,259.877,201.635z"/>
<path style="fill:#68533E;" d="M338.891,383.524H142.222V212.858h196.668c17.058,0,30.887,13.827,30.887,30.887v108.894
	C369.778,369.695,355.95,383.524,338.891,383.524z"/>
<path style="fill:#57442F;" d="M338.891,212.858h-83.465v170.667h83.465c17.058,0,30.887-13.827,30.887-30.887V243.743
	C369.778,226.685,355.95,212.858,338.891,212.858z"/>
<g>
</g>
<g>
</g>
<g>
</g>
<g>
</g>
<g>
</g>
<g>
</g>
<g>
</g>
<g>
</g>
<g>
</g>
<g>
</g>
<g>
</g>
<g>
</g>
<g>
</g>
<g>
</g>
<g>
</g>
</svg>
