<?xml version="1.0" encoding="iso-8859-1"?>
<!-- Generator: Adobe Illustrator 19.0.0, SVG Export Plug-In . SVG Version: 6.00 Build 0)  -->
<svg version="1.1" id="Layer_1" xmlns="http://www.w3.org/2000/svg" xmlns:xlink="http://www.w3.org/1999/xlink" x="0px" y="0px"
	 viewBox="0 0 512.008 512.008" style="enable-background:new 0 0 512.008 512.008;" xml:space="preserve">
<circle style="fill:#E84F4F;" cx="256.004" cy="256.004" r="256.004"/>
<path style="fill:#D14747;" d="M243.409,511.688L114.465,383.43L400.24,147.545L511.964,258.6
	c-1.403,140.18-115.454,253.393-255.968,253.393c-4.223,0-8.419-0.108-12.591-0.309L243.409,511.688z"/>
<path style="fill:#F5C013;" d="M134.083,135.447h242.679c15.955,0,28.891,12.934,28.891,28.891v163.712
	c0,15.955-12.934,28.891-28.891,28.891H134.083c-15.955,0-28.891-12.934-28.891-28.891V164.337
	C105.193,148.381,118.128,135.447,134.083,135.447z"/>
<path style="fill:#E6E6E6;" d="M135.997,144.395L370.134,123.1l17.076,219.215l-245.369,20.172l-5.847-218.094L135.997,144.395
	L135.997,144.395z"/>
<path style="fill:#FFFFFF;" d="M136.184,146.938l243.204-6.131l8.013,204.056l-245.369,20.169L136.184,146.938z"/>
<path style="fill:#FFD630;" d="M105.193,164.334h282.165c10.063,0,18.295,8.232,18.295,18.295V367.53
	c0,10.063-8.232,18.295-18.295,18.295H123.488c-10.063,0-18.295-8.232-18.295-18.295V164.334z"/>
<path style="fill:#FFC919;" d="M400.819,170.275c2.996,3.262,4.834,7.606,4.834,12.357v184.901c0,10.066-8.232,18.295-18.295,18.295
	H123.492c-5.139,0-9.8-2.147-13.134-5.589l290.465-209.965h-0.004V170.275z"/>
<path style="fill:#F5BE18;" d="M105.193,367.53V182.632h273.252c5.549,0,10.092,4.539,10.092,10.092v164.718
	c0,5.549-4.539,10.092-10.092,10.092H105.193V367.53z"/>
<path style="fill:#FFD630;" d="M105.193,359.593V190.569h265.736c5.865,0,10.663,4.151,10.663,9.225v150.573
	c0,5.075-4.798,9.222-10.663,9.222H105.193V359.593z"/>
<path style="fill:#FFF490;" d="M350.069,237.269h55.259c5.006,0,9.099,4.122,9.099,9.099v32.843c0,4.974-4.122,9.099-9.099,9.099
	h-55.259c-14.009,0-25.517-11.484-25.517-25.517v-0.004c0-14.034,11.48-25.517,25.517-25.517V237.269z"/>
<circle style="fill:#F5BE18;" cx="352.113" cy="263.157" r="15.558"/>
<circle style="fill:#E6E6E6;" cx="352.113" cy="263.157" r="12.717"/>
<g>
</g>
<g>
</g>
<g>
</g>
<g>
</g>
<g>
</g>
<g>
</g>
<g>
</g>
<g>
</g>
<g>
</g>
<g>
</g>
<g>
</g>
<g>
</g>
<g>
</g>
<g>
</g>
<g>
</g>
</svg>
