<?xml version="1.0" encoding="iso-8859-1"?>
<!-- Generator: Adobe Illustrator 19.0.0, SVG Export Plug-In . SVG Version: 6.00 Build 0)  -->
<svg version="1.1" id="Capa_1" xmlns="http://www.w3.org/2000/svg" xmlns:xlink="http://www.w3.org/1999/xlink" x="0px" y="0px"
	 viewBox="0 0 166.942 166.942" style="enable-background:new 0 0 166.942 166.942;" xml:space="preserve">
<g>
	<circle style="fill:#9DE7F9;" cx="83.471" cy="83.471" r="83.471"/>
	<g>
		<ellipse style="fill:#FFFFFF;" cx="83.75" cy="84.554" rx="58.553" ry="47.798"/>
		<circle cx="62.622" cy="97.801" r="4.933"/>
		<circle cx="105.066" cy="97.801" r="4.932"/>
		<path d="M128.822,53.13c-18.075-16.957-43.007-16.489-45.264-16.403c-2.256-0.086-25.833-0.554-43.908,16.403
			c-7.185,6.74-12.887,15.366-14.381,25.248c-1.57,10.383,1.43,21.668,7.599,30.113c1.584,2.167,3.36,4.19,5.271,6.073
			c1.104,1.087,2.252,2.127,3.438,3.124c0.661,0.557,1.334,1.098,2.016,1.627c0.281,0.218,2.008,1.223,2.023,1.51
			c0,0-2.64-47.462,17.005-47.462c19.643,0,15.253,32.979,15.253,32.979h5.685h5.685c0,0-4.39-32.979,15.253-32.979
			c19.645,0,17.387,47.421,17.387,47.421c7.604-5.398,14.24-12.521,17.674-21.301c1.724-4.405,2.772-9.4,3.181-14.119
			c0.284-3.282,0.092-6.597-0.562-9.824C140.399,66.787,135.265,59.174,128.822,53.13z"/>
		<path style="fill:#FF8800;" d="M92.078,107.806c0,1.715-3.733,6.826-8.338,6.826c-4.605,0-8.339-5.111-8.339-6.826
			c0-1.716,3.733-3.106,8.339-3.106C88.345,104.7,92.078,106.09,92.078,107.806z"/>
	</g>
</g>
<g>
</g>
<g>
</g>
<g>
</g>
<g>
</g>
<g>
</g>
<g>
</g>
<g>
</g>
<g>
</g>
<g>
</g>
<g>
</g>
<g>
</g>
<g>
</g>
<g>
</g>
<g>
</g>
<g>
</g>
</svg>
