<?xml version="1.0" encoding="iso-8859-1"?>
<!-- Generator: Adobe Illustrator 19.0.0, SVG Export Plug-In . SVG Version: 6.00 Build 0)  -->
<svg version="1.1" id="Layer_1" xmlns="http://www.w3.org/2000/svg" xmlns:xlink="http://www.w3.org/1999/xlink" x="0px" y="0px"
	 viewBox="0 0 511.078 511.078" style="enable-background:new 0 0 511.078 511.078;" xml:space="preserve">
<g>
	<path style="fill:#999999;" d="M84.386,49.634l62.786,118.991c0,0-80.888,32.724-80.888,96.733V73.228
		C66.283,60.842,74.537,52.296,84.386,49.634z"/>
	<path style="fill:#999999;" d="M444.795,73.228v192.131c0-64.01-94.364-91.119-94.364-91.119l76.262-124.606
		C436.541,52.296,444.795,60.842,444.795,73.228z"/>
</g>
<g>
	<path style="fill:#CCCCCC;" d="M424.946,160.076c-0.477-0.019-1.057-0.042-1.72-0.067c-0.658-0.081-1.4-0.172-2.21-0.271
		c-0.795-0.073-1.66-0.27-2.556-0.449c-0.445-0.093-0.901-0.189-1.368-0.286c-0.462-0.127-0.933-0.257-1.413-0.39
		c-0.476-0.135-0.956-0.257-1.437-0.408c-0.48-0.165-0.964-0.331-1.452-0.5c-0.969-0.31-1.938-0.721-2.892-1.111
		c-0.956-0.366-1.889-0.857-2.8-1.266c-0.906-0.455-1.786-0.91-2.62-1.369c-0.149-0.084-0.29-0.167-0.436-0.25
		c0.099-0.139,0.197-0.273,0.294-0.414c0.639-0.934,1.275-1.914,1.901-2.909c0.596-1.031,1.238-2.017,1.781-3.089
		c0.559-1.054,1.118-2.089,1.589-3.163c0.24-0.527,0.479-1.048,0.715-1.563c0.222-0.522,0.418-1.053,0.619-1.563
		c0.195-0.509,0.389-1.01,0.577-1.499c0.159-0.502,0.316-0.993,0.467-1.47c0.293-0.953,0.585-1.83,0.755-2.685
		c0.188-0.832,0.359-1.595,0.512-2.27c0.097-0.684,0.181-1.28,0.25-1.771c0.13-0.964,0.206-1.515,0.206-1.515
		s-0.32,0.455-0.88,1.252c-0.276,0.39-0.612,0.861-0.997,1.404c-0.427,0.506-0.91,1.079-1.435,1.702
		c-0.495,0.627-1.133,1.242-1.774,1.894c-0.321,0.321-0.65,0.651-0.988,0.989c-0.359,0.317-0.725,0.641-1.098,0.97
		c-0.374,0.325-0.738,0.659-1.127,0.98c-0.4,0.311-0.804,0.626-1.212,0.943c-0.789,0.642-1.663,1.229-2.511,1.814
		c-0.829,0.6-1.751,1.114-2.59,1.652c-0.876,0.51-1.737,0.997-2.578,1.445c-1.698,0.882-3.29,1.638-4.677,2.204
		c-1.377,0.578-2.53,0.99-3.305,1.234c-0.192,0.061-0.364,0.115-0.513,0.161c-0.119,0.022-0.219,0.043-0.301,0.058
		c-0.133,0.016-0.346,0.104-0.321,0.09c-3.966,2.429-5.213,7.615-2.783,11.581c1.608,2.626,4.423,4.049,7.294,4.015
		c0.986,0.173,2.189,0.351,3.555,0.506c1.828,0.221,3.956,0.366,6.215,0.436c1.132,0.025,2.299,0.021,3.474,0.001
		c1.189-0.065,2.366-0.067,3.561-0.199c1.189-0.109,2.36-0.206,3.517-0.4c0.572-0.086,1.14-0.172,1.7-0.256
		c0.559-0.1,1.111-0.227,1.647-0.337c0.533-0.115,1.058-0.227,1.571-0.337c0.508-0.142,1.004-0.28,1.487-0.413
		c0.959-0.276,1.853-0.511,2.661-0.837c0.8-0.298,1.532-0.57,2.181-0.812c0.626-0.293,1.17-0.548,1.619-0.758
		c0.878-0.418,1.38-0.656,1.38-0.656S425.919,160.11,424.946,160.076z"/>
	<path style="fill:#CCCCCC;" d="M86.132,160.076c0.477-0.019,1.057-0.042,1.72-0.067c0.658-0.081,1.4-0.172,2.21-0.271
		c0.795-0.073,1.66-0.27,2.556-0.449c0.445-0.093,0.901-0.189,1.368-0.286c0.462-0.127,0.933-0.257,1.413-0.39
		c0.476-0.135,0.956-0.257,1.437-0.408c0.478-0.165,0.964-0.331,1.452-0.5c0.969-0.31,1.938-0.721,2.892-1.111
		c0.956-0.366,1.889-0.857,2.8-1.266c0.906-0.455,1.786-0.91,2.62-1.369c0.149-0.084,0.29-0.167,0.436-0.25
		c-0.099-0.139-0.197-0.273-0.294-0.414c-0.639-0.934-1.275-1.914-1.901-2.909c-0.596-1.031-1.238-2.017-1.781-3.089
		c-0.559-1.054-1.118-2.089-1.589-3.163c-0.24-0.527-0.48-1.048-0.715-1.563c-0.222-0.522-0.418-1.053-0.619-1.563
		c-0.195-0.509-0.389-1.01-0.577-1.499c-0.159-0.502-0.316-0.993-0.467-1.47c-0.293-0.953-0.585-1.83-0.755-2.685
		c-0.188-0.832-0.36-1.595-0.512-2.27c-0.097-0.684-0.181-1.28-0.25-1.771c-0.13-0.964-0.206-1.515-0.206-1.515
		s0.32,0.455,0.88,1.252c0.276,0.39,0.612,0.861,0.997,1.404c0.427,0.506,0.91,1.079,1.435,1.702
		c0.496,0.627,1.133,1.242,1.774,1.894c0.321,0.321,0.65,0.651,0.988,0.989c0.359,0.317,0.725,0.641,1.098,0.97
		c0.374,0.325,0.738,0.659,1.127,0.98c0.4,0.311,0.804,0.626,1.212,0.943c0.789,0.642,1.663,1.229,2.511,1.814
		c0.829,0.6,1.751,1.114,2.59,1.652c0.876,0.51,1.737,0.997,2.578,1.445c1.698,0.882,3.29,1.638,4.677,2.204
		c1.377,0.578,2.53,0.99,3.305,1.234c0.192,0.061,0.365,0.115,0.513,0.161c0.119,0.022,0.219,0.043,0.301,0.058
		c0.133,0.016,0.346,0.104,0.321,0.09c3.966,2.429,5.213,7.615,2.783,11.581c-1.608,2.626-4.423,4.049-7.294,4.015
		c-0.986,0.173-2.189,0.351-3.555,0.506c-1.828,0.221-3.956,0.366-6.215,0.436c-1.132,0.025-2.299,0.021-3.475,0.001
		c-1.189-0.065-2.366-0.067-3.561-0.199c-1.189-0.109-2.361-0.206-3.517-0.4c-0.572-0.086-1.14-0.172-1.7-0.256
		c-0.559-0.1-1.111-0.227-1.647-0.337c-0.533-0.115-1.058-0.227-1.571-0.337c-0.508-0.142-1.004-0.28-1.487-0.413
		c-0.959-0.276-1.853-0.511-2.661-0.837c-0.8-0.298-1.532-0.57-2.181-0.812c-0.626-0.293-1.17-0.548-1.619-0.758
		c-0.878-0.418-1.38-0.656-1.38-0.656S85.158,160.11,86.132,160.076z"/>
</g>
<path style="fill:#F95428;" d="M293.439,397.174v76.003c0,20.932-16.968,37.901-37.901,37.901s-37.901-16.968-37.901-37.901v-76.003
	H293.439z"/>
<path style="fill:#E54728;" d="M217.638,392.032v5.142v25.806v49.164c2.1-0.326,4.133-1.022,6.03-2.055
	c16.991-9.324,28.891-26.767,30.525-47.109h0.4c1.665,20.737,13.999,38.458,31.524,47.648c2.291,1.202,4.773,1.909,7.322,2.111
	V422.98v-25.806v-5.142H217.638z"/>
<path style="fill:#CC2E19;" d="M262.816,397.174v72.657c0,4.649-3.773,8.422-8.422,8.422c-4.649,0-8.422-3.773-8.422-8.422v-72.657
	c0-1.943,0.651-3.717,1.774-5.143c1.527-1.999,3.942-3.279,6.648-3.279c2.706,0,5.121,1.28,6.648,3.279
	C262.164,393.457,262.816,395.231,262.816,397.174z"/>
<path style="fill:#C12611;" d="M262.816,397.174v51.432c-4.571-7.591-7.479-16.306-8.22-25.626h-0.404
	c-0.741,9.321-3.65,18.035-8.22,25.626v-51.432c0-1.943,0.651-3.717,1.774-5.143h13.296
	C262.164,393.457,262.816,395.231,262.816,397.174z"/>
<path style="fill:#4D4D4D;" d="M391.228,157.822l35.464-108.188c-9.242-2.493-19.888,0.202-26.457,9.781l-48.086,70.153
	c-28.288-16.822-61.315-26.525-96.61-26.525c-20.865,0-40.944,3.391-59.709,9.635c-3.391,1.134-6.738,2.358-10.039,3.672
	c-3.257,1.291-6.468,2.673-9.624,4.144c-5.918,2.729-11.668,5.761-17.238,9.074l-48.086-70.153
	c-6.569-9.579-17.215-12.274-26.457-9.781l35.464,108.188c0,0-53.566,43.527-53.566,107.536c0,36.239,10.107,70.31,27.67,99.361
	c5.581,9.22,11.904,17.923,18.889,26.031c7.659,8.872,16.104,17.036,25.233,24.357c10.388,8.344,21.673,15.598,33.689,21.617
	c12.016,6.008,24.762,10.758,38.08,14.093c4.649,1.168,9.613,0.584,13.824-1.729c18.316-10.051,30.725-29.534,30.725-51.915
	c-22.796,0-41.27-23.639-41.27-35.542s18.473-21.55,41.27-21.55c22.785,0,41.258,9.646,41.258,21.55s-18.473,35.542-41.258,35.542
	c0,22.785,12.858,42.561,31.724,52.454c4.11,2.156,8.894,2.729,13.408,1.651c27.367-6.513,52.432-18.967,73.757-35.935
	c9.242-7.344,17.777-15.542,25.492-24.47c7.03-8.142,13.386-16.89,18.978-26.154c3.492-5.806,6.693-11.814,9.557-18.001
	c1.359-2.92,2.639-5.884,3.852-8.894c1.179-2.931,2.291-5.907,3.324-8.905c6.682-19.36,10.309-40.135,10.309-61.753v-1.808
	C444.795,201.349,391.228,157.822,391.228,157.822z"/>
<path style="fill:#333333;" d="M305.557,359.952c0,14.762-22.908,44.075-51.163,44.075c-28.269,0-51.176-29.313-51.176-44.075
	c0-14.762,22.908-26.724,51.176-26.724C282.65,333.229,305.557,345.191,305.557,359.952z"/>
<path style="fill:#F7B239;" d="M192.719,275.724c17.103,17.103,31.87,30.062,14.767,47.165c-17.103,17.103-44.829,17.103-61.932,0
	c-17.103-17.103-17.103-44.829,0-61.932C162.657,243.854,175.616,258.621,192.719,275.724z"/>
<line style="fill:none;stroke:#333333;stroke-width:15;stroke-linejoin:round;stroke-miterlimit:10;" x1="268.245" y1="7.5" x2="268.223" y2="7.5"/>
<path style="fill:#CCCCCC;" d="M213.841,223.255c-0.375,0.294-0.831,0.652-1.354,1.063c-0.554,0.365-1.178,0.777-1.859,1.226
	c-0.652,0.46-1.44,0.87-2.238,1.314c-0.399,0.217-0.809,0.44-1.227,0.668c-0.435,0.202-0.878,0.409-1.328,0.619
	c-0.45,0.206-0.894,0.423-1.359,0.621c-0.472,0.185-0.949,0.372-1.43,0.56c-0.94,0.392-1.944,0.706-2.923,1.028
	c-0.965,0.34-1.994,0.572-2.952,0.85c-0.985,0.24-1.949,0.464-2.883,0.655c-0.168,0.033-0.328,0.061-0.494,0.092
	c-0.016-0.17-0.027-0.335-0.044-0.506c-0.118-1.126-0.268-2.283-0.436-3.448c-0.214-1.171-0.364-2.338-0.645-3.507
	c-0.257-1.166-0.501-2.316-0.839-3.439c-0.157-0.557-0.313-1.11-0.468-1.654c-0.17-0.541-0.365-1.074-0.541-1.591
	c-0.181-0.514-0.358-1.021-0.532-1.516c-0.204-0.485-0.403-0.96-0.597-1.423c-0.394-0.916-0.74-1.773-1.165-2.535
	c-0.396-0.756-0.759-1.448-1.08-2.061c-0.369-0.584-0.691-1.093-0.956-1.512c-0.524-0.819-0.824-1.287-0.824-1.287
	s0.052,0.554,0.141,1.524c0.042,0.476,0.092,1.053,0.149,1.715c0.003,0.663,0.007,1.41,0.01,2.227
	c0.028,0.798-0.058,1.681-0.125,2.593c-0.036,0.453-0.074,0.917-0.112,1.394c-0.069,0.474-0.138,0.958-0.209,1.451
	c-0.074,0.49-0.135,0.98-0.223,1.477c-0.103,0.496-0.208,0.997-0.312,1.504c-0.185,1.001-0.472,2.014-0.738,3.008
	c-0.243,0.994-0.612,1.982-0.903,2.937c-0.337,0.956-0.677,1.885-1.028,2.772c-0.722,1.772-1.445,3.38-2.135,4.709
	c-0.675,1.333-1.286,2.394-1.718,3.081c-0.108,0.171-0.203,0.323-0.287,0.455c-0.075,0.094-0.139,0.175-0.191,0.239
	c-0.091,0.098-0.197,0.303-0.186,0.276c-1.448,4.42,0.962,9.178,5.382,10.626c2.925,0.958,5.993,0.219,8.156-1.666
	c0.864-0.508,1.896-1.15,3.037-1.918c1.536-1.015,3.251-2.284,5.016-3.693c0.878-0.714,1.765-1.473,2.648-2.25
	c0.864-0.82,1.759-1.583,2.584-2.458c0.836-0.853,1.665-1.686,2.42-2.583c0.38-0.436,0.757-0.869,1.13-1.297
	c0.36-0.438,0.698-0.892,1.037-1.324c0.332-0.432,0.659-0.858,0.978-1.275c0.295-0.436,0.584-0.862,0.865-1.278
	c0.551-0.831,1.08-1.589,1.486-2.362c0.415-0.745,0.797-1.427,1.135-2.031c0.286-0.628,0.537-1.176,0.742-1.627
	c0.399-0.887,0.627-1.394,0.627-1.394S214.604,222.649,213.841,223.255z"/>
<path style="fill:#333333;" d="M430.117,329.469c-22.05,2.738-37.595-0.247-46.031-2.796c5.956-8.823,9.444-19.452,9.444-30.904
	c0-30.563-24.777-55.34-55.34-55.34c-9.31,0-18.077,2.309-25.776,6.374c-17.275-43.487-48.205-77.743-71.754-99.244
	c-19.169-17.496-36.261-29.332-44.829-34.88c-3.391,1.134-6.738,2.358-10.039,3.672c-3.257,1.291-6.468,2.673-9.624,4.144
	l5.379,3.133c0.878,0.511,86.476,51.182,116.861,133.705c-9.627,9.953-15.557,23.495-15.557,38.436
	c0,30.563,24.777,55.34,55.34,55.34c12.485,0,23.991-4.143,33.248-11.126c5.767,2.504,19.854,7.421,41.554,7.421
	c4.458,0,9.231-0.213,14.318-0.685c1.359-2.92,2.639-5.884,3.852-8.894c1.179-2.931,2.291-5.907,3.324-8.905L430.117,329.469z"/>
<g>
	<path style="fill:#CCCCCC;" d="M483.435,423.589c-4.023-2.455-9.853-5.837-17.029-9.59c-3.586-1.881-7.508-3.854-11.705-5.847
		c-4.191-2.007-8.66-4.029-13.33-6.027c-4.668-2.01-9.537-3.955-14.544-5.865c-2.523-0.923-5.066-1.853-7.619-2.787
		c-2.536-0.862-5.081-1.727-7.628-2.593c-5.265-1.718-10.422-3.262-15.623-4.7c-5.18-1.432-10.327-2.685-15.334-3.819
		c-5.01-1.123-9.89-2.071-14.539-2.893c-2.983-0.512-5.856-0.966-8.624-1.368c2.04-0.505,4.126-1.021,6.26-1.549
		c2.329-0.519,4.71-1.049,7.13-1.588c4.858-0.996,9.89-2.037,15.042-2.859c5.141-0.928,10.403-1.595,15.671-2.305
		c2.641-0.289,5.284-0.577,7.915-0.865c2.633-0.312,5.267-0.433,7.878-0.659c5.227-0.451,10.397-0.682,15.379-0.819
		c9.996-0.258,19.356-0.018,27.367,0.52c8.016,0.509,14.678,1.316,19.335,1.942c2.329,0.316,4.156,0.591,5.399,0.794
		c1.245,0.194,1.91,0.299,1.91,0.299s-0.651-0.168-1.871-0.484c-1.22-0.325-3.012-0.778-5.305-1.321
		c-4.585-1.08-11.169-2.542-19.168-3.845c-7.993-1.331-17.401-2.502-27.544-3.233c-5.086-0.359-10.329-0.639-15.671-0.702
		c-2.673-0.033-5.375-0.17-8.08-0.117c-2.71,0.029-5.431,0.06-8.151,0.089c-5.435,0.195-10.889,0.351-16.238,0.782
		c-5.361,0.325-10.618,0.882-15.713,1.417c-2.544,0.31-5.044,0.614-7.493,0.913c-2.442,0.356-4.833,0.704-7.159,1.042
		c-4.647,0.737-9.04,1.476-13.08,2.272c-2.026,0.369-3.958,0.777-5.798,1.168c-1.842,0.378-3.587,0.757-5.223,1.145
		c-3.278,0.737-6.129,1.459-8.485,2.071c-2.082,0.545-6.9,1.486-7.788,1.77c-2.665,0.849-4.85,3.001-5.61,5.907
		c-0.59,2.255-0.21,4.536,0.879,6.4c1.015,1.962,2.716,3.377,4.682,4.071c0.91,0.321,7.797,1.955,9.713,2.577
		c1.919,0.618,4.073,1.367,6.426,2.193c2.341,0.857,4.878,1.794,7.539,2.859c1.341,0.51,2.687,1.096,4.08,1.67
		c1.396,0.568,2.806,1.181,4.23,1.826c2.874,1.248,5.784,2.654,8.745,4.098c1.465,0.749,2.942,1.506,4.425,2.265
		c1.46,0.802,2.925,1.607,4.391,2.412c1.483,0.788,2.891,1.681,4.329,2.529c1.437,0.85,2.865,1.708,4.229,2.628
		c1.37,0.904,2.775,1.791,4.091,2.691c1.377,0.952,2.647,1.86,3.91,2.791c5.073,3.735,9.52,7.622,13.113,11.198
		c1.8,1.787,3.367,3.509,4.733,5.062c1.349,1.568,2.482,2.977,3.389,4.162c0.896,1.191,1.592,2.139,2.039,2.803
		c0.459,0.658,0.704,1.01,0.704,1.01s-0.188-0.384-0.541-1.105c-0.342-0.728-0.885-1.773-1.595-3.101
		c-0.722-1.319-1.635-2.905-2.747-4.692c-1.13-1.772-2.444-3.759-3.985-5.852c-3.078-4.189-7.004-8.867-11.615-13.507
		c-1.154-1.164-2.373-2.353-3.554-3.474c-1.245-1.17-2.514-2.276-3.795-3.437c-1.267-1.171-2.595-2.282-3.941-3.387
		c-1.345-1.104-2.67-2.261-4.067-3.307c-1.387-1.069-2.775-2.137-4.157-3.202c-1.413-1.024-2.82-2.043-4.216-3.055
		c-2.675-1.862-5.326-3.686-7.955-5.365c3.911,0.112,8.147,0.337,12.629,0.66c4.509,0.349,9.266,0.796,14.179,1.401
		c4.911,0.617,9.986,1.335,15.122,2.227c5.116,0.886,10.391,1.919,15.486,3.044c2.619,0.612,5.236,1.225,7.845,1.835
		c2.554,0.66,5.098,1.318,7.623,1.971c5.044,1.378,10.017,2.819,14.783,4.338c4.772,1.509,9.359,3.066,13.679,4.636
		c4.326,1.556,8.384,3.122,12.108,4.631c7.451,3.011,13.558,5.795,17.789,7.837c4.233,2.042,6.59,3.34,6.59,3.34
		S487.46,426.041,483.435,423.589z"/>
	<path style="fill:#CCCCCC;" d="M27.642,423.589c4.023-2.455,9.853-5.837,17.029-9.59c3.586-1.881,7.508-3.854,11.705-5.847
		c4.191-2.007,8.66-4.029,13.33-6.027c4.668-2.01,9.537-3.955,14.544-5.865c2.523-0.923,5.066-1.853,7.619-2.787
		c2.536-0.862,5.081-1.727,7.628-2.593c5.265-1.718,10.422-3.262,15.623-4.7c5.18-1.432,10.327-2.685,15.334-3.819
		c5.01-1.123,9.89-2.071,14.539-2.893c2.983-0.512,5.856-0.966,8.624-1.368c-2.04-0.505-4.126-1.021-6.259-1.549
		c-2.329-0.519-4.71-1.049-7.13-1.588c-4.858-0.996-9.89-2.037-15.042-2.859c-5.141-0.928-10.403-1.595-15.671-2.305
		c-2.641-0.289-5.284-0.577-7.915-0.865c-2.633-0.312-5.267-0.433-7.878-0.659c-5.227-0.451-10.397-0.682-15.379-0.819
		c-9.996-0.258-19.356-0.018-27.367,0.52c-8.016,0.509-14.678,1.316-19.335,1.942c-2.329,0.316-4.156,0.591-5.399,0.794
		c-1.245,0.194-1.91,0.299-1.91,0.299s0.651-0.168,1.871-0.484c1.22-0.325,3.012-0.778,5.305-1.321
		c4.585-1.08,11.169-2.542,19.168-3.845c7.993-1.331,17.401-2.502,27.544-3.233c5.086-0.359,10.329-0.639,15.671-0.702
		c2.673-0.033,5.375-0.17,8.08-0.117c2.71,0.029,5.431,0.06,8.151,0.089c5.435,0.195,10.89,0.351,16.238,0.782
		c5.361,0.325,10.618,0.882,15.713,1.417c2.544,0.31,5.044,0.614,7.493,0.913c2.442,0.356,4.833,0.704,7.159,1.042
		c4.647,0.737,9.04,1.476,13.08,2.272c2.026,0.369,3.958,0.777,5.798,1.168c1.842,0.378,3.587,0.757,5.223,1.145
		c3.278,0.737,6.129,1.459,8.485,2.071c2.082,0.545,6.9,1.486,7.788,1.77c2.665,0.849,4.85,3.001,5.61,5.907
		c0.59,2.255,0.21,4.536-0.879,6.4c-1.015,1.962-2.716,3.377-4.682,4.071c-0.91,0.321-7.797,1.955-9.713,2.577
		c-1.919,0.618-4.073,1.367-6.426,2.193c-2.341,0.857-4.878,1.794-7.539,2.859c-1.341,0.51-2.687,1.096-4.08,1.67
		c-1.396,0.568-2.806,1.181-4.23,1.826c-2.874,1.248-5.784,2.654-8.745,4.098c-1.465,0.749-2.942,1.506-4.425,2.265
		c-1.46,0.802-2.925,1.607-4.391,2.412c-1.483,0.788-2.891,1.681-4.329,2.529c-1.437,0.85-2.865,1.708-4.229,2.628
		c-1.37,0.904-2.775,1.791-4.091,2.691c-1.377,0.952-2.647,1.86-3.91,2.791c-5.072,3.735-9.519,7.622-13.113,11.198
		c-1.8,1.787-3.367,3.509-4.733,5.062c-1.349,1.568-2.482,2.977-3.389,4.162c-0.896,1.191-1.592,2.139-2.039,2.803
		c-0.459,0.658-0.704,1.01-0.704,1.01s0.188-0.384,0.541-1.105c0.343-0.728,0.885-1.773,1.595-3.101
		c0.722-1.319,1.635-2.905,2.747-4.692c1.13-1.772,2.444-3.759,3.985-5.852c3.078-4.189,7.004-8.867,11.615-13.507
		c1.154-1.164,2.373-2.353,3.554-3.474c1.245-1.17,2.514-2.276,3.795-3.437c1.267-1.171,2.595-2.282,3.941-3.387
		c1.345-1.104,2.67-2.261,4.067-3.307c1.387-1.069,2.775-2.137,4.157-3.202c1.413-1.024,2.82-2.043,4.216-3.055
		c2.675-1.862,5.326-3.686,7.955-5.365c-3.911,0.112-8.147,0.337-12.629,0.66c-4.509,0.349-9.266,0.796-14.179,1.401
		c-4.911,0.617-9.986,1.335-15.122,2.227c-5.116,0.886-10.391,1.919-15.486,3.044c-2.619,0.612-5.236,1.225-7.845,1.835
		c-2.554,0.66-5.098,1.318-7.623,1.971c-5.044,1.378-10.017,2.819-14.783,4.338c-4.772,1.509-9.359,3.066-13.679,4.636
		c-4.326,1.556-8.384,3.122-12.108,4.631c-7.451,3.011-13.558,5.795-17.789,7.837c-4.233,2.042-6.59,3.34-6.59,3.34
		S23.618,426.041,27.642,423.589z"/>
</g>
<circle style="fill:#333333;" cx="177.497" cy="303.383" r="14.599"/>
<g>
	<circle style="fill:#FFFFFF;" cx="184.235" cy="293.837" r="7.617"/>
	<ellipse style="fill:#FFFFFF;" cx="279.846" cy="355.601" rx="11.388" ry="7.617"/>
</g>
<g>
</g>
<g>
</g>
<g>
</g>
<g>
</g>
<g>
</g>
<g>
</g>
<g>
</g>
<g>
</g>
<g>
</g>
<g>
</g>
<g>
</g>
<g>
</g>
<g>
</g>
<g>
</g>
<g>
</g>
</svg>
