<?xml version="1.0" encoding="iso-8859-1"?>
<!-- Generator: Adobe Illustrator 19.0.0, SVG Export Plug-In . SVG Version: 6.00 Build 0)  -->
<svg version="1.1" id="Layer_1" xmlns="http://www.w3.org/2000/svg" xmlns:xlink="http://www.w3.org/1999/xlink" x="0px" y="0px"
	 viewBox="0 0 497.493 497.493" style="enable-background:new 0 0 497.493 497.493;" xml:space="preserve">
<g id="XMLID_1317_">
	<g id="XMLID_1081_">
		<path style="fill:#EDEDED;" d="M380.991,93.054l-54.444-46.666V34.722c0-15.034,12.188-27.222,27.222-27.222l0,0
			c15.034,0,27.222,12.188,27.222,27.222L380.991,93.054L380.991,93.054z"/>
	</g>
	<g id="XMLID_1086_">
		<path style="fill:#EDEDED;" d="M116.55,93.054l54.444-46.666V34.722c0-15.034-12.188-27.222-27.222-27.222l0,0
			c-15.034,0-27.222,12.188-27.222,27.222V93.054z"/>
	</g>
	<g id="XMLID_1222_">
		<path style="fill:#FFFFFF;" d="M404.236,497.492H93.217V174.453c0-83.615,67.783-151.398,151.398-151.398h8.223
			c83.615,0,151.398,67.783,151.398,151.398L404.236,497.492L404.236,497.492z"/>
	</g>
	<g id="XMLID_1078_">
		<rect x="170.994" y="131.942" style="fill:#EDEDED;" width="46.666" height="31.111"/>
	</g>
	<g id="XMLID_1082_">
		<rect x="279.882" y="131.942" style="fill:#EDEDED;" width="46.666" height="31.111"/>
	</g>
	<g id="XMLID_1244_">
		<path style="fill:#EDEDED;" d="M459.328,497.492H349.832v-15.251c0-30.237,24.512-54.748,54.748-54.748l0,0
			c30.237,0,54.748,24.512,54.748,54.748V497.492z"/>
	</g>
	<g id="XMLID_1246_">
		<path style="fill:#EDEDED;" d="M147.661,497.492H38.165v-15.251c0-30.237,24.512-54.748,54.748-54.748l0,0
			c30.237,0,54.748,24.512,54.748,54.748L147.661,497.492L147.661,497.492z"/>
	</g>
	<g id="XMLID_1243_">
		<circle style="fill:#EDEDED;" cx="248.77" cy="310.829" r="77.777"/>
	</g>
	<g id="XMLID_1069_">
		<path style="fill:#EDEDED;" d="M170.994,497.492c0-42.955,34.822-77.777,77.777-77.777s77.777,34.822,77.777,77.777"/>
	</g>
	<polygon style="fill:#1D1D1B;" points="272.103,240.552 272.103,225.552 225.437,225.552 225.437,240.552 241.27,240.552 
		241.27,299.944 227.912,313.303 238.518,323.909 248.77,313.658 259.023,323.91 269.629,313.303 256.27,299.944 256.27,240.552 	
		"/>
	<g>
		<polygon style="fill:#1D1D1B;" points="170.994,147.22 194.327,147.22 194.327,162.775 209.882,162.775 209.882,147.22 
			217.66,147.22 217.66,132.22 170.994,132.22 		"/>
		<polygon style="fill:#1D1D1B;" points="326.547,132.22 279.882,132.22 279.882,147.22 287.659,147.22 287.659,162.775 
			303.214,162.775 303.214,147.22 326.547,147.22 		"/>
	</g>
	<g id="XMLID_789_">
		<rect x="241.27" y="178.608" style="fill:#1D1D1B;" width="15" height="23.333"/>
	</g>
	<g id="XMLID_795_">
		<rect x="241.27" y="427.493" style="fill:#1D1D1B;" width="15" height="38.889"/>
	</g>
	<g id="XMLID_794_">
		<rect x="264.603" y="427.493" style="fill:#1D1D1B;" width="15" height="15.556"/>
	</g>
	<g id="XMLID_793_">
		<rect x="217.937" y="427.493" style="fill:#1D1D1B;" width="15" height="15.556"/>
	</g>
	<g id="XMLID_790_">
		<rect x="241.27" y="38.61" style="fill:#1D1D1B;" width="15" height="38.889"/>
	</g>
	<g id="XMLID_791_">
		<rect x="241.27" y="85.276" style="fill:#1D1D1B;" width="15" height="15.556"/>
	</g>
	<g id="XMLID_792_">
		<rect x="54.607" y="481.938" style="fill:#1D1D1B;" width="15" height="15.555"/>
	</g>
	<g id="XMLID_797_">
		<rect x="85.717" y="481.938" style="fill:#1D1D1B;" width="15" height="15.555"/>
	</g>
	<g id="XMLID_798_">
		<rect x="116.828" y="481.938" style="fill:#1D1D1B;" width="15" height="15.555"/>
	</g>
	<g id="XMLID_805_">
		<rect x="365.665" y="481.938" style="fill:#1D1D1B;" width="15" height="15.555"/>
	</g>
	<g id="XMLID_804_">
		<rect x="396.776" y="481.938" style="fill:#1D1D1B;" width="15" height="15.555"/>
	</g>
	<g id="XMLID_803_">
		<rect x="427.886" y="481.938" style="fill:#1D1D1B;" width="15" height="15.555"/>
	</g>
	<g id="XMLID_802_">
		<rect x="451.219" y="481.938" style="fill:#1D1D1B;" width="15" height="15.555"/>
	</g>
	<path style="fill:#1D1D1B;" d="M411.82,420.469l-0.128-245.858c-0.016-30.212-8.706-58.482-23.762-82.564V34.722
		C387.929,15.576,372.353,0,353.208,0c-17.89,0-32.659,13.601-34.52,31.005c-21.228-9.899-44.974-15.45-70.021-15.45
		c-24.761,0-48.677,5.36-70.367,15.504C176.463,13.629,161.681,0,143.772,0c-19.146,0-34.722,15.576-34.722,34.722V92.42
		c-15.264,24.581-23.418,52.836-23.409,82.321l0.075,245.723c-30.629,3.716-54.443,29.858-54.443,61.474v15.555h15v-15.555
		c0-25.885,21.059-46.944,46.943-46.944s46.944,21.06,46.944,46.944v15.555h15v-15.555c0-31.616-23.814-57.758-54.444-61.474
		l-0.075-245.727c-0.012-38.473,15.356-74.655,43.272-101.883c27.968-27.276,65.17-42.299,104.753-42.299
		c81.58,0,147.984,64.627,148.025,144.064l0.128,245.839c-30.651,3.696-54.488,29.848-54.488,61.48v15.555h15v-15.555
		c0-25.885,21.059-46.944,46.944-46.944s46.943,21.06,46.943,46.944h15C466.219,450.336,442.428,424.205,411.82,420.469z
		 M133.441,62.115c-3.293,3.211-6.418,6.543-9.391,9.972V34.722c0-10.875,8.847-19.722,19.722-19.722
		c10.874,0,19.722,8.847,19.722,19.722v4.221C152.71,45.417,142.622,53.161,133.441,62.115z M333.486,38.846v-4.124
		c0-10.875,8.847-19.722,19.722-19.722s19.722,8.847,19.722,19.722v37.095C361.684,58.893,348.37,47.736,333.486,38.846z"/>
</g>
<g>
</g>
<g>
</g>
<g>
</g>
<g>
</g>
<g>
</g>
<g>
</g>
<g>
</g>
<g>
</g>
<g>
</g>
<g>
</g>
<g>
</g>
<g>
</g>
<g>
</g>
<g>
</g>
<g>
</g>
</svg>
