<?xml version="1.0" encoding="iso-8859-1"?>
<!-- Generator: Adobe Illustrator 19.0.0, SVG Export Plug-In . SVG Version: 6.00 Build 0)  -->
<svg version="1.1" id="Layer_1" xmlns="http://www.w3.org/2000/svg" xmlns:xlink="http://www.w3.org/1999/xlink" x="0px" y="0px"
	 viewBox="0 0 512 512" style="enable-background:new 0 0 512 512;" xml:space="preserve">
<path style="fill:#B29A7E;" d="M66.694,198.437c-2.778-0.407-5.62-0.619-8.512-0.619C26.049,197.818,0,223.867,0,256
	s26.049,58.182,58.182,58.182c2.89,0,5.732-0.211,8.51-0.617"/>
<path style="fill:#A58868;" d="M445.305,313.564c2.779,0.407,5.622,0.618,8.513,0.618C485.951,314.182,512,288.133,512,256
	s-26.049-58.182-58.182-58.182c-2.891,0-5.733,0.212-8.512,0.618"/>
<circle style="fill:#EBE4DD;" cx="256" cy="256" r="197.818"/>
<path style="fill:#D8CCBC;" d="M256,58.182v395.636c109.253,0,197.818-88.566,197.818-197.818
	C453.818,146.749,365.253,58.182,256,58.182z"/>
<path style="fill:#A58868;" d="M389.818,307.921h-34.909c0,22.457-18.27,40.727-40.727,40.727c-22.457,0-40.727-18.27-40.727-40.727
	h-34.909c0,22.457-18.27,40.727-40.727,40.727s-40.727-18.27-40.727-40.727h-34.909c0,39.557,30.529,72.097,69.26,75.348
	c17.946,15.517,40.581,24.003,64.559,24.003c23.964,0,46.609-8.49,64.556-24.003C359.288,380.02,389.818,347.479,389.818,307.921z
	 M240.33,370.444c5.866-4.002,11.142-8.804,15.67-14.252c4.528,5.448,9.804,10.25,15.668,14.251
	c-5.062,1.268-10.314,1.921-15.668,1.921C250.645,372.364,245.391,371.711,240.33,370.444z"/>
<path style="fill:#947859;" d="M354.909,307.921c0,22.457-18.27,40.727-40.727,40.727c-22.457,0-40.727-18.27-40.727-40.727H256
	v48.27c4.528,5.448,9.804,10.25,15.668,14.251c-5.062,1.268-10.314,1.921-15.668,1.921v34.909c23.964,0,46.609-8.49,64.556-24.003
	c38.732-3.249,69.262-35.79,69.262-75.348H354.909z"/>
<path style="fill:#58575D;" d="M145.455,278.831h-0.002c-12.831,0-23.27-10.44-23.27-23.273
	c0.005-12.835,10.445-23.273,23.273-23.273c12.833,0,23.273,10.44,23.273,23.273S158.287,278.831,145.455,278.831z"/>
<path style="fill:#454449;" d="M366.545,278.831h-0.002c-12.831,0-23.27-10.44-23.27-23.273
	c0.005-12.835,10.445-23.273,23.273-23.273c12.833,0,23.273,10.44,23.273,23.273S379.378,278.831,366.545,278.831z"/>
<path style="fill:#BFA993;" d="M139.636,174.545c44.986,0,81.455,36.468,81.455,81.455c0,0,0,22.831,0,34.467
	c0,23.273,34.909,23.273,34.909,23.273s34.909,0,34.909-23.273c0-11.636,0-34.467,0-34.467c0-44.986,36.468-81.455,81.455-81.455
	s81.455,36.468,81.455,81.455c0-109.251-88.566-197.818-197.818-197.818C146.749,58.182,58.182,146.749,58.182,256
	C58.182,211.014,94.65,174.545,139.636,174.545z"/>
<path style="fill:#B29A7E;" d="M256,58.182V313.74c0,0,34.909,0,34.909-23.273c0-11.636,0-34.467,0-34.467
	c0-44.986,36.468-81.455,81.455-81.455s81.455,36.468,81.455,81.455C453.818,146.749,365.253,58.182,256,58.182z"/>
<path style="fill:#58575D;" d="M293.236,296.727c-6.116,18.56-22.505,39.02-37.236,39.333c-14.732-0.313-31.12-20.773-37.236-39.333
	c-2.825-9.481,4.478-17.33,16.291-17.455c13.964,0,27.927,0,41.891,0C288.76,279.397,296.062,287.245,293.236,296.727z"/>
<path style="fill:#454449;" d="M276.945,279.273c-6.982,0-13.964,0-20.945,0v56.788c14.732-0.313,31.12-20.773,37.236-39.333
	C296.062,287.245,288.76,279.397,276.945,279.273z"/>
<g>
</g>
<g>
</g>
<g>
</g>
<g>
</g>
<g>
</g>
<g>
</g>
<g>
</g>
<g>
</g>
<g>
</g>
<g>
</g>
<g>
</g>
<g>
</g>
<g>
</g>
<g>
</g>
<g>
</g>
</svg>
