<?xml version="1.0" encoding="iso-8859-1"?>
<!-- Generator: Adobe Illustrator 19.0.0, SVG Export Plug-In . SVG Version: 6.00 Build 0)  -->
<svg version="1.1" id="Layer_1" xmlns="http://www.w3.org/2000/svg" xmlns:xlink="http://www.w3.org/1999/xlink" x="0px" y="0px"
	 viewBox="0 0 512 512" style="enable-background:new 0 0 512 512;" xml:space="preserve">
<circle style="fill:#F1543F;" cx="256" cy="256" r="256"/>
<path style="fill:#D83E20;" d="M508.497,298.324L373.226,163.052l-103.291,104.01L145.67,402.101l109.894,109.894
	c0.147,0,0.291,0.005,0.436,0.005C382.966,512,488.324,419.566,508.497,298.324z"/>
<polygon style="fill:#F4E3C3;" points="299.386,89.212 145.67,89.212 145.67,402.101 373.226,402.101 373.226,163.052 "/>
<polygon style="fill:#FED8B2;" points="373.226,163.052 299.386,89.212 254.85,89.212 254.85,402.101 373.226,402.101 "/>
<polygon style="fill:#FFD15D;" points="299.386,163.052 373.226,163.052 299.386,89.212 "/>
<g>
	<rect x="211.178" y="188.768" style="fill:#F9B54C;" width="128.431" height="6.896"/>
	<rect x="168.943" y="188.768" style="fill:#F9B54C;" width="28.444" height="6.896"/>
	<rect x="211.178" y="217.212" style="fill:#F9B54C;" width="128.431" height="6.896"/>
	<rect x="168.943" y="217.212" style="fill:#F9B54C;" width="28.444" height="6.896"/>
	<rect x="211.178" y="245.657" style="fill:#F9B54C;" width="128.431" height="6.896"/>
	<rect x="168.943" y="245.657" style="fill:#F9B54C;" width="28.444" height="6.896"/>
	<rect x="211.178" y="274.101" style="fill:#F9B54C;" width="128.431" height="6.896"/>
	<rect x="168.943" y="274.101" style="fill:#F9B54C;" width="28.444" height="6.896"/>
	<rect x="237.899" y="343.488" style="fill:#F9B54C;" width="56.889" height="6.896"/>
</g>
<g>
	<rect x="254.845" y="188.768" style="fill:#F4A200;" width="84.764" height="6.896"/>
	<rect x="254.845" y="217.212" style="fill:#F4A200;" width="84.764" height="6.896"/>
	<rect x="254.845" y="245.657" style="fill:#F4A200;" width="84.764" height="6.896"/>
	<rect x="254.845" y="274.101" style="fill:#F4A200;" width="84.764" height="6.896"/>
	<rect x="254.845" y="343.488" style="fill:#F4A200;" width="39.943" height="6.896"/>
	<path style="fill:#F4A200;" d="M340.34,334.932c1.5,0,2.717-1.217,2.717-2.717v-1.857c0-5.627-5.32-10.214-11.936-10.393v-0.71
		c0-1.5-1.217-2.717-2.717-2.717c-1.5,0-2.717,1.217-2.717,2.717v0.71c-6.616,0.179-11.936,4.765-11.936,10.393v3.713
		c0,5.627,5.32,10.214,11.936,10.392v13.665c-3.562-0.155-6.501-2.36-6.501-4.96v-1.857c0-1.5-1.217-2.717-2.717-2.717
		c-1.5,0-2.717,1.217-2.717,2.717v1.857c0,5.627,5.32,10.214,11.936,10.392v0.71c0,1.5,1.217,2.717,2.717,2.717
		c1.5,0,2.717-1.217,2.717-2.717v-0.71c6.616-0.179,11.936-4.765,11.936-10.392v-3.713c0-5.627-5.32-10.214-11.936-10.393v-13.665
		c3.562,0.155,6.501,2.36,6.501,4.96v1.857C337.624,333.715,338.839,334.932,340.34,334.932z M319.185,334.072v-3.713
		c0-2.6,2.939-4.806,6.501-4.96v13.634C322.124,338.877,319.185,336.672,319.185,334.072z M337.624,349.456v3.713
		c0,2.6-2.939,4.805-6.501,4.96v-13.634C334.684,344.65,337.624,346.857,337.624,349.456z"/>
</g>
<g>
</g>
<g>
</g>
<g>
</g>
<g>
</g>
<g>
</g>
<g>
</g>
<g>
</g>
<g>
</g>
<g>
</g>
<g>
</g>
<g>
</g>
<g>
</g>
<g>
</g>
<g>
</g>
<g>
</g>
</svg>
