<?xml version="1.0" encoding="iso-8859-1"?>
<!-- Generator: Adobe Illustrator 19.0.0, SVG Export Plug-In . SVG Version: 6.00 Build 0)  -->
<svg version="1.1" id="Layer_1" xmlns="http://www.w3.org/2000/svg" xmlns:xlink="http://www.w3.org/1999/xlink" x="0px" y="0px"
	 viewBox="0 0 512 512" style="enable-background:new 0 0 512 512;" xml:space="preserve">
<circle style="fill:#324A5E;" cx="256" cy="256" r="256"/>
<path style="fill:#2B3B4E;" d="M511.276,275.356L398.222,162.302c0,0-110.17,75.938-161.089,111.033l-29.403-29.403L87.057,326.249
	l185.222,185.222C399.665,503.474,501.782,402.332,511.276,275.356z"/>
<polygon style="fill:#FFFFFF;" points="349.698,113.778 208.593,113.778 208.593,398.222 398.222,398.222 398.222,162.302 "/>
<polygon style="fill:#E6F3FF;" points="398.222,162.302 349.698,113.778 297.95,113.778 297.95,398.222 398.222,398.222 "/>
<polygon style="fill:#CFDBE6;" points="349.698,162.304 398.222,162.302 349.698,113.778 "/>
<rect x="87.057" y="214.195" style="fill:#2C9984;" width="224.108" height="112.054"/>
<rect x="199.111" y="214.195" style="fill:#217F6D;" width="112.054" height="112.054"/>
<rect x="95.211" y="221.332" style="fill:#90DFAA;" width="207.817" height="97.792"/>
<rect x="199.111" y="221.332" style="fill:#7DC993;" width="103.9" height="97.794"/>
<ellipse style="fill:#2C9984;" cx="199.111" cy="270.222" rx="22.411" ry="33.616"/>
<path style="fill:#217F6D;" d="M221.522,270.222c0-18.565-10.033-33.616-22.411-33.616v67.232
	C211.489,303.838,221.522,288.787,221.522,270.222z"/>
<g>
</g>
<g>
</g>
<g>
</g>
<g>
</g>
<g>
</g>
<g>
</g>
<g>
</g>
<g>
</g>
<g>
</g>
<g>
</g>
<g>
</g>
<g>
</g>
<g>
</g>
<g>
</g>
<g>
</g>
</svg>
