<?xml version="1.0" encoding="iso-8859-1"?>
<!-- Generator: Adobe Illustrator 19.0.0, SVG Export Plug-In . SVG Version: 6.00 Build 0)  -->
<svg version="1.1" id="Layer_1" xmlns="http://www.w3.org/2000/svg" xmlns:xlink="http://www.w3.org/1999/xlink" x="0px" y="0px"
	 viewBox="0 0 512 512" style="enable-background:new 0 0 512 512;" xml:space="preserve">
<path style="fill:#FFDA79;" d="M326.306,511.99H18.731C8.386,511.99,0,503.603,0,493.259V18.741C0,8.396,8.386,0.01,18.731,0.01
	h474.518c10.345,0,18.731,8.386,18.731,18.731v307.575c0,4.967-1.973,9.731-5.487,13.245L339.551,506.504
	C336.039,510.016,331.275,511.99,326.306,511.99z"/>
<g>
	<path style="fill:#FFD155;" d="M493.249,0.01H255.99v511.98h70.316c4.969,0,9.733-1.973,13.245-5.486l166.942-166.943
		c3.513-3.513,5.487-8.277,5.487-13.245V18.741C511.98,8.396,503.594,0.01,493.249,0.01z"/>
	<path style="fill:#FFD155;" d="M393.959,157.045H118.021c-10.344,0-18.731-8.386-18.731-18.731
		c0-10.344,8.386-18.731,18.731-18.731H393.96c10.344,0,18.731,8.386,18.731,18.731
		C412.691,148.659,404.304,157.045,393.959,157.045z"/>
	<path style="fill:#FFD155;" d="M393.959,256.578H118.021c-10.344,0-18.731-8.386-18.731-18.731
		c0-10.344,8.386-18.731,18.731-18.731H393.96c10.344,0,18.731,8.386,18.731,18.731
		C412.691,248.192,404.304,256.578,393.959,256.578z"/>
</g>
<g>
	<path style="fill:#FFC72D;" d="M326.304,511.99c-10.312,0-18.727-8.37-18.727-18.731V326.316c0-10.345,8.386-18.731,18.731-18.731
		h166.942c16.621,0,25.037,20.183,13.244,31.976L339.551,506.504C335.969,510.087,331.177,511.99,326.304,511.99z"/>
	<path style="fill:#FFC72D;" d="M393.959,119.583H255.99v37.462h137.969c10.345,0,18.731-8.386,18.731-18.731
		C412.69,127.97,404.304,119.583,393.959,119.583z"/>
	<path style="fill:#FFC72D;" d="M393.959,219.116H255.99v37.462h137.969c10.345,0,18.731-8.386,18.731-18.731
		C412.69,227.503,404.304,219.116,393.959,219.116z"/>
</g>
<g>
</g>
<g>
</g>
<g>
</g>
<g>
</g>
<g>
</g>
<g>
</g>
<g>
</g>
<g>
</g>
<g>
</g>
<g>
</g>
<g>
</g>
<g>
</g>
<g>
</g>
<g>
</g>
<g>
</g>
</svg>
