<?xml version="1.0" encoding="iso-8859-1"?>
<!-- Generator: Adobe Illustrator 19.0.0, SVG Export Plug-In . SVG Version: 6.00 Build 0)  -->
<svg version="1.1" id="Layer_1" xmlns="http://www.w3.org/2000/svg" xmlns:xlink="http://www.w3.org/1999/xlink" x="0px" y="0px"
	 viewBox="0 0 460 460" style="enable-background:new 0 0 460 460;" xml:space="preserve">
<g>
	<path style="fill:#FEE187;" d="M230,0C102.974,0,0,102.975,0,230c0,125.286,100.173,227.175,224.795,229.942L456.74,191.191
		C438.295,82.646,343.799,0,230,0z"/>
	<path style="fill:#FFC61B;" d="M250.468,172.408L130.97,52.909l-19.56,65.699l39.538,40.86l-19.978,206.64l93.825,93.826
		C226.526,459.973,228.26,460,230,460c127.025,0,230-102.975,230-230c0-13.228-1.132-26.189-3.276-38.807l-55.345-55.346
		L250.468,172.408z"/>
	<path style="fill:#273B7A;" d="M303.18,93.889H130.97V52.91l-93.79,93.789l316.905,35.57v87.948L252.2,313.299l41.408,52.81
		l9.572,0.001c75.05,0,136.11-61.061,136.11-136.11S378.23,93.889,303.18,93.889z"/>
	<path style="fill:#121149;" d="M303.18,146.7l-266-0.001l93.79,93.791l10-30.98l154.638-10h7.572c16.81,0,30.49,13.681,30.49,30.49
		s-13.68,30.49-30.49,30.49H254.2v52.81h50.98c46.01,0,81.3-37.29,81.3-83.3S349.19,146.7,303.18,146.7z"/>
	<polygon style="fill:#FEE187;" points="295.608,199.509 295.608,366.109 200.602,366.109 213.283,207.749 229.768,199.509 	"/>
	<polygon style="fill:#FFFFFF;" points="213.283,207.749 213.283,366.109 130.97,366.109 130.97,199.509 196.81,199.509 	"/>
	<rect x="196.81" y="199.509" style="fill:#FFC61B;" width="32.959" height="49.438"/>
</g>
<g>
</g>
<g>
</g>
<g>
</g>
<g>
</g>
<g>
</g>
<g>
</g>
<g>
</g>
<g>
</g>
<g>
</g>
<g>
</g>
<g>
</g>
<g>
</g>
<g>
</g>
<g>
</g>
<g>
</g>
</svg>
