<?xml version="1.0" encoding="iso-8859-1"?>
<!-- Generator: Adobe Illustrator 19.0.0, SVG Export Plug-In . SVG Version: 6.00 Build 0)  -->
<svg version="1.1" id="Layer_1" xmlns="http://www.w3.org/2000/svg" xmlns:xlink="http://www.w3.org/1999/xlink" x="0px" y="0px"
	 viewBox="0 0 128.5 128.5" style="enable-background:new 0 0 128.5 128.5;" xml:space="preserve">
<g id="_x31_4">
	<g>
		<circle style="fill:#EF8D6F;" cx="64.25" cy="64.25" r="64.25"/>
	</g>
	<g>
		<path style="fill:#F2F2F2;" d="M87.805,28.975h0.618c7.083,0,12.878,5.795,12.878,12.879v48.345
			c0,7.083-5.796,12.879-12.878,12.879h-0.618V47.287c2.704,0,4.896-2.192,4.896-4.896c0-2.703-2.191-4.895-4.896-4.895
			C87.805,37.496,87.805,28.975,87.805,28.975z M40.696,28.975h47.109v8.521h-0.001c-2.703,0-4.896,2.192-4.896,4.895
			c0,2.704,2.193,4.896,4.896,4.896h0.001v55.791H40.696V47.287c2.703,0,4.896-2.192,4.896-4.896c0-2.703-2.192-4.895-4.896-4.895
			V28.975z M40.079,28.975h0.617v8.521c-2.704,0-4.896,2.192-4.896,4.895c0,2.704,2.192,4.896,4.896,4.896v55.791h-0.617
			c-7.084,0-12.88-5.797-12.88-12.879V41.854C27.199,34.77,32.995,28.975,40.079,28.975z"/>
		<path style="fill:#AFAFAF;" d="M40.696,25.422L40.696,25.422c1.046,0,1.902,0.856,1.902,1.902v13.165
			c0,1.046-0.856,1.902-1.902,1.902h-0.001c-1.047,0-1.902-0.856-1.902-1.902V27.324C38.794,26.278,39.65,25.422,40.696,25.422z"/>
		<path style="fill:#AFAFAF;" d="M87.805,25.422L87.805,25.422c1.047,0,1.902,0.856,1.902,1.902v13.165
			c0,1.046-0.855,1.902-1.902,1.902h-0.001c-1.047,0-1.903-0.856-1.903-1.902V27.324C85.902,26.278,86.758,25.422,87.805,25.422z"/>
		<rect x="27.199" y="50.675" style="fill:#FABB18;" width="74.102" height="3.107"/>
		<rect x="53.236" y="59.304" style="fill:#EFCB6C;" width="9.584" height="8.453"/>
		<rect x="38.199" y="58.954" style="fill:#C9675B;" width="9.584" height="8.453"/>
		<rect x="68.727" y="59.304" style="fill:#EFCB6C;" width="9.584" height="8.453"/>
		<rect x="83.088" y="59.304" style="fill:#EFCB6C;" width="9.584" height="8.453"/>
		<rect x="53.586" y="72.996" style="fill:#EFCB6C;" width="9.584" height="8.453"/>
		<rect x="69.077" y="72.996" style="fill:#EFCB6C;" width="9.584" height="8.453"/>
		<rect x="83.088" y="73.346" style="fill:#EFCB6C;" width="9.584" height="8.453"/>
		<rect x="53.586" y="87.327" style="fill:#EFCB6C;" width="9.584" height="8.439"/>
		<rect x="38.373" y="72.996" style="fill:#EFCB6C;" width="9.584" height="8.453"/>
		<rect x="38.373" y="87.327" style="fill:#EFCB6C;" width="9.584" height="8.439"/>
		<rect x="68.727" y="87.677" style="fill:#EFCB6C;" width="9.584" height="8.439"/>
		<rect x="83.088" y="87.677" style="fill:#EFCB6C;" width="9.584" height="8.439"/>
	</g>
</g>
<g>
</g>
<g>
</g>
<g>
</g>
<g>
</g>
<g>
</g>
<g>
</g>
<g>
</g>
<g>
</g>
<g>
</g>
<g>
</g>
<g>
</g>
<g>
</g>
<g>
</g>
<g>
</g>
<g>
</g>
</svg>
