<?xml version="1.0" encoding="utf-8"?>
<!-- Generator: Adobe Illustrator 24.1.2, SVG Export Plug-In . SVG Version: 6.00 Build 0)  -->
<svg version="1.1" id="Layer_1" xmlns="http://www.w3.org/2000/svg" xmlns:xlink="http://www.w3.org/1999/xlink" x="0px" y="0px"
	 viewBox="0 0 450 350" style="enable-background:new 0 0 450 350;" xml:space="preserve">
<style type="text/css">
	.st0{fill:#20A088;}
	.st1{fill:#32BEA6;}
	.st2{fill:#2C3E50;}
	.st3{fill:#FFFFFF;}
	.st4{fill:url(#SVGID_1_);}
	.st5{fill:url(#SVGID_2_);}
	.st6{fill:url(#SVGID_3_);}
	.st7{fill:url(#SVGID_4_);}
	.st8{fill:url(#SVGID_5_);}
	.st9{fill:url(#SVGID_6_);}
	.st10{fill:url(#SVGID_7_);}
	.st11{fill:url(#SVGID_8_);}
</style>
<rect x="48.24" y="58.63" transform="matrix(0.9921 -0.1251 0.1251 0.9921 -15.7229 26.5321)" class="st0" width="310.29" height="159.65"/>
<rect x="91.63" y="15.04" class="st1" width="310.3" height="159.76"/>
<g>
	<path class="st2" d="M246.72,46c-12.11,0-21.85,9.84-21.85,21.85s9.84,21.85,21.85,21.85c12.11,0,21.85-9.84,21.85-21.85
		S258.84,46,246.72,46L246.72,46z"/>
	<path class="st2" d="M224.57,94.87c0,0-22.16,0.31-22.16,20.71s0,25.16,0,25.16s43.17,0,43.28,0L224.57,94.87L224.57,94.87z
		 M245.69,140.63L245.69,140.63L245.69,140.63L245.69,140.63z"/>
	<path class="st2" d="M268.98,94.87l-21.12,45.87l0,0h43.28c0,0,0-4.76,0-25.16S268.98,94.87,268.98,94.87L268.98,94.87z"/>
</g>
<polygon class="st3" points="246.72,95.91 232.54,95.91 246.72,127.48 261.01,95.91 "/>
<g>
	<g>
		
			<linearGradient id="SVGID_1_" gradientUnits="userSpaceOnUse" x1="3.8265" y1="588.9795" x2="445.8853" y2="588.9795" gradientTransform="matrix(1 0 0 1 0 -286)">
			<stop  offset="0" style="stop-color:#20A088"/>
			<stop  offset="0.4683" style="stop-color:#2EB8A0"/>
			<stop  offset="1" style="stop-color:#32BEA6"/>
		</linearGradient>
		<path class="st4" d="M44.83,325.96l-0.1-21.02l-9.94,16.77h-6.83l-9.94-16.05v20.19H3.83v-45.87h12.74l14.91,24.43l14.6-24.43
			H58.8l0.1,45.87L44.83,325.96L44.83,325.96z"/>
		
			<linearGradient id="SVGID_2_" gradientUnits="userSpaceOnUse" x1="3.8432" y1="588.9795" x2="445.902" y2="588.9795" gradientTransform="matrix(1 0 0 1 0 -286)">
			<stop  offset="0" style="stop-color:#20A088"/>
			<stop  offset="0.4683" style="stop-color:#2EB8A0"/>
			<stop  offset="1" style="stop-color:#32BEA6"/>
		</linearGradient>
		<path class="st5" d="M77.13,323.89c-3.93-2.07-7.04-4.87-9.21-8.59c-2.28-3.62-3.31-7.77-3.31-12.32s1.14-8.7,3.31-12.32
			c2.28-3.62,5.28-6.52,9.21-8.59c3.93-2.07,8.39-3.11,13.36-3.11c4.97,0,9.42,1.04,13.36,3.11c3.93,2.07,7.04,4.87,9.21,8.59
			c2.28,3.62,3.31,7.77,3.31,12.32s-1.14,8.7-3.31,12.32c-2.28,3.62-5.28,6.52-9.21,8.59c-3.93,2.07-8.39,3.11-13.36,3.11
			C85.52,327,81.17,325.96,77.13,323.89z M95.66,313.02c1.55-0.93,2.8-2.28,3.73-4.04c0.93-1.76,1.35-3.73,1.35-6.11
			c0-2.28-0.41-4.35-1.35-6.11c-0.93-1.76-2.17-3.11-3.73-4.04c-1.55-0.93-3.31-1.45-5.18-1.45c-1.97,0-3.62,0.52-5.18,1.45
			c-1.55,0.93-2.8,2.28-3.73,4.04c-0.93,1.76-1.35,3.73-1.35,6.11c0,2.28,0.41,4.35,1.35,6.11c0.93,1.76,2.17,3.11,3.73,4.04
			c1.55,0.93,3.31,1.45,5.18,1.45C92.45,314.47,94.11,313.95,95.66,313.02z"/>
		
			<linearGradient id="SVGID_3_" gradientUnits="userSpaceOnUse" x1="3.8432" y1="588.9277" x2="445.902" y2="588.9277" gradientTransform="matrix(1 0 0 1 0 -286)">
			<stop  offset="0" style="stop-color:#20A088"/>
			<stop  offset="0.4683" style="stop-color:#2EB8A0"/>
			<stop  offset="1" style="stop-color:#32BEA6"/>
		</linearGradient>
		<path class="st6" d="M167.31,279.99v45.87h-12.74l-17.5-20.81v20.81h-15.12v-45.87h12.84l17.5,20.81v-20.81H167.31z"/>
		
			<linearGradient id="SVGID_4_" gradientUnits="userSpaceOnUse" x1="3.8432" y1="589.0313" x2="445.902" y2="589.0313" gradientTransform="matrix(1 0 0 1 0 -286)">
			<stop  offset="0" style="stop-color:#20A088"/>
			<stop  offset="0.4683" style="stop-color:#2EB8A0"/>
			<stop  offset="1" style="stop-color:#32BEA6"/>
		</linearGradient>
		<path class="st7" d="M212.97,314.26v11.7h-38.21V280.1h37.27v11.7h-22.16v5.38h19.46v11.18h-19.46v6.01L212.97,314.26
			L212.97,314.26z"/>
		
			<linearGradient id="SVGID_5_" gradientUnits="userSpaceOnUse" x1="3.8432" y1="588.9795" x2="445.902" y2="588.9795" gradientTransform="matrix(1 0 0 1 0 -286)">
			<stop  offset="0" style="stop-color:#20A088"/>
			<stop  offset="0.4683" style="stop-color:#2EB8A0"/>
			<stop  offset="1" style="stop-color:#32BEA6"/>
		</linearGradient>
		<path class="st8" d="M246.21,309.3v16.67h-15.53v-16.88l-17.29-29.09h16.36l9.42,15.84l9.42-15.84h14.91L246.21,309.3z"/>
		
			<linearGradient id="SVGID_6_" gradientUnits="userSpaceOnUse" x1="3.8432" y1="589.0313" x2="445.902" y2="589.0313" gradientTransform="matrix(1 0 0 1 0 -286)">
			<stop  offset="0" style="stop-color:#20A088"/>
			<stop  offset="0.4683" style="stop-color:#2EB8A0"/>
			<stop  offset="1" style="stop-color:#32BEA6"/>
		</linearGradient>
		<path class="st9" d="M326.14,325.96l-0.1-20.91l-9.94,16.77h-6.83l-9.94-16.05v20.19h-14.08V280.1h12.73l14.91,24.43l14.6-24.43
			h12.74l0.1,45.87H326.14z"/>
		
			<linearGradient id="SVGID_7_" gradientUnits="userSpaceOnUse" x1="3.8432" y1="588.9277" x2="445.902" y2="588.9277" gradientTransform="matrix(1 0 0 1 0 -286)">
			<stop  offset="0" style="stop-color:#20A088"/>
			<stop  offset="0.4683" style="stop-color:#2EB8A0"/>
			<stop  offset="1" style="stop-color:#32BEA6"/>
		</linearGradient>
		<path class="st10" d="M379.04,317.89h-17.5l-3.11,7.97H342.7l20.09-45.87h15.32l20.09,45.87h-16.05L379.04,317.89z M374.8,306.81
			l-4.45-11.6l-4.45,11.6H374.8z"/>
		
			<linearGradient id="SVGID_8_" gradientUnits="userSpaceOnUse" x1="3.8432" y1="588.9277" x2="445.902" y2="588.9277" gradientTransform="matrix(1 0 0 1 0 -286)">
			<stop  offset="0" style="stop-color:#20A088"/>
			<stop  offset="0.4683" style="stop-color:#2EB8A0"/>
			<stop  offset="1" style="stop-color:#32BEA6"/>
		</linearGradient>
		<path class="st11" d="M445.93,279.99v45.87h-12.74l-17.5-20.81v20.81h-15.12v-45.87h12.73l17.5,20.81v-20.81H445.93z"/>
	</g>
</g>
</svg>
