<?xml version="1.0" encoding="iso-8859-1"?>
<!-- Generator: Adobe Illustrator 19.0.0, SVG Export Plug-In . SVG Version: 6.00 Build 0)  -->
<svg version="1.1" id="Layer_1" xmlns="http://www.w3.org/2000/svg" xmlns:xlink="http://www.w3.org/1999/xlink" x="0px" y="0px"
	 viewBox="0 0 512 512" style="enable-background:new 0 0 512 512;" xml:space="preserve">
<circle style="fill:#FFD15D;" cx="256" cy="256" r="256"/>
<path style="fill:#F9B54C;" d="M512,256c0-2.648-0.053-5.282-0.133-7.911l-104.15-104.15l-54.851-14.112l-227.3,285.863
	l93.672,93.672C231.245,511.088,243.515,512,256,512C397.384,512,512,397.384,512,256z"/>
<rect x="213.376" y="240.455" transform="matrix(-0.7071 -0.7071 0.7071 -0.7071 190.5441 645.1693)" style="fill:#324A5E;" width="31.03" height="85.333"/>
<rect x="225.211" y="245.376" transform="matrix(0.7071 0.7071 -0.7071 0.7071 272.1494 -80.9428)" style="fill:#2B3B4E;" width="17.141" height="85.333"/>
<circle style="fill:#FFFFFF;" cx="319.388" cy="192.612" r="85.333"/>
<path style="fill:#E6F3FF;" d="M379.725,132.275c-0.386-0.386-0.788-0.743-1.177-1.121L257.926,251.776
	c0.376,0.391,0.734,0.793,1.121,1.177c33.325,33.325,87.355,33.325,120.679,0C413.05,219.631,413.05,165.6,379.725,132.275z"/>
<path style="fill:#4A6475;" d="M319.386,293.462c-26.938,0-52.262-10.49-71.311-29.537c-19.047-19.049-29.537-44.373-29.537-71.311
	s10.49-52.262,29.537-71.311c19.049-19.047,44.373-29.537,71.311-29.537c26.938,0,52.262,10.49,71.311,29.537
	c39.321,39.321,39.321,103.3,0,142.622C371.648,282.972,346.324,293.462,319.386,293.462z M319.386,122.796
	c-18.649,0-36.181,7.263-49.369,20.449c-13.188,13.186-20.449,30.718-20.449,49.369s7.263,36.181,20.449,49.369
	s30.718,20.449,49.369,20.449c18.651,0,36.181-7.263,49.369-20.449c27.222-27.222,27.222-71.516,0-98.737
	C355.568,130.058,338.035,122.796,319.386,122.796z"/>
<path style="fill:#324A5E;" d="M390.697,121.303c-0.384-0.384-0.788-0.743-1.177-1.121l-21.944,21.944
	c0.391,0.374,0.793,0.736,1.177,1.121c27.222,27.22,27.222,71.515,0,98.737c-13.186,13.186-30.718,20.449-49.369,20.449
	s-36.181-7.263-49.369-20.449c-0.384-0.384-0.746-0.784-1.121-1.177l-21.944,21.944c0.378,0.39,0.736,0.793,1.121,1.177
	c19.049,19.047,44.373,29.537,71.311,29.537c26.938,0,52.262-10.49,71.311-29.537C430.016,224.603,430.016,160.623,390.697,121.303z
	"/>
<path style="fill:#FC6F58;" d="M237.715,303.542l-29.256-29.256c-6.061-6.058-15.882-6.058-21.944,0l-90.205,90.205
	c-6.06,6.06-6.06,15.884,0,21.944l29.256,29.256c3.031,3.029,7.001,4.544,10.971,4.544c3.97,0,7.94-1.515,10.971-4.544
	l90.205-90.205C243.772,319.426,243.772,309.601,237.715,303.542z"/>
<path style="fill:#F1543F;" d="M221.937,287.765L109.789,399.913l15.777,15.777c3.031,3.029,7.001,4.544,10.971,4.544
	s7.94-1.515,10.971-4.544l90.205-90.205c6.06-6.06,6.06-15.884,0-21.944L221.937,287.765z"/>
<g>
</g>
<g>
</g>
<g>
</g>
<g>
</g>
<g>
</g>
<g>
</g>
<g>
</g>
<g>
</g>
<g>
</g>
<g>
</g>
<g>
</g>
<g>
</g>
<g>
</g>
<g>
</g>
<g>
</g>
</svg>
