<?xml version="1.0" encoding="iso-8859-1"?>
<!-- Generator: Adobe Illustrator 19.0.0, SVG Export Plug-In . SVG Version: 6.00 Build 0)  -->
<svg version="1.1" id="Layer_1" xmlns="http://www.w3.org/2000/svg" xmlns:xlink="http://www.w3.org/1999/xlink" x="0px" y="0px"
	 viewBox="0 0 512 512" style="enable-background:new 0 0 512 512;" xml:space="preserve">
<circle style="fill:#71E2EF;" cx="256" cy="256" r="256"/>
<path style="fill:#38C6D9;" d="M159.456,400.815l110.783,110.783c130.045-7.132,234.227-111.314,241.359-241.359L400.815,159.456
	l-224.689,8.625L159.456,400.815z"/>
<path style="fill:#366695;" d="M426.667,290.133v-68.267h-38.434c-3.224-12.526-8.206-24.338-14.624-35.202l27.208-27.208
	l-48.273-48.271l-27.208,27.207c-10.864-6.418-22.676-11.4-35.202-14.624V85.333h-68.267v38.434
	c-12.526,3.224-24.338,8.206-35.202,14.624l-27.208-27.207l-48.271,48.271l27.208,27.208c-6.418,10.864-11.4,22.676-14.624,35.202
	H85.333v68.267h38.434c3.224,12.526,8.206,24.338,14.624,35.202l-27.208,27.208l48.273,48.271l27.208-27.208
	c10.864,6.418,22.676,11.4,35.202,14.624v38.436h68.267v-38.434c12.526-3.224,24.338-8.206,35.202-14.624l27.208,27.208
	l48.271-48.271l-27.208-27.208c6.418-10.864,11.4-22.676,14.624-35.202h38.436V290.133z M256,307.2c-28.277,0-51.2-22.923-51.2-51.2
	s22.923-51.2,51.2-51.2s51.2,22.923,51.2,51.2S284.277,307.2,256,307.2z"/>
<path style="fill:#273B7A;" d="M426.667,290.133v-68.267h-38.434c-3.224-12.526-8.206-24.338-14.624-35.202l27.208-27.208
	l-48.271-48.271l-27.21,27.208c-10.864-6.418-22.676-11.4-35.202-14.624V85.333h-34.707v119.48c0.191-0.002,0.381-0.014,0.574-0.014
	c28.277,0,51.2,22.923,51.2,51.2s-22.923,51.2-51.2,51.2c-0.193,0-0.383-0.012-0.574-0.014v119.48h34.707v-38.434
	c12.526-3.224,24.338-8.206,35.202-14.624l27.208,27.208l48.271-48.271l-27.208-27.208c6.418-10.864,11.4-22.676,14.624-35.202
	h38.436V290.133z"/>
<path style="fill:#FFC61B;" d="M256,338.747c-45.628,0-82.747-37.119-82.747-82.747s37.119-82.747,82.747-82.747
	s82.747,37.119,82.747,82.747S301.628,338.747,256,338.747z M256,190.492c-36.121,0-65.508,29.387-65.508,65.508
	s29.387,65.508,65.508,65.508s65.508-29.387,65.508-65.508S292.121,190.492,256,190.492z"/>
<path style="fill:#D48B07;" d="M256,173.253c-0.193,0-0.381,0.014-0.574,0.014v17.239c0.191-0.002,0.381-0.014,0.574-0.014
	c36.121,0,65.508,29.387,65.508,65.508S292.121,321.508,256,321.508c-0.193,0-0.383-0.012-0.574-0.014v17.239
	c0.193,0.002,0.381,0.014,0.574,0.014c45.628,0,82.747-37.119,82.747-82.747S301.628,173.253,256,173.253z"/>
<g>
</g>
<g>
</g>
<g>
</g>
<g>
</g>
<g>
</g>
<g>
</g>
<g>
</g>
<g>
</g>
<g>
</g>
<g>
</g>
<g>
</g>
<g>
</g>
<g>
</g>
<g>
</g>
<g>
</g>
</svg>
