<?xml version="1.0" encoding="iso-8859-1"?>
<!-- Generator: Adobe Illustrator 19.0.0, SVG Export Plug-In . SVG Version: 6.00 Build 0)  -->
<svg version="1.1" id="Layer_1" xmlns="http://www.w3.org/2000/svg" xmlns:xlink="http://www.w3.org/1999/xlink" x="0px" y="0px"
	 viewBox="0 0 512 512" style="enable-background:new 0 0 512 512;" xml:space="preserve">
<path style="fill:#DBD8D2;" d="M512,467.478L512,467.478C512,492.066,492.066,512,467.478,512H44.522
	C19.933,512,0,492.066,0,467.478l0,0c0-24.588,19.933-44.522,44.522-44.522h422.957C492.066,422.957,512,442.89,512,467.478z"/>
<path style="fill:#A5A5A5;" d="M464.696,467.478c0,4.61-3.738,8.348-8.348,8.348H55.652c-4.61,0-8.348-3.738-8.348-8.348
	s3.738-8.348,8.348-8.348h400.696C460.958,459.13,464.696,462.868,464.696,467.478z"/>
<path style="fill:#A384E2;" d="M333.913,77.913c0,43.03-34.883,77.913-77.913,77.913s-77.913-34.883-77.913-77.913S212.97,0,256,0
	S333.913,34.883,333.913,77.913z"/>
<path style="fill:#B69CF7;" d="M389.565,333.913v141.913h-267.13V333.913c0-73.766,59.799-133.565,133.565-133.565l0,0
	C329.766,200.348,389.565,260.147,389.565,333.913z M244.87,22.261c-24.588,0-44.522,19.933-44.522,44.522
	s19.933,44.522,44.522,44.522s44.522-19.933,44.522-44.522S269.458,22.261,244.87,22.261z"/>
<path style="fill:#A384E2;" d="M388.071,313.873c0.984,6.537,1.494,13.229,1.494,20.04v141.913h-267.13v-99.611
	c18.376,28.14,50.144,46.741,86.261,46.741l0,0c56.861,0,102.957-46.096,102.957-102.957l0,0
	C311.652,272.674,381.029,267.074,388.071,313.873z"/>
<g>
</g>
<g>
</g>
<g>
</g>
<g>
</g>
<g>
</g>
<g>
</g>
<g>
</g>
<g>
</g>
<g>
</g>
<g>
</g>
<g>
</g>
<g>
</g>
<g>
</g>
<g>
</g>
<g>
</g>
</svg>
