<?xml version="1.0" encoding="utf-8"?>
<!-- Generator: Adobe Illustrator 19.2.0, SVG Export Plug-In . SVG Version: 6.00 Build 0)  -->
<svg version="1.1" id="Layer_1" xmlns="http://www.w3.org/2000/svg" xmlns:xlink="http://www.w3.org/1999/xlink" x="0px" y="0px"
	 viewBox="0 0 960 960" style="enable-background:new 0 0 960 960;" xml:space="preserve">
<style type="text/css">
	.st0{fill:#754C24;}
	.st1{fill:#F2F2F2;}
	.st2{fill:#4B9CB2;}
	.st3{fill:#1B4A59;}
	.st4{fill:#1F6175;}
	.st5{fill:#FBB03B;}
	.st6{fill:#C1272D;}
	.st7{fill:#A67C52;}
	.st8{fill:#C69C6D;}
	.st9{fill:#E5C19E;}
</style>
<g>
	<path class="st0" d="M716.5,729.6h-488c-24.4,0-44.2-19.8-44.2-44.2V338.2c0-24.4,19.8-44.2,44.2-44.2H705
		c30.8,0,55.7,24.9,55.7,55.7v335.7C760.7,709.8,740.9,729.6,716.5,729.6z"/>
	<path class="st1" d="M665.3,738.9H247.9c-35.1,0-63.6-28.5-63.6-63.6V390.8c0-35.1,28.5-63.6,63.6-63.6h417.4
		c35.1,0,63.6,28.5,63.6,63.6v284.4C728.9,710.4,700.4,738.9,665.3,738.9z"/>
	<g>
		<path class="st2" d="M685.2,379.7l-356.6,109c-10.7,3.3-22-2.7-25.2-13.4l-57-186.3c-3.3-10.7,2.7-22,13.4-25.2l356.6-109
			c10.7-3.3,22,2.7,25.2,13.4l57,186.3C701.9,365.2,695.9,376.5,685.2,379.7z"/>
		
			<rect x="251.3" y="247.2" transform="matrix(0.9563 -0.2924 0.2924 0.9563 -60.1958 145.891)" class="st3" width="413.3" height="54.2"/>
		
			<rect x="408.6" y="321.1" transform="matrix(0.9563 -0.2924 0.2924 0.9563 -74.3933 152.6772)" class="st4" width="129.9" height="8.2"/>
		
			<rect x="415.8" y="344.6" transform="matrix(0.9563 -0.2924 0.2924 0.9563 -80.9475 155.8111)" class="st4" width="129.9" height="8.2"/>
		
			<rect x="423" y="368.1" transform="matrix(0.9563 -0.2924 0.2924 0.9563 -87.5018 158.9449)" class="st4" width="129.9" height="8.2"/>
		
			<ellipse transform="matrix(6.021006e-02 -0.9982 0.9982 6.021006e-02 287.2554 914.4629)" class="st5" cx="629.3" cy="304.7" rx="24.2" ry="24.2"/>
		
			<ellipse transform="matrix(0.7484 -0.6632 0.6632 0.7484 -58.868 474.5331)" class="st6" cx="596.1" cy="314.9" rx="24.2" ry="24.2"/>
	</g>
	<path class="st1" d="M689.2,399.6H234v-49.1h409.9c25,0,45.3,20.3,45.3,45.3V399.6z"/>
	<path class="st7" d="M697.1,806.1H247.9c-35.1,0-63.6-28.5-63.6-63.6V434.1c0-35.1,28.5-63.6,63.6-63.6h449.2
		c35.1,0,63.6,28.5,63.6,63.6v308.4C760.7,777.6,732.2,806.1,697.1,806.1z"/>
	<path class="st8" d="M763.1,643.1H646.2c-31.1,0-56.2-25.2-56.2-56.2l0,0c0-31.1,25.2-56.2,56.2-56.2H763c7,0,12.7,5.7,12.7,12.7
		v87.1C775.7,637.4,770.1,643.1,763.1,643.1z"/>
	<circle class="st9" cx="648.2" cy="586.9" r="34.6"/>
	<rect x="184.3" y="438.1" class="st8" width="576.4" height="30"/>
	<rect x="184.3" y="723.2" class="st8" width="576.4" height="30"/>
	<path class="st7" d="M184.3,333.5c0,0-1,37,43.9,37c19.4,0,35.6,0,35.6,0l-79.5,63.7L184.3,333.5L184.3,333.5z"/>
</g>
</svg>
