<?xml version="1.0" encoding="iso-8859-1"?>
<!-- Generator: Adobe Illustrator 19.0.0, SVG Export Plug-In . SVG Version: 6.00 Build 0)  -->
<svg version="1.1" id="Layer_1" xmlns="http://www.w3.org/2000/svg" xmlns:xlink="http://www.w3.org/1999/xlink" x="0px" y="0px"
	 viewBox="0 0 511.998 511.998" style="enable-background:new 0 0 511.998 511.998;" xml:space="preserve">
<circle style="fill:#21D0C3;" cx="255.999" cy="255.999" r="255.999"/>
<path style="fill:#FED298;" d="M253.588,303.442c30.515,8.855,86.791,18.118,86.791,18.118s-3.18,20.229-20.214,24.126
	c-17.035,3.896-62.604-5.047-62.604-5.047s-8.308,8.169,6.348,10.892c14.657,2.726,86.399,1.175,86.399,1.175
	s73.653-34.896,86.335-39.573c12.682-4.674,20.209,7.002,20.209,7.002s-84.756,67.107-92.683,72.951
	c-7.928,5.839-139.824,17.2-139.824,17.2l-39.081,3.973l-15.452,16.528l-6.936,10.056l-70.491-57.948l56.235-39.932
	c22.172-37.187,74.455-48.372,104.973-39.518L253.588,303.442z"/>
<path style="fill:#F0BA7D;" d="M445.321,329.254c-23.455,18.554-75.053,59.332-81.156,63.828
	c-7.928,5.839-139.824,17.2-139.824,17.2l-39.081,3.973l-15.452,16.528l-6.936,10.056l-6.447-5.301
	c16.141-15.714,27.848-25.915,24.979-24.308c-2.868,1.607,167.205-14.482,180.23-21.23c13.028-6.749,74.975-56.667,77.694-60.068
	c2.721-3.4,5.988-0.679,5.988-0.679h0.002L445.321,329.254z"/>
<g>
	<path style="fill:#FFFFFF;" d="M317.616,319.967l-1.561,7.536l17.542,1.041c1.285-1.466,2.221-3.208,1.638-6.134l-17.617-2.443
		H317.616z"/>
	<path style="fill:#FFFFFF;" d="M443.372,325.667l2.154,2.276l9.413-6.725c0.624-1.342-2.308-1.749-2.308-1.749L443.372,325.667z"/>
	<path style="fill:#FFFFFF;" d="M98.025,359.087l69.876,88.648l-15.414,16.03L78.076,371.58l19.952-12.491L98.025,359.087z"/>
</g>
<path style="fill:#0F7986;" d="M43.971,399.496l34.1-27.915l83.149,100.294l-15.846,15.051
	c-41.057-19.704-76.045-50.037-101.401-87.429L43.971,399.496L43.971,399.496z"/>
<path style="fill:#FF5B62;" d="M284.103,165.015c-0.761-32.612,34.605-58.644,40.626-97.126
	c6.021,38.479,41.389,64.514,40.629,97.126C365.358,218.456,284.103,218.456,284.103,165.015z"/>
<path style="fill:#ED4C54;" d="M324.729,67.889c6.021,38.479,41.389,64.514,40.629,97.126c0,41.164-48.205,50.612-70.354,28.361
	c18.373,14.415,51.576,8.835,61.963-13.24c16.177-34.38-32.31-71.869-32.237-112.244V67.889z"/>
<path style="fill:#FF878E;" d="M312.277,110.16c0,0-33.471,39.509-21.848,62.639C300.148,192.143,298.86,136.387,312.277,110.16z"/>
<path style="fill:#FF5B62;" d="M185.56,230.559c-1.193-51.155,54.286-91.993,63.731-152.355
	c9.444,60.36,64.922,101.2,63.729,152.355C313.019,314.389,185.56,314.389,185.56,230.559z"/>
<path style="fill:#ED4C54;" d="M249.291,78.204c9.444,60.36,64.922,101.2,63.729,152.355c0,64.574-75.615,79.395-110.359,44.489
	c28.82,22.613,80.907,13.858,97.199-20.769c25.373-53.928-50.685-112.738-50.568-176.072L249.291,78.204L249.291,78.204z"/>
<path style="fill:#FF878E;" d="M229.755,144.514c0,0-52.506,61.976-34.27,98.259C210.733,273.116,208.711,185.655,229.755,144.514z"
	/>
<g>
</g>
<g>
</g>
<g>
</g>
<g>
</g>
<g>
</g>
<g>
</g>
<g>
</g>
<g>
</g>
<g>
</g>
<g>
</g>
<g>
</g>
<g>
</g>
<g>
</g>
<g>
</g>
<g>
</g>
</svg>
