<?xml version="1.0" encoding="iso-8859-1"?>
<!-- Generator: Adobe Illustrator 19.0.0, SVG Export Plug-In . SVG Version: 6.00 Build 0)  -->
<svg version="1.1" id="Layer_1" xmlns="http://www.w3.org/2000/svg" xmlns:xlink="http://www.w3.org/1999/xlink" x="0px" y="0px"
	 viewBox="0 0 512 512" style="enable-background:new 0 0 512 512;" xml:space="preserve">
<circle style="fill:#71B84F;" cx="255.997" cy="256" r="255.997"/>
<path style="fill:#63A147;" d="M509.675,221.545c1.48,11.415,2.325,22.831,2.325,34.669c0,114.153-74.834,210.973-177.995,243.95
	L149.457,315.616l110.137-195.964l-1.269-51.581L369.73,81.39l140.155,140.155H509.675z"/>
<path style="fill:#EBECEC;" d="M242.048,115.425c67.012,0,121.553,54.328,121.553,121.553c0,67.012-54.328,121.553-121.553,121.553
	c-67.012,0-121.553-54.328-121.553-121.553C120.495,169.964,174.825,115.425,242.048,115.425z M242.048,212.877
	c13.318,0,23.888,10.782,23.888,23.888c0,13.318-10.782,23.888-23.888,23.888c-13.106,0-23.888-10.782-23.888-23.888
	C218.16,223.448,228.941,212.877,242.048,212.877z"/>
<path style="fill:#E3E3E3;" d="M334.85,158.549c17.757,21.14,28.539,48.41,28.539,78.216c0,67.012-54.328,121.553-121.553,121.553
	c-37.206,0-70.394-16.7-92.591-42.913l74.411-62.996c4.44,5.073,10.782,8.244,18.18,8.244c13.106,0,23.888-10.782,23.888-23.888
	c0-5.708-2.114-11.204-5.496-15.22l74.411-62.996L334.85,158.549L334.85,158.549z"/>
<path style="fill:#F7F7F8;" d="M242.048,198.292c21.351,0,38.474,17.335,38.474,38.474c0,21.351-17.335,38.474-38.474,38.474
	c-21.351,0-38.474-17.335-38.474-38.474C203.574,215.414,220.908,198.292,242.048,198.292z M242.048,212.877
	c13.106,0,23.888,10.782,23.888,23.888c0,13.318-10.782,23.888-23.888,23.888c-13.318,0-23.888-10.782-23.888-23.888
	C218.16,223.448,228.941,212.877,242.048,212.877z"/>
<path style="fill:#FFD630;" d="M132.545,162.143c-0.211-2.748-0.211-5.285,0.211-8.033c15.22,1.269,30.441,3.594,45.661,5.285
	c4.862,0.634,9.935,0.846,14.798,1.902c0.846,7.611,0.846,15.22,1.269,22.831c0.634,10.358,1.48,20.717,1.691,31.075
	c0.211,5.708,1.269,11.415-0.423,16.911c-1.057,3.382-2.748,6.553-5.708,8.456c-5.496,3.171-12.473,4.228-18.391,1.902
	c-4.228-1.269-7.822-4.44-9.302-8.667c-2.325-4.651-1.269-10.358,2.325-13.953c6.342-6.976,18.815-6.131,24.522,1.269
	c-0.634-12.261-0.846-24.522-1.48-36.783c-16.066-1.48-32.132-2.96-47.987-4.44c-0.211,2.537,0,5.073,0.211,7.611
	c0.423,7.611,0.846,15.009,1.269,22.619c0.211,4.862,1.057,9.935-0.634,14.798c-0.846,3.382-3.171,6.131-5.708,8.244
	c-2.96,2.325-6.764,2.537-10.147,2.748c-4.228,0.423-8.456-0.846-12.261-3.171c-3.594-2.325-6.131-6.342-6.131-10.57
	c-0.423-5.073,2.537-10.57,7.399-12.684c6.131-3.171,15.009-2.325,19.66,3.382c0.211,0,0.634-0.211,0.846-0.211
	c-0.634-17.124-1.269-34.035-1.902-51.157L132.545,162.143z"/>
<path style="fill:#FF873D;" d="M257.903,82.447c-0.423-4.862-0.423-9.724,0.211-14.586c28.115,2.537,56.02,6.764,83.924,9.724
	c9.09,1.057,18.391,1.691,27.27,3.594c1.48,13.953,1.48,28.115,2.537,42.068c1.057,19.026,2.748,38.051,3.171,57.077
	c0.423,10.358,2.537,20.928-0.634,30.864c-1.691,6.131-5.073,12.261-10.569,15.644c-9.935,5.919-22.619,7.611-33.612,3.594
	c-7.611-2.325-14.375-8.244-17.123-15.644c-4.228-8.244-2.114-19.237,4.44-25.79c11.627-12.895,34.669-11.204,44.816,2.537
	c-1.057-22.619-1.691-45.028-2.748-67.647c-29.384-2.748-58.768-5.285-88.152-8.033c-0.211,4.651,0,9.513,0.423,14.164
	c0.846,13.74,1.48,27.693,2.325,41.434c0.211,9.09,1.691,18.391-1.057,27.059c-1.48,6.131-5.708,11.415-10.569,15.431
	c-5.285,4.228-12.261,4.651-18.815,5.285c-7.822,0.634-15.644-1.48-22.408-5.708c-6.342-4.44-11.204-11.627-11.415-19.66
	c-0.846-9.513,4.651-19.448,13.529-23.253c11.415-5.919,27.693-4.44,35.937,6.131c0.634-0.211,1.057-0.423,1.691-0.423
	c-1.269-31.286-2.325-62.574-3.593-93.86h0.421V82.447z"/>
<path style="fill:#004F59;" d="M271.432,275.873L271.432,275.873l-0.846-0.211l0,0l0,0l0,0l0,0l0,0l0,0l0,0
	c-0.211,0-0.634-0.211-0.846-0.211c-20.082-3.382-39.108,10.147-42.49,30.23c-3.382,20.082,10.147,39.108,30.23,42.49
	c0.211,0,0.634,0,0.846,0.211h0.211c0.211,0,0.423,0,0.634,0h0.211c0.211,0,0.634,0,0.846,0h0.211c0.211,0,0.423,0,0.634,0h0.211
	h0.634h0.211c0.211,0,0.634,0,0.846,0h0.211h0.634h0.211c0.211,0,0.423,0,0.846,0l0,0l0,0c0.211,0,0.634,0,0.846,0h0.211
	c0.211,0,0.423,0,0.634,0h0.211c0.211,0,0.634,0,0.846,0h0.211c0.211,0,0.423,0,0.634,0h0.211h0.634h0.211
	c0.211,0,0.423,0,0.634-0.211h0.423h0.423h0.423h0.423h0.423c0.211,0,0.423,0,0.634-0.211h0.423l0.423-0.211h0.423
	c0.211,0,0.423-0.211,0.634-0.211l0.423-0.211l0.423-0.211l0.423-0.211l0.423-0.211l0.423-0.211l0,0
	c0.211,0,0.423-0.211,0.634-0.211l0.423-0.211l0.211-0.211l0.423-0.211l0.211-0.211c0.211-0.211,0.634-0.211,0.846-0.423h0.211
	l0.423-0.211h0.211l0.423-0.211h0.211c0.211-0.211,0.634-0.211,0.846-0.423h0.211l0.423-0.211h0.211l0.423-0.211
	c0.211-0.211,0.423-0.211,0.634-0.423l0.423-0.211l0.211-0.211l0.423-0.211l0,0c0.211-0.211,0.634-0.423,0.846-0.634l0,0
	l0.423-0.211l0.211-0.211c0.634-0.423,1.269-1.057,1.902-1.48l0,0c1.057-1.057,2.114-2.114,3.171-3.171l0,0
	c0.634-0.634,1.057-1.269,1.691-1.902l0,0c0.423-0.423,0.846-1.057,1.057-1.48c2.96-4.228,5.073-9.302,5.919-14.798
	c0.423-2.748,0.634-5.285,0.423-8.033l0,0c0-0.211,0-0.423,0-0.634v-0.211v-0.211v-0.211v-0.423v-0.211v-0.211v-0.211l0,0v-0.423
	v-0.211v-0.211v-0.211v-0.423v-0.211v-0.211v-0.211v-0.211v-0.211v-0.423v-0.211v-0.211l-0.211-0.634v-0.211v-0.217
	c0-0.211,0-0.423-0.211-0.634v-0.211c-1.902-7.822-6.342-14.798-12.473-19.871l0,0l0,0l0,0c-0.211-0.211-0.423-0.211-0.634-0.423
	h-0.211c-0.211-0.211-0.423-0.211-0.634-0.423l-0.211-0.211c-0.211-0.211-0.423-0.211-0.634-0.423h-0.211
	c-0.211-0.211-0.423-0.211-0.634-0.423l-0.211-0.211c-0.211-0.211-0.423-0.211-0.634-0.423h-0.211
	c-0.211-0.211-0.423-0.211-0.634-0.423l0,0l0,0l0,0c-0.211-0.211-0.423-0.211-0.634-0.423l0,0l0,0
	c-0.211-0.211-0.423-0.211-0.634-0.423h-0.211c-0.211-0.211-0.423-0.211-0.634-0.423h-0.211c-0.211-0.211-0.423-0.211-0.634-0.423
	l0,0c-0.211-0.211-0.423-0.211-0.846-0.423l0,0c-0.211-0.211-0.423-0.211-0.846-0.423l0,0c-0.211-0.211-0.423-0.211-0.846-0.211l0,0
	c-0.211,0-0.634-0.211-0.846-0.211l0,0c-0.211,0-0.634-0.211-0.846-0.211l0,0c-0.211,0-0.634-0.211-0.846-0.211l0,0
	c-0.211,0-0.634-0.211-0.846-0.211l0,0c-0.211,0-0.634-0.211-0.846-0.211l0,0c-0.211,0-0.634-0.211-0.846-0.211l0,0l0,0
	L271.432,275.873z M239.299,305.257L239.299,305.257c-0.211,1.48-1.48,2.325-2.96,2.114c-1.269-0.211-2.114-1.269-2.114-2.325l0,0
	c0-0.423,0.211-1.057,0.211-1.48c2.748-16.066,17.757-26.848,33.823-24.099c0.423,0,0.846,0.211,1.269,0.211h0.211
	c1.48,0.211,2.325,1.48,2.114,2.96c-0.211,1.48-1.48,2.325-2.96,2.114l0,0l0,0c-0.423-0.211-1.057-0.211-1.48-0.211
	c-13.106-2.114-25.579,6.764-27.904,19.871C239.511,304.624,239.511,305.046,239.299,305.257h-0.211H239.299z M296.165,352.61
	l6.553,10.993l1.902-1.057c2.114-1.269,4.651-0.423,5.919,1.48l42.279,73.565c1.269,2.114,0.423,4.651-1.48,5.919l-16.911,9.935
	c-2.114,1.269-4.651,0.423-5.919-1.48L286.229,378.4c-1.269-2.114-0.423-4.651,1.48-5.919l1.691-1.057l-6.553-10.993
	c-8.667,3.382-18.18,4.651-27.904,2.96c-28.539-4.862-47.775-31.71-42.913-60.248c4.862-28.539,31.71-47.775,60.248-42.913
	s47.775,31.71,42.913,60.248c-2.114,13.318-9.302,24.522-19.026,32.344V352.61z"/>
<path style="fill:#FFD630;" d="M304.833,362.546l-15.431,9.09l-1.691,1.057c-2.114,1.269-2.748,3.805-1.48,5.919l42.279,73.565
	c1.269,2.114,3.805,2.748,5.919,1.48l16.911-9.935c2.114-1.269,2.748-3.805,1.48-5.919l-42.279-73.565
	c-1.057-1.902-3.382-2.537-5.496-1.691H304.833z"/>
<path style="fill:#F5BE18;" d="M302.507,363.814l1.902-1.057c2.114-1.269,4.651-0.423,5.919,1.48l42.279,73.565
	c1.269,2.114,0.423,4.651-1.48,5.919l-8.456,4.862l-46.084-81.176l6.131-3.594h-0.21V363.814z"/>
<g>
</g>
<g>
</g>
<g>
</g>
<g>
</g>
<g>
</g>
<g>
</g>
<g>
</g>
<g>
</g>
<g>
</g>
<g>
</g>
<g>
</g>
<g>
</g>
<g>
</g>
<g>
</g>
<g>
</g>
</svg>
