<?xml version="1.0" encoding="iso-8859-1"?>
<!-- Generator: Adobe Illustrator 18.0.0, SVG Export Plug-In . SVG Version: 6.00 Build 0)  -->
<!DOCTYPE svg PUBLIC "-//W3C//DTD SVG 1.1//EN" "http://www.w3.org/Graphics/SVG/1.1/DTD/svg11.dtd">
<svg version="1.1" id="Capa_1" xmlns="http://www.w3.org/2000/svg" xmlns:xlink="http://www.w3.org/1999/xlink" x="0px" y="0px"
	 viewBox="0 0 135.001 135.001" style="enable-background:new 0 0 135.001 135.001;" xml:space="preserve">
<g>
	<circle style="fill:#4E5156;" cx="67.501" cy="67.501" r="67.5"/>
	<g>
		<g>
			<polygon style="fill:#FF6F00;" points="86.356,95.577 31.681,95.577 39.328,47.784 78.71,47.784 			"/>
			<polygon style="fill:#FF4D00;" points="32.395,91.116 31.681,95.577 86.356,95.577 85.642,91.116 			"/>
			<g>
				<g>
					<path style="fill:#FEC820;" d="M69.17,55.004C65.08,37.31,61.436,34.65,59.62,34.65c-0.005,0-0.009,0-0.015,0
						c-4.085,0.031-8.283,12.494-9.971,20.342l-1.495-0.32c0.473-2.201,4.813-21.5,11.454-21.551c0.009,0,0.019,0,0.027,0
						c4.078,0,7.689,7.046,11.04,21.539L69.17,55.004z"/>
					<circle style="fill:#FEC820;" cx="69.916" cy="54.832" r="1.562"/>
					<circle style="fill:#FEC820;" cx="48.886" cy="54.832" r="1.562"/>
				</g>
			</g>
		</g>
		<g>
			<polygon style="fill:#FF5900;" points="59.794,47.784 39.328,47.784 31.681,95.577 59.794,95.577 			"/>
			<polygon style="fill:#FF3800;" points="59.794,91.116 32.395,91.116 31.681,95.577 59.794,95.577 			"/>
			<g>
				<path style="fill:#FEBB12;" d="M59.794,33.14c-0.058-0.003-0.115-0.018-0.173-0.018h-0.027
					c-6.642,0.051-10.981,19.35-11.454,21.551l1.495,0.32c1.688-7.848,5.886-20.311,9.971-20.342h0.015
					c0.056,0,0.114,0.003,0.174,0.008V33.14z"/>
				<circle style="fill:#FEBB12;" cx="48.886" cy="54.832" r="1.562"/>
			</g>
		</g>
		<g>
			<polygon style="fill:#FCCF4E;" points="102.413,95.577 63.802,95.577 69.202,61.828 97.011,61.828 			"/>
			<polygon style="fill:#FCAC39;" points="64.306,92.427 63.802,95.577 102.413,95.577 101.908,92.427 			"/>
			<g>
				<g>
					<path style="fill:#393B3F;" d="M90.276,66.927c-2.889-12.495-5.462-14.373-6.745-14.373c-0.003,0-0.006,0-0.011,0
						c-2.884,0.022-5.849,8.823-7.04,14.364l-1.057-0.227c0.335-1.554,3.399-15.182,8.09-15.218c0.006,0,0.013,0,0.019,0
						c2.88,0,5.43,4.976,7.797,15.21L90.276,66.927z"/>
					<circle style="fill:#393B3F;" cx="90.802" cy="66.806" r="1.103"/>
					<circle style="fill:#393B3F;" cx="75.951" cy="66.806" r="1.103"/>
				</g>
			</g>
		</g>
		<g>
			<g>
				<polygon style="fill:#FBBF31;" points="83.627,61.828 69.202,61.828 63.802,95.577 83.627,95.577 				"/>
			</g>
			<g>
				<polygon style="fill:#FB9420;" points="83.627,92.427 64.306,92.427 63.802,95.577 83.627,95.577 				"/>
			</g>
			<g>
				<path style="fill:#202125;" d="M83.627,51.483c-0.032-0.001-0.063-0.01-0.095-0.01c-0.006,0-0.013,0-0.019,0
					c-4.69,0.036-7.755,13.664-8.09,15.218l1.057,0.227c1.191-5.541,4.156-14.342,7.04-14.364h0.011
					c0.031,0,0.063,0.002,0.096,0.004V51.483z"/>
				<circle style="fill:#202125;" cx="75.951" cy="66.806" r="1.103"/>
			</g>
		</g>
	</g>
</g>
<g>
</g>
<g>
</g>
<g>
</g>
<g>
</g>
<g>
</g>
<g>
</g>
<g>
</g>
<g>
</g>
<g>
</g>
<g>
</g>
<g>
</g>
<g>
</g>
<g>
</g>
<g>
</g>
<g>
</g>
</svg>
