<?xml version="1.0" encoding="iso-8859-1"?>
<!-- Generator: Adobe Illustrator 19.0.0, SVG Export Plug-In . SVG Version: 6.00 Build 0)  -->
<svg version="1.1" id="Layer_1" xmlns="http://www.w3.org/2000/svg" xmlns:xlink="http://www.w3.org/1999/xlink" x="0px" y="0px"
	 viewBox="0 0 512 512" style="enable-background:new 0 0 512 512;" xml:space="preserve">
<circle style="fill:#324A5E;" cx="256" cy="256" r="256"/>
<path style="fill:#2B3B4E;" d="M150.35,361.65l147.008,147.008c108.253-17.586,193.715-103.05,211.301-211.303L361.653,150.349
	l-5.17,12.622l-91.862-91.86c0-0.438-9.561,19.096-23.378,47.55H204.86l-81.886,81.886v58.909l-51.862,5.163l91.834,91.834
	C155.919,359.021,150.35,361.196,150.35,361.65z"/>
<circle style="fill:#FFD15D;" cx="256" cy="256" r="63.104"/>
<path style="fill:#F9B54C;" d="M319.105,256c0-34.85-28.251-63.104-63.104-63.104v126.207
	C290.852,319.104,319.105,290.85,319.105,256z"/>
<path style="fill:#F4A200;" d="M256.002,331.852c-41.825,0-75.852-34.026-75.852-75.852s34.026-75.852,75.852-75.852
	s75.852,34.026,75.852,75.852S297.825,331.852,256.002,331.852z M256.002,205.645c-27.765,0-50.355,22.59-50.355,50.355
	s22.59,50.355,50.355,50.355s50.355-22.59,50.355-50.355S283.767,205.645,256.002,205.645z"/>
<path style="fill:#E29000;" d="M331.854,256c0-41.825-34.026-75.852-75.852-75.852v25.497c27.765,0,50.355,22.59,50.355,50.355
	s-22.588,50.355-50.355,50.355v25.497C297.827,331.852,331.854,297.825,331.854,256z"/>
<rect x="244.519" y="227.314" style="fill:#F4A200;" width="22.947" height="57.372"/>
<rect x="256" y="227.314" style="fill:#E29000;" width="11.473" height="57.372"/>
<path style="fill:#90DFAA;" d="M440.891,247.38h-35.819c-2.024-35.338-16.479-70.091-43.418-97.03
	c-26.179-26.179-60.364-41.424-97.032-43.496V71.111h-17.239v35.743c-36.667,2.074-70.853,17.318-97.032,43.496
	c-26.177,26.178-41.422,60.364-43.494,97.03H71.113v17.239h35.743c2.072,36.667,17.317,70.854,43.494,97.03
	c26.178,26.177,60.364,41.422,97.032,43.496v35.743h17.239v-35.743c36.667-2.072,70.854-17.317,97.032-43.496
	c26.939-26.939,41.393-61.692,43.418-97.03h35.819L440.891,247.38L440.891,247.38z M349.462,349.462
	c-22.919,22.919-52.783,36.352-84.842,38.403v-32.309H247.38v32.309c-32.059-2.051-61.921-15.484-84.84-38.403
	c-22.921-22.921-36.352-52.783-38.403-84.842h32.309V247.38h-32.309c2.051-32.059,15.484-61.921,38.403-84.842
	c22.919-22.919,52.783-36.352,84.84-38.403v32.309h17.239v-32.309c32.059,2.051,61.921,15.484,84.842,38.403
	c23.578,23.578,36.335,53.924,38.338,84.842h-32.242v17.239h32.242C385.796,295.538,373.041,325.882,349.462,349.462z"/>
<path style="fill:#7ECE95;" d="M405.07,247.38c-2.024-35.338-16.479-70.091-43.418-97.03
	c-26.179-26.179-60.364-41.424-97.032-43.496V71.111H256v85.333h8.62v-32.309c32.059,2.051,61.921,15.484,84.842,38.403
	c23.578,23.578,36.335,53.924,38.338,84.842h-32.242v17.239h32.242c-2.003,30.918-14.758,61.262-38.338,84.842
	c-22.919,22.919-52.783,36.352-84.842,38.403v-32.309H256v85.333h8.62v-35.743c36.667-2.072,70.854-17.317,97.032-43.496
	c26.939-26.939,41.393-61.692,43.418-97.03h35.819V247.38H405.07z"/>
<g>
</g>
<g>
</g>
<g>
</g>
<g>
</g>
<g>
</g>
<g>
</g>
<g>
</g>
<g>
</g>
<g>
</g>
<g>
</g>
<g>
</g>
<g>
</g>
<g>
</g>
<g>
</g>
<g>
</g>
</svg>
