<?xml version="1.0" encoding="iso-8859-1"?>
<!-- Generator: Adobe Illustrator 19.0.0, SVG Export Plug-In . SVG Version: 6.00 Build 0)  -->
<svg version="1.1" id="Layer_1" xmlns="http://www.w3.org/2000/svg" xmlns:xlink="http://www.w3.org/1999/xlink" x="0px" y="0px"
	 viewBox="0 0 433.215 433.215" style="enable-background:new 0 0 433.215 433.215;" xml:space="preserve">
<g>
	<polyline style="fill:#86D359;" points="0,267.956 292.708,129.198 367.395,286.749 74.686,425.507 0,267.956 	"/>
	<path style="fill:#77BC4A;" d="M70.455,373.301l-32.963-69.534c15.03-7.125,21.529-24.948,14.703-40.039L256.4,166.925
		c7.361,14.836,25.273,21.088,40.303,13.963l32.962,69.534c-15.198,7.204-21.675,25.36-14.471,40.558l-204.181,96.792
		C103.808,372.575,85.653,366.096,70.455,373.301"/>
	<path style="fill:#86D359;" d="M206.711,325.9c15.882-7.529,18.453-35.368,5.744-62.18c-12.71-26.812-35.89-42.444-51.772-34.915
		c-15.882,7.529-18.453,35.368-5.743,62.18C167.651,317.797,190.829,333.429,206.711,325.9"/>
	<path style="fill:#77BC4A;" d="M194.211,299.531l-9.734,4.614l-2.57-5.421l9.735-4.615c3.872-1.836,5.53-6.48,3.694-10.353
		s-6.48-5.53-10.353-3.694c-6.862,3.253-15.092,0.317-18.345-6.545s-0.317-15.092,6.546-18.346l9.734-4.614l2.57,5.422l-9.734,4.614
		c-3.873,1.836-5.53,6.481-3.694,10.353c1.835,3.873,6.48,5.53,10.353,3.694c6.862-3.252,15.092-0.316,18.345,6.546
		C204.01,288.049,201.074,296.278,194.211,299.531"/>
	<polyline style="fill:#77BC4A;" points="177.178,256.601 171.756,259.171 165.471,245.913 170.893,243.343 177.178,256.601 	"/>
	
		<rect x="193.073" y="296.11" transform="matrix(-0.9036 0.4284 -0.4284 -0.9036 503.2376 493.6402)" style="fill:#77BC4A;" width="6" height="14.672"/>
	<polyline style="fill:#86D359;" points="70.161,164.332 394.093,164.332 394.093,338.688 70.161,338.688 70.161,164.332 	"/>
	<path style="fill:#77BC4A;" d="M88.7,289.702V212.75c16.634,0,30.141-13.322,30.437-29.88h225.986
		c0.297,16.559,13.804,29.88,30.437,29.88v76.952c-16.819,0-30.45,13.63-30.45,30.449H119.15
		C119.15,303.333,105.519,289.702,88.7,289.702"/>
	<ellipse style="fill:#86D359;" cx="232.127" cy="251.51" rx="31.825" ry="53.727"/>
	<path style="fill:#77BC4A;" d="M232.128,276.054h-10.773v-6h10.773c4.286,0,7.772-3.487,7.772-7.772
		c0-4.286-3.487-7.773-7.772-7.773c-7.594,0-13.773-6.178-13.773-13.772s6.179-13.773,13.773-13.773H242.9v6h-10.772
		c-4.286,0-7.773,3.487-7.773,7.773s3.487,7.772,7.773,7.772c7.594,0,13.772,6.179,13.772,13.773S239.722,276.054,232.128,276.054z"
		/>
	<rect x="229.125" y="215.294" style="fill:#77BC4A;" width="6" height="14.672"/>
	<rect x="229.125" y="273.054" style="fill:#77BC4A;" width="6" height="14.672"/>
	<path style="fill:#FC7A51;" d="M357.898,74.338c0,10.93-2.68,21.94-8.2,32l-32.49,59.24l-25.91,47.25l-58.4-106.49
		c-14.23-25.96-9.63-58.19,11.3-79.12c7.55-7.55,16.46-12.91,25.95-16.08c6.85-2.29,14-3.43,21.15-3.43
		c17.04,0,34.08,6.5,47.09,19.51C351.208,40.038,357.898,57.088,357.898,74.338z"/>
	<circle style="fill:#FFFFFF;" cx="291.297" cy="74.854" r="47.091"/>
	<path style="fill:#D6B71D;" d="M389.74,375.569c-24.01,0-43.475-19.464-43.475-43.475v-13.662h86.949v13.662
		C433.214,356.104,413.75,375.569,389.74,375.569"/>
	<path style="fill:#F9DE58;" d="M433.214,318.432c0-24.01-19.464-43.475-43.475-43.475s-43.475,19.464-43.475,43.475
		c0,24.01,19.464,43.475,43.475,43.475S433.214,342.442,433.214,318.432"/>
	<path style="fill:#D6B71D;" d="M417.94,318.432c0-15.575-12.626-28.2-28.2-28.2c-15.575,0-28.2,12.625-28.2,28.2
		c0,15.574,12.625,28.2,28.2,28.2C405.314,346.632,417.94,334.006,417.94,318.432"/>
	<path style="fill:#D6B71D;" d="M301.073,410.902c-24.01,0-43.475-19.464-43.475-43.475v-13.662h86.949v13.662
		C344.548,391.437,325.083,410.902,301.073,410.902"/>
	<path style="fill:#F9DE58;" d="M344.548,353.765c0-24.01-19.464-43.475-43.475-43.475s-43.475,19.464-43.475,43.475
		c0,24.01,19.464,43.475,43.475,43.475S344.548,377.775,344.548,353.765"/>
	<path style="fill:#D6B71D;" d="M329.273,353.765c0-15.574-12.626-28.2-28.2-28.2c-15.575,0-28.2,12.626-28.2,28.2
		c0,15.575,12.625,28.2,28.2,28.2C316.647,381.965,329.273,369.34,329.273,353.765"/>
	<path style="fill:#D6B71D;" d="M125.073,314.902L125.073,314.902c-24.011,0-43.475-19.464-43.475-43.475v-13.662h86.949v13.662
		C168.547,295.438,149.084,314.902,125.073,314.902"/>
	<path style="fill:#F9DE58;" d="M168.547,257.765c0-24.01-19.464-43.475-43.475-43.475c-24.01,0-43.475,19.464-43.475,43.475
		s19.464,43.475,43.475,43.475C149.084,301.24,168.547,281.775,168.547,257.765"/>
	<path style="fill:#D6B71D;" d="M153.273,257.765c0-15.575-12.625-28.2-28.2-28.2c-15.574,0-28.2,12.625-28.2,28.2
		c0,15.574,12.625,28.2,28.2,28.2C140.647,285.965,153.273,273.339,153.273,257.765"/>
	<path style="fill:#D6B71D;" d="M61.554,233.043c-24.01,0-43.475-19.464-43.475-43.475v-78.387h86.949v78.387
		C105.028,213.579,85.565,233.043,61.554,233.043"/>
	<path style="fill:#F9DE58;" d="M105.03,111.182c0,20.51-14.21,37.7-33.32,42.28c-3.26,0.779-6.66,1.19-10.16,1.19
		c-24.01,0-43.47-19.46-43.47-43.47c0-18.68,11.78-34.61,28.33-40.75c4.71-1.76,9.82-2.72,15.14-2.72
		C85.56,67.712,105.03,87.172,105.03,111.182"/>
	<path style="fill:#D6B71D;" d="M89.754,111.182c0-15.574-12.625-28.2-28.2-28.2c-15.574,0-28.2,12.626-28.2,28.2
		c0,15.575,12.625,28.2,28.2,28.2C77.129,139.382,89.754,126.757,89.754,111.182"/>
	<path style="fill:#FBE98E;" d="M61.55,67.712c-5.32,0-10.43,0.96-15.14,2.72l4.462,14.644c3.295-1.35,6.901-2.094,10.681-2.094
		c15.575,0,28.2,12.626,28.2,28.2c0,13.625-9.662,24.993-22.509,27.626l4.465,14.655c19.11-4.58,33.32-21.77,33.32-42.28
		C105.03,87.172,85.56,67.712,61.55,67.712"/>
	<path style="fill:#E3CE66;" d="M61.554,82.982c-3.78,0-7.387,0.744-10.681,2.094l16.373,53.732
		c12.846-2.633,22.509-14,22.509-27.626C89.754,95.608,77.129,82.982,61.554,82.982"/>
	<path style="fill:#A3D284;" d="M159.28,230.931c5.805,7.39,9.267,16.708,9.267,26.834c0-0.003,0-0.003,0-0.004
		C168.547,247.636,165.085,238.32,159.28,230.931 M159.24,230.88c0.012,0.015,0.023,0.029,0.035,0.044
		C159.263,230.909,159.252,230.895,159.24,230.88 M122.222,214.383c-0.001,0-0.002,0-0.003,0
		C122.221,214.383,122.221,214.383,122.222,214.383 M122.359,214.374c-0.009,0-0.017,0.001-0.026,0.001
		C122.342,214.375,122.35,214.374,122.359,214.374 M122.5,214.365c-0.016,0.001-0.031,0.002-0.047,0.003
		C122.47,214.367,122.485,214.366,122.5,214.365 M122.661,214.356c-0.028,0.001-0.056,0.003-0.084,0.005
		C122.606,214.359,122.632,214.358,122.661,214.356 M124.649,214.292c-0.652,0.006-1.302,0.027-1.947,0.062
		C123.348,214.319,123.996,214.299,124.649,214.292 M124.788,214.291c-0.045,0-0.091,0.001-0.136,0.001
		C124.697,214.292,124.743,214.292,124.788,214.291 M124.932,214.291c-0.046,0-0.093,0-0.139,0.001
		C124.84,214.291,124.885,214.291,124.932,214.291 M125.067,214.29c-0.045,0-0.09,0-0.135,0c0.045,0,0.093,0,0.138,0
		C125.069,214.29,125.069,214.29,125.067,214.29"/>
	<path style="fill:#E3CE66;" d="M168.545,258.238c0,0.001,0,0.004,0,0.005C168.545,258.241,168.545,258.241,168.545,258.238
		 M168.546,258.107c0,0.007,0,0.017,0,0.025C168.546,258.123,168.546,258.116,168.546,258.107 M168.547,257.967
		c0,0.015,0,0.03,0,0.044C168.547,257.997,168.547,257.982,168.547,257.967 M168.547,257.792c0,0.032,0,0.065,0,0.097
		C168.547,257.857,168.547,257.824,168.547,257.792"/>
	<path style="fill:#FBE98E;" d="M125.07,214.29c-0.045,0-0.093,0-0.138,0l0,0c-0.047,0-0.092,0-0.139,0.001
		c-0.002,0-0.003,0-0.005,0c-0.045,0-0.091,0.001-0.136,0.001c-0.001,0-0.002,0-0.003,0c-0.654,0.006-1.301,0.027-1.947,0.062
		c-0.014,0.001-0.027,0.002-0.041,0.002c-0.029,0.001-0.055,0.003-0.084,0.005c-0.026,0.001-0.051,0.003-0.076,0.004
		c-0.016,0.001-0.031,0.002-0.047,0.003c-0.031,0.002-0.064,0.004-0.095,0.006c-0.009,0-0.017,0.001-0.026,0.001
		c-0.037,0.002-0.074,0.005-0.111,0.007c-0.001,0-0.001,0-0.003,0c-4.297,0.279-8.429,1.184-12.292,2.627l4.463,14.648
		c3.295-1.349,6.901-2.094,10.682-2.094c15.575,0,28.2,12.625,28.2,28.2c0,13.625-9.663,24.993-22.509,27.626l4.464,14.65
		c18.96-4.544,33.096-21.501,33.317-41.797c0-0.001,0-0.004,0-0.005c0-0.035,0.001-0.072,0.001-0.107c0-0.007,0-0.017,0-0.025
		c0-0.031,0-0.064,0.001-0.095c0-0.015,0-0.03,0-0.044c0-0.026,0-0.052,0-0.078c0-0.032,0-0.065,0-0.097c0-0.009,0-0.02,0-0.029
		c0-10.125-3.462-19.442-9.267-26.832c-0.002-0.002-0.004-0.005-0.005-0.007c-0.012-0.015-0.023-0.029-0.035-0.044
		C151.278,220.778,138.93,214.292,125.07,214.29"/>
	<path style="fill:#E3CE66;" d="M125.073,229.565c-3.78,0-7.387,0.744-10.682,2.094l16.373,53.732
		c12.846-2.633,22.509-14.001,22.509-27.626C153.273,242.19,140.647,229.565,125.073,229.565"/>
	<path style="fill:#FFFFFF;" d="M341.863,338.688L341.863,338.688c1.736,4.697,2.685,9.776,2.685,15.076c0-0.003,0-0.003,0-0.004
		C344.548,348.461,343.599,343.384,341.863,338.688"/>
	<path style="fill:#ADE18E;" d="M336.829,329.028c2.061,2.972,3.759,6.213,5.034,9.661h0.001
		C340.588,335.241,338.889,332,336.829,329.028 M336.788,328.969c0.013,0.019,0.026,0.038,0.04,0.057
		C336.814,329.007,336.801,328.988,336.788,328.969 M336.747,328.91c0.002,0.002,0.003,0.004,0.004,0.006
		C336.75,328.914,336.748,328.913,336.747,328.91"/>
	<path style="fill:#A3D284;" d="M298.108,310.39c-0.01,0.001-0.019,0.001-0.029,0.002
		C298.089,310.391,298.098,310.391,298.108,310.39 M298.25,310.381c-0.021,0.001-0.041,0.003-0.061,0.004
		C298.209,310.383,298.23,310.382,298.25,310.381 M298.393,310.372c-0.028,0.002-0.056,0.003-0.084,0.005
		C298.338,310.375,298.364,310.374,298.393,310.372 M298.548,310.363c-0.038,0.002-0.076,0.004-0.113,0.007
		C298.473,310.367,298.511,310.364,298.548,310.363 M301.067,310.29c-0.841,0-1.676,0.024-2.506,0.072
		c0.829-0.047,1.667-0.071,2.509-0.072C301.069,310.29,301.069,310.29,301.067,310.29"/>
	<path style="fill:#E3CE66;" d="M344.545,354.238c0,0.001,0,0.004,0,0.005C344.545,354.241,344.545,354.241,344.545,354.238
		 M344.546,354.107c0,0.007,0,0.017,0,0.025C344.546,354.123,344.546,354.115,344.546,354.107 M344.547,353.967
		c0,0.015,0,0.03,0,0.045C344.547,353.997,344.547,353.982,344.547,353.967 M344.548,353.792c0,0.032,0,0.065,0,0.097
		C344.548,353.856,344.548,353.824,344.548,353.792"/>
	<path style="fill:#FBE98E;" d="M301.07,310.29c-0.841,0-1.679,0.024-2.509,0.072c-0.005,0-0.009,0-0.013,0.001
		c-0.038,0.002-0.076,0.004-0.113,0.007c-0.014,0.001-0.028,0.002-0.042,0.002c-0.029,0.002-0.055,0.003-0.084,0.005
		c-0.019,0.001-0.039,0.002-0.059,0.004c-0.02,0.001-0.041,0.003-0.061,0.004c-0.027,0.002-0.054,0.004-0.081,0.005
		c-0.01,0.001-0.019,0.001-0.029,0.002c-4.246,0.29-8.33,1.191-12.151,2.619l4.463,14.647c3.295-1.349,6.902-2.094,10.682-2.094
		c15.574,0,28.2,12.626,28.2,28.2c0,13.625-9.664,24.993-22.51,27.626l4.464,14.65c18.96-4.544,33.096-21.501,33.318-41.797
		c0-0.001,0-0.004,0-0.005c0-0.035,0.001-0.072,0.001-0.107c0-0.007,0-0.017,0-0.025c0-0.031,0-0.064,0.001-0.095
		c0-0.015,0-0.03,0-0.045c0-0.026,0-0.052,0-0.078c0-0.032,0-0.065,0-0.097c0-0.009,0-0.02,0-0.029
		c0-5.299-0.949-10.377-2.685-15.074c-1.275-3.448-2.973-6.688-5.034-9.661l-0.001-0.002c-0.013-0.019-0.026-0.038-0.04-0.057
		c-0.012-0.018-0.024-0.035-0.037-0.053c-0.002-0.002-0.003-0.004-0.004-0.006C328.889,317.655,315.837,310.292,301.07,310.29"/>
	<path style="fill:#E3CE66;" d="M301.073,325.565c-3.781,0-7.388,0.744-10.682,2.094l16.372,53.733
		c12.846-2.633,22.51-14.001,22.51-27.626C329.273,338.191,316.647,325.565,301.073,325.565"/>
	<path style="fill:#FFFFFF;" d="M423.947,291.597c5.805,7.39,9.268,16.708,9.268,26.834c0-0.003,0-0.003,0-0.004
		C433.214,308.302,429.751,298.986,423.947,291.597 M423.903,291.542c0.013,0.016,0.026,0.033,0.038,0.049
		C423.929,291.575,423.916,291.558,423.903,291.542"/>
	<path style="fill:#ADE18E;" d="M386.649,275.065c-0.011,0.001-0.022,0.002-0.033,0.002
		C386.628,275.067,386.638,275.066,386.649,275.065 M386.785,275.056c-0.02,0.001-0.04,0.003-0.06,0.004
		C386.744,275.059,386.766,275.058,386.785,275.056 M386.926,275.047c-0.028,0.002-0.055,0.004-0.082,0.005
		C386.871,275.051,386.899,275.049,386.926,275.047 M387.068,275.038c-0.034,0.002-0.067,0.004-0.1,0.006
		C387.001,275.042,387.035,275.04,387.068,275.038 M387.224,275.029c-0.043,0.002-0.084,0.005-0.127,0.007
		C387.14,275.034,387.18,275.031,387.224,275.029 M389.458,274.958c-0.749,0.005-1.493,0.028-2.233,0.071
		C387.965,274.987,388.709,274.963,389.458,274.958 M389.734,274.957c-0.092,0-0.184,0-0.276,0.001c0.092,0,0.186-0.001,0.278-0.001
		C389.736,274.957,389.736,274.957,389.734,274.957"/>
	<path style="fill:#E3CE66;" d="M433.212,318.905c0,0.001,0,0.004,0,0.005C433.212,318.908,433.212,318.908,433.212,318.905
		 M433.213,318.774c0,0.007,0,0.017,0,0.025C433.213,318.79,433.213,318.782,433.213,318.774 M433.214,318.634
		c0,0.015,0,0.03,0,0.044C433.214,318.664,433.214,318.649,433.214,318.634 M433.214,318.459c0,0.032,0,0.065,0,0.097
		C433.214,318.523,433.214,318.491,433.214,318.459"/>
	<path style="fill:#FBE98E;" d="M389.737,274.957c-0.092,0-0.186,0-0.278,0.001h-0.001c-0.749,0.005-1.493,0.028-2.233,0.071h-0.001
		c-0.043,0.002-0.084,0.005-0.127,0.007c-0.009,0-0.019,0.001-0.029,0.002c-0.033,0.002-0.067,0.004-0.1,0.006
		c-0.014,0.001-0.028,0.002-0.042,0.002c-0.027,0.002-0.055,0.004-0.082,0.005c-0.02,0.001-0.039,0.003-0.059,0.004
		c-0.019,0.001-0.041,0.003-0.06,0.004c-0.025,0.002-0.05,0.003-0.076,0.005c-0.012,0.001-0.021,0.002-0.033,0.002
		c-4.2,0.299-8.24,1.196-12.022,2.609l4.463,14.648c3.295-1.35,6.901-2.094,10.682-2.094c15.574,0,28.2,12.625,28.2,28.2
		c0,13.625-9.663,24.993-22.509,27.625l4.464,14.65c18.959-4.544,33.096-21.5,33.317-41.796c0-0.001,0-0.004,0-0.005
		c0-0.035,0.001-0.072,0.001-0.107c0-0.007,0-0.017,0-0.025c0-0.031,0-0.064,0.001-0.095c0-0.015,0-0.03,0-0.044
		c0-0.026,0-0.052,0-0.078c0-0.032,0-0.065,0-0.097c0-0.009,0-0.02,0-0.029c0-10.124-3.462-19.442-9.268-26.833
		c-0.002-0.002-0.003-0.004-0.005-0.006c-0.013-0.016-0.026-0.033-0.038-0.049C415.942,281.442,403.595,274.959,389.737,274.957"/>
	<path style="fill:#E3CE66;" d="M389.74,290.232c-3.781,0-7.387,0.744-10.682,2.094l16.373,53.732
		c12.846-2.633,22.509-14,22.509-27.625C417.94,302.857,405.314,290.232,389.74,290.232"/>
</g>
<g>
</g>
<g>
</g>
<g>
</g>
<g>
</g>
<g>
</g>
<g>
</g>
<g>
</g>
<g>
</g>
<g>
</g>
<g>
</g>
<g>
</g>
<g>
</g>
<g>
</g>
<g>
</g>
<g>
</g>
</svg>
