<?xml version="1.0" encoding="iso-8859-1"?>
<!-- Generator: Adobe Illustrator 19.0.0, SVG Export Plug-In . SVG Version: 6.00 Build 0)  -->
<svg version="1.1" id="Layer_1" xmlns="http://www.w3.org/2000/svg" xmlns:xlink="http://www.w3.org/1999/xlink" x="0px" y="0px"
	 viewBox="0 0 512 512" style="enable-background:new 0 0 512 512;" xml:space="preserve">
<g>
	<g>
		<path d="M494.933,82.39H17.067C7.943,82.39,0,89.717,0,99.67c0,0.006,0,0.013,0,0.019v312.852c0,9.194,7.509,17.068,17.053,17.068
			c0.007,0,0.013-0.001,0.019-0.001h477.854c0.007,0,0.014,0.001,0.019,0.001c9.375,0,17.053-7.68,17.053-17.068V99.69H512
			c0-0.007,0-0.013,0-0.019C512,89.627,503.962,82.39,494.933,82.39z M437.742,116.523L256,235.596L74.258,116.523H437.742z
			 M34.133,131.042l116.301,76.197L34.133,361.544V131.042z M51.301,395.476l127.746-169.49l67.599,44.289
			c5.681,3.722,13.026,3.722,18.706,0l67.599-44.289l127.746,169.49H51.301z M477.867,361.545L361.565,207.239l116.301-76.197
			V361.545z"/>
	</g>
</g>
<g>
</g>
<g>
</g>
<g>
</g>
<g>
</g>
<g>
</g>
<g>
</g>
<g>
</g>
<g>
</g>
<g>
</g>
<g>
</g>
<g>
</g>
<g>
</g>
<g>
</g>
<g>
</g>
<g>
</g>
</svg>
