<?xml version="1.0" encoding="iso-8859-1"?>
<!-- Generator: Adobe Illustrator 19.0.0, SVG Export Plug-In . SVG Version: 6.00 Build 0)  -->
<svg version="1.1" id="Layer_1" xmlns="http://www.w3.org/2000/svg" xmlns:xlink="http://www.w3.org/1999/xlink" x="0px" y="0px"
	 viewBox="0 0 508 508" style="enable-background:new 0 0 508 508;" xml:space="preserve">
<circle style="fill:#FD8469;" cx="254" cy="254" r="254"/>
<path style="fill:#FFFFFF;" d="M386,131.6H122c-9.6,0-17.2,7.6-17.2,17.2v213.6c0,9.6,7.6,17.2,17.2,17.2h264
	c9.6,0,17.2-7.6,17.2-17.2V148.8C402.8,139.2,395.2,131.6,386,131.6z"/>
<path style="fill:#4CDBC4;" d="M402.8,197.6v-48.8c0-9.6-7.6-17.2-17.2-17.2H122c-9.6,0-17.2,7.6-17.2,17.2v48.8H402.8z"/>
<g>
	<path style="fill:#324A5E;" d="M172,164.8L172,164.8c-6,0-10.8-4.8-10.8-10.8v-45.2c0-6,4.8-10.8,10.8-10.8l0,0
		c6,0,10.8,4.8,10.8,10.8V154C182.8,160,178,164.8,172,164.8z"/>
	<path style="fill:#324A5E;" d="M336,164.8L336,164.8c-6,0-10.8-4.8-10.8-10.8v-45.2c0-6,4.8-10.8,10.8-10.8l0,0
		c6,0,10.8,4.8,10.8,10.8V154C346.8,160,341.6,164.8,336,164.8z"/>
</g>
<g>
	<rect x="206.8" y="221.2" style="fill:#CED5E0;" width="30" height="30"/>
	<rect x="271.2" y="221.2" style="fill:#CED5E0;" width="30" height="30"/>
	<rect x="336" y="221.2" style="fill:#CED5E0;" width="30" height="30"/>
	<rect x="142" y="271.6" style="fill:#CED5E0;" width="30" height="30"/>
	<rect x="206.8" y="271.6" style="fill:#CED5E0;" width="30" height="30"/>
	<rect x="271.2" y="271.6" style="fill:#CED5E0;" width="30" height="30"/>
</g>
<rect x="336" y="271.6" style="fill:#FF7058;" width="30" height="30"/>
<g>
	<rect x="142" y="322" style="fill:#CED5E0;" width="30" height="30"/>
	<rect x="206.8" y="322" style="fill:#CED5E0;" width="30" height="30"/>
	<rect x="271.2" y="322" style="fill:#CED5E0;" width="30" height="30"/>
</g>
<g>
</g>
<g>
</g>
<g>
</g>
<g>
</g>
<g>
</g>
<g>
</g>
<g>
</g>
<g>
</g>
<g>
</g>
<g>
</g>
<g>
</g>
<g>
</g>
<g>
</g>
<g>
</g>
<g>
</g>
</svg>
