<?xml version="1.0" encoding="iso-8859-1"?>
<!-- Generator: Adobe Illustrator 19.0.0, SVG Export Plug-In . SVG Version: 6.00 Build 0)  -->
<svg version="1.1" id="Layer_1" xmlns="http://www.w3.org/2000/svg" xmlns:xlink="http://www.w3.org/1999/xlink" x="0px" y="0px"
	 viewBox="0 0 512 512" style="enable-background:new 0 0 512 512;" xml:space="preserve">
<circle style="fill:#1D81CE;" cx="256" cy="256" r="256"/>
<path style="fill:#126DB1;" d="M256,0c-11.317,0-22.461,0.744-33.391,2.167C348.216,18.53,445.217,125.933,445.217,256
	s-97.002,237.47-222.609,253.833C233.539,511.256,244.683,512,256,512c141.385,0,256-114.616,256-256S397.385,0,256,0z"/>
<path style="fill:#FCFCFC;" d="M166.957,256.092v9.537c0,0.884-0.717,1.601-1.601,1.601h-69.68c-3.663,0-6.633,2.97-6.633,6.633
	v64.697c0,3.663,2.97,6.633,6.633,6.633h69.68c0.884,0,1.601,0.717,1.601,1.601v148.405c0,0.674,0.421,1.28,1.053,1.512
	c23.623,8.652,48.877,13.913,75.174,15.211c0.915,0.046,1.686-0.691,1.686-1.608V346.793c0-0.884,0.717-1.601,1.601-1.601h114.202
	c3.663,0,6.633-2.97,6.633-6.633v-64.697c0-3.663-2.97-6.633-6.633-6.633H246.47c-0.884,0-1.601-0.717-1.601-1.601v-9.537
	c0-43.058,34.883-66.825,77.913-66.825h37.889c3.663,0,6.633-2.97,6.633-6.633v-64.697c0-3.663-2.97-6.633-6.633-6.633h-37.889
	C242.869,111.304,166.957,176.128,166.957,256.092z"/>
<g>
</g>
<g>
</g>
<g>
</g>
<g>
</g>
<g>
</g>
<g>
</g>
<g>
</g>
<g>
</g>
<g>
</g>
<g>
</g>
<g>
</g>
<g>
</g>
<g>
</g>
<g>
</g>
<g>
</g>
</svg>
