<?xml version="1.0" encoding="iso-8859-1"?>
<!-- Generator: Adobe Illustrator 19.0.0, SVG Export Plug-In . SVG Version: 6.00 Build 0)  -->
<svg version="1.1" id="Layer_1" xmlns="http://www.w3.org/2000/svg" xmlns:xlink="http://www.w3.org/1999/xlink" x="0px" y="0px"
	 viewBox="0 0 511.99 511.99" style="enable-background:new 0 0 511.99 511.99;" xml:space="preserve">
<rect x="12.39" y="160.682" transform="matrix(-0.9921 0.1251 -0.1251 -0.9921 495.4742 515.8377)" style="fill:#20A088;" width="438.301" height="225.59"/>
<rect x="73.67" y="99.188" style="fill:#32BEA6;" width="438.32" height="225.6"/>
<g>
	<path style="fill:#2C3E50;" d="M292.838,142.932c-17.072,0-30.912,13.84-30.912,30.912s13.84,30.912,30.912,30.912
		s30.912-13.84,30.912-30.912C323.75,156.772,309.91,142.932,292.838,142.932L292.838,142.932z"/>
	<path style="fill:#2C3E50;" d="M261.51,211.844c0,0-31.328,0.416-31.328,29.232s0,35.504,0,35.504s60.992,0,61.2,0L261.51,211.844
		L261.51,211.844z M291.366,276.596L291.366,276.596L291.366,276.596L291.366,276.596z"/>
	<path style="fill:#2C3E50;" d="M324.166,211.844l-29.872,64.752l0,0h61.2c0,0,0-6.688,0-35.504S324.166,211.844,324.166,211.844
		L324.166,211.844z"/>
</g>
<polygon style="fill:#FFFFFF;" points="292.838,213.412 272.742,213.412 292.838,257.908 312.934,213.412 "/>
<g>
</g>
<g>
</g>
<g>
</g>
<g>
</g>
<g>
</g>
<g>
</g>
<g>
</g>
<g>
</g>
<g>
</g>
<g>
</g>
<g>
</g>
<g>
</g>
<g>
</g>
<g>
</g>
<g>
</g>
</svg>
