<?xml version="1.0" encoding="UTF-8" standalone="no"?> <svg xmlns="http://www.w3.org/2000/svg" data-name="Layer 1" viewBox="0 0 32 32"><circle cx="16" cy="16" r="15.5" fill="#fdd402"/><path fill="#f2f2f2" d="M28.5,16a4.09427,4.09427,0,0,1-.02.5A12.48965,12.48965,0,0,1,7.52,25.18c-.24-.22-.48-.46-.7-.7a12.35711,12.35711,0,0,1-3.3-7.98A4.09427,4.09427,0,0,1,3.5,16a4.09327,4.09327,0,0,1,.02-.5,12.3574,12.3574,0,0,1,3.3-7.98c.22-.24.46-.48.7-.7a12.35748,12.35748,0,0,1,7.98-3.3A4.10621,4.10621,0,0,1,16,3.5a4.10621,4.10621,0,0,1,.5.02,12.35748,12.35748,0,0,1,7.98,3.3c.24.22.48.46.7.7a12.3574,12.3574,0,0,1,3.3,7.98A4.09327,4.09327,0,0,1,28.5,16Z"/><path fill="#e0e0e2" d="M8.52,25.18c-.24-.22-.48-.46-.7-.7a12.35711,12.35711,0,0,1-3.3-7.98A4.09427,4.09427,0,0,1,4.5,16a4.09327,4.09327,0,0,1,.02-.5,12.3574,12.3574,0,0,1,3.3-7.98c.22-.24.46-.48.7-.7a12.35748,12.35748,0,0,1,7.98-3.3A4.10621,4.10621,0,0,0,16,3.5a4.10621,4.10621,0,0,0-.5.02,12.35748,12.35748,0,0,0-7.98,3.3c-.24.22-.48.46-.7.7a12.3574,12.3574,0,0,0-3.3,7.98,4.09327,4.09327,0,0,0-.02.5,4.09427,4.09427,0,0,0,.02.5,12.35711,12.35711,0,0,0,3.3,7.98c.22.24.46.48.7.7A12.46,12.46,0,0,0,16,28.5c.16644,0,.32837-.01788.49329-.02435A12.45546,12.45546,0,0,1,8.52,25.18Z"/><path fill="#3c3b41" d="M6 16a.49514.49514 0 0 1-.5.5H2.52A4.09427 4.09427 0 0 1 2.5 16a4.09327 4.09327 0 0 1 .02-.5H5.5A.49511.49511 0 0 1 6 16zM29.5 16a4.09427 4.09427 0 0 1-.02.5H26.5a.5.5 0 0 1 0-1h2.98A4.09327 4.09327 0 0 1 29.5 16zM16 6a.49514.49514 0 0 1-.5-.5V2.52A4.09427 4.09427 0 0 1 16 2.5a4.09327 4.09327 0 0 1 .5.02V5.5A.49511.49511 0 0 1 16 6zM16 29.5a4.09427 4.09427 0 0 1-.5-.02V26.5a.5.5 0 0 1 1 0v2.98A4.09327 4.09327 0 0 1 16 29.5zM23.07107 8.92893a.49514.49514 0 0 1 0-.70711l2.10716-2.10716a4.09427 4.09427 0 0 1 .36771.3394 4.09327 4.09327 0 0 1 .3394.36771L23.77817 8.92893A.49511.49511 0 0 1 23.07107 8.92893zM6.45406 25.54594a4.09427 4.09427 0 0 1-.3394-.36771l2.10716-2.10716a.5.5 0 1 1 .70711.70711L6.82177 25.88534A4.09327 4.09327 0 0 1 6.45406 25.54594zM23.07107 23.07107a.49514.49514 0 0 1 .70711 0l2.10716 2.10716a6.25391 6.25391 0 0 1-.70711.70711l-2.10716-2.10716A.49511.49511 0 0 1 23.07107 23.07107zM6.45406 6.45406a4.09427 4.09427 0 0 1 .36771-.3394L8.92893 8.22183a.5.5 0 1 1-.70711.70711L6.11466 6.82177A4.09327 4.09327 0 0 1 6.45406 6.45406zM16 15.5a.49971.49971 0 0 1-.5-.5V8.5a.5.5 0 0 1 1 0V15A.49971.49971 0 0 1 16 15.5z"/><path fill="#fdd402" d="M16,.5A15.5,15.5,0,1,0,31.5,16,15.50053,15.50053,0,0,0,16,.5Zm0,28a12.46,12.46,0,0,1-8.48-3.32c-.24-.22-.48-.46-.7-.7a12.35711,12.35711,0,0,1-3.3-7.98A4.09427,4.09427,0,0,1,3.5,16a4.09327,4.09327,0,0,1,.02-.5,12.3574,12.3574,0,0,1,3.3-7.98c.22-.24.46-.48.7-.7a12.35748,12.35748,0,0,1,7.98-3.3A4.10621,4.10621,0,0,1,16,3.5a4.10621,4.10621,0,0,1,.5.02,12.35748,12.35748,0,0,1,7.98,3.3c.24.22.48.46.7.7a12.3574,12.3574,0,0,1,3.3,7.98,4.09327,4.09327,0,0,1,.02.5,4.09427,4.09427,0,0,1-.02.5A12.48814,12.48814,0,0,1,16,28.5Z"/><path fill="#fbbf13" d="M1.5,16A15.48938,15.48938,0,0,1,16.5.52527C16.33252.5199,16.16882.5,16,.5a15.5,15.5,0,0,0,0,31c.16882,0,.33252-.0199.5-.02527A15.48938,15.48938,0,0,1,1.5,16Z"/><path fill="#3c3b41" d="M15,16.5H11a.5.5,0,0,1,0-1h4a.5.5,0,0,1,0,1Z"/><circle cx="16" cy="16" r="1" fill="#fdd402"/><circle cx="24" cy="24" r="7.5" fill="#37b678"/><path fill="#00a653" d="M17.5,24a7.49442,7.49442,0,0,1,7-7.47479c-.166-.011-.33118-.02521-.5-.02521a7.5,7.5,0,0,0,0,15c.16882,0,.334-.01422.5-.02521A7.49442,7.49442,0,0,1,17.5,24Z"/><path fill="#00a653" d="M30,24.64516V23.35484l-1.05445-.18608a4.00594,4.00594,0,0,0-.56908-1.36914l.61527-.879-.9124-.9124-.879.61527a4.00594,4.00594,0,0,0-1.36914-.56908L25.64516,19H24.35484l-.18608,1.05445a4.00594,4.00594,0,0,0-1.36914.56908l-.879-.61527-.9124.9124.61527.879a4.00594,4.00594,0,0,0-.56908,1.36914L20,23.35484v1.29032l1.05445.18608a4.00594,4.00594,0,0,0,.56908,1.36914l-.61527.879.9124.9124.879-.61527a4.00594,4.00594,0,0,0,1.36914.56908L24.35484,29h1.29032l.18608-1.05445a4.00594,4.00594,0,0,0,1.36914-.56908l.879.61527.9124-.9124-.61527-.879a4.00594,4.00594,0,0,0,.56908-1.36914Z"/><path fill="#fff" d="M29,24.64516V23.35484l-1.05445-.18608a4.00594,4.00594,0,0,0-.56908-1.36914l.61527-.879-.9124-.9124-.879.61527a4.00594,4.00594,0,0,0-1.36914-.56908L24.64516,19H23.35484l-.18608,1.05445a4.00594,4.00594,0,0,0-1.36914.56908l-.879-.61527-.9124.9124.61527.879a4.00594,4.00594,0,0,0-.56908,1.36914L19,23.35484v1.29032l1.05445.18608a4.00594,4.00594,0,0,0,.56908,1.36914l-.61527.879.9124.9124.879-.61527a4.00594,4.00594,0,0,0,1.36914.56908L23.35484,29h1.29032l.18608-1.05445a4.00594,4.00594,0,0,0,1.36914-.56908l.879.61527.9124-.9124-.61527-.879a4.00594,4.00594,0,0,0,.56908-1.36914Z"/><circle cx="24" cy="24" r="1.5" fill="#37b678"/><path fill="#00a653" d="M24,25.5a1.486,1.486,0,0,0,.5-.0918,1.49152,1.49152,0,0,1,0-2.81641A1.49751,1.49751,0,1,0,24,25.5Z"/></svg>