<?xml version="1.0" encoding="iso-8859-1"?>
<!-- Generator: Adobe Illustrator 19.0.0, SVG Export Plug-In . SVG Version: 6.00 Build 0)  -->
<svg version="1.1" id="Layer_1" xmlns="http://www.w3.org/2000/svg" xmlns:xlink="http://www.w3.org/1999/xlink" x="0px" y="0px"
	 viewBox="0 0 496.2 496.2" style="enable-background:new 0 0 496.2 496.2;" xml:space="preserve">
<path style="fill:#25B7D3;" d="M496.2,248.1C496.2,111.1,385.1,0,248.1,0S0,111.1,0,248.1s111.1,248.1,248.1,248.1
	S496.2,385.1,496.2,248.1z"/>
<rect x="106.2" y="185.1" style="fill:#F2F2F0;" width="283.9" height="141.4"/>
<polygon style="fill:#DBDBD2;" points="415.1,349.5 415.1,337.2 402.4,337.2 402.4,324.9 390.1,324.9 390.1,312.2 106.1,312.2 
	106.1,324.9 93.8,324.9 93.8,337.2 81.1,337.2 81.1,349.5 67,349.5 67,362.2 429.2,362.2 429.2,349.5 "/>
<polygon style="fill:#F2F2F0;" points="277.3,312.2 218.9,312.2 179.8,362.2 316.4,362.2 "/>
<g>
	<path style="fill:#C9C9BC;" d="M149.7,186.7h-28.9c0,0-3.9,29.1-3.9,62.5s3.9,63.1,3.9,63.1h28.9c0,0,3.9-23.2,3.9-63.1
		C153.7,209.2,149.7,186.7,149.7,186.7z"/>
	<path style="fill:#C9C9BC;" d="M220.2,186.7h-28.9c0,0-3.9,29.1-3.9,62.5s3.9,63.1,3.9,63.1h28.9c0,0,3.9-23.2,3.9-63.1
		C224.1,209.2,220.2,186.7,220.2,186.7z"/>
	<path style="fill:#C9C9BC;" d="M375.3,186.7h-28.9c0,0-3.9,29.1-3.9,62.5s3.9,63.1,3.9,63.1h28.9c0,0,3.9-23.2,3.9-63.1
		C379.2,209.2,375.3,186.7,375.3,186.7z"/>
</g>
<path style="fill:#DBDBD5;" d="M346.5,186.7c0,0-3.9,29.1-3.9,62.5s3.9,63.1,3.9,63.1h14.6V186.7H346.5z"/>
<path style="fill:#C9C9BC;" d="M304.8,186.7h-28.9c0,0-3.9,29.1-3.9,62.5s3.9,63.1,3.9,63.1h28.9c0,0,3.9-23.2,3.9-63.1
	C308.7,209.2,304.8,186.7,304.8,186.7z"/>
<g>
	<path style="fill:#DBDBD5;" d="M276,186.7c0,0-3.9,29.1-3.9,62.5s3.9,63.1,3.9,63.1h14.6V186.7H276z"/>
	<path style="fill:#DBDBD5;" d="M191.3,186.7c0,0-3.9,29.1-3.9,62.5s3.9,63.1,3.9,63.1h14.6V186.7H191.3z"/>
	<path style="fill:#DBDBD5;" d="M121,186.7c0,0-3.9,29.1-3.9,62.5s3.9,63.1,3.9,63.1h14.6V186.7H121z"/>
</g>
<path style="fill:#D1D1C7;" d="M259.8,312.1h-23.4v-33.2c0-4.3,1.5-6,5.9-6h12c4.3,0,5.5,1.7,5.5,6V312.1z"/>
<polygon style="fill:#EFEFE8;" points="410,150.6 246.4,86 86.2,150.6 86.2,188.8 410,188.8 "/>
<g>
	<path style="fill:#C9C9BC;" d="M266.7,120.8c0,3.6-4,6.1-4.3,5.8c-3-3.5-8.2-6.1-13.4-6.1c-5.3,0-8.6,2.4-8.6,6
		c0,4.1,4.4,5.2,10.5,6.6c7.3,1.6,16.9,4.5,16.9,14.9c0,8-5.6,13.6-14.8,15v3.1c0,3.7-1.4,5.4-4.6,5.4H248c-3.3,0-4.5-1.7-4.5-5.4
		v-3c-9.6-1-15.1-5.4-15.1-9.8c0-3.4,3.8-5.9,4.1-5.6c3,3.6,8.9,6.7,15.1,6.7c5.6,0,8.9-2.4,8.9-6c0-4.4-4.9-5.6-10.7-6.9
		c-7-1.5-16.2-4.3-16.2-14.8c0-7.6,5.4-13.1,14-14.7v-2.9c0-3.6,1.3-5.4,4.5-5.4h0.5c3.3,0,4.5,1.7,4.5,5.4v2.7
		C261.9,112.8,266.7,116.8,266.7,120.8z"/>
	<rect x="86.2" y="179.1" style="fill:#C9C9BC;" width="323.8" height="9.7"/>
</g>
<g>
</g>
<g>
</g>
<g>
</g>
<g>
</g>
<g>
</g>
<g>
</g>
<g>
</g>
<g>
</g>
<g>
</g>
<g>
</g>
<g>
</g>
<g>
</g>
<g>
</g>
<g>
</g>
<g>
</g>
</svg>
