<?xml version="1.0" encoding="iso-8859-1"?>
<!-- Generator: Adobe Illustrator 19.0.0, SVG Export Plug-In . SVG Version: 6.00 Build 0)  -->
<svg version="1.1" id="Layer_1" xmlns="http://www.w3.org/2000/svg" xmlns:xlink="http://www.w3.org/1999/xlink" x="0px" y="0px"
	 viewBox="0 0 508 508" style="enable-background:new 0 0 508 508;" xml:space="preserve">
<circle style="fill:#FFD05B;" cx="254" cy="254" r="254"/>
<rect x="162" y="166" style="fill:#324A5E;" width="184.4" height="20.8"/>
<path style="fill:#FF7058;" d="M362,186.8H146c-5.6,0-10.4,4.8-10.4,10.4v211.6c0,5.6,4.8,10.4,10.4,10.4h216
	c5.6,0,10.4-4.8,10.4-10.4V197.2C372.4,191.6,367.6,186.8,362,186.8z"/>
<rect x="166.4" y="217.2" style="fill:#84DBFF;" width="175.2" height="43.6"/>
<g>
	<rect x="166.4" y="278" style="fill:#E6E9EE;" width="25.2" height="25.2"/>
	<rect x="241.6" y="278" style="fill:#E6E9EE;" width="25.2" height="25.2"/>
	<rect x="316.4" y="278" style="fill:#E6E9EE;" width="25.2" height="25.2"/>
	<rect x="166.4" y="323.2" style="fill:#E6E9EE;" width="25.2" height="25.2"/>
	<rect x="241.6" y="323.2" style="fill:#E6E9EE;" width="25.2" height="25.2"/>
	<rect x="316.4" y="323.2" style="fill:#E6E9EE;" width="25.2" height="25.2"/>
	<rect x="166.4" y="368.4" style="fill:#E6E9EE;" width="25.2" height="25.2"/>
	<rect x="241.6" y="368.4" style="fill:#E6E9EE;" width="25.2" height="25.2"/>
	<rect x="316.4" y="368.4" style="fill:#E6E9EE;" width="25.2" height="25.2"/>
</g>
<polygon style="fill:#FFFFFF;" points="284,77.6 179.6,77.6 179.6,186.8 328.4,186.8 328.4,121.6 "/>
<polygon style="fill:#CED5E0;" points="284,121.6 328.4,121.6 284,77.6 "/>
<g>
	<rect x="199.2" y="135.6" style="fill:#4CDBC4;" width="106.8" height="7.2"/>
	<rect x="199.2" y="158.8" style="fill:#4CDBC4;" width="106.8" height="7.2"/>
</g>
<g>
</g>
<g>
</g>
<g>
</g>
<g>
</g>
<g>
</g>
<g>
</g>
<g>
</g>
<g>
</g>
<g>
</g>
<g>
</g>
<g>
</g>
<g>
</g>
<g>
</g>
<g>
</g>
<g>
</g>
</svg>
