<?xml version="1.0" encoding="iso-8859-1"?>
<!-- Generator: Adobe Illustrator 19.0.0, SVG Export Plug-In . SVG Version: 6.00 Build 0)  -->
<svg version="1.1" id="Layer_1" xmlns="http://www.w3.org/2000/svg" xmlns:xlink="http://www.w3.org/1999/xlink" x="0px" y="0px"
	 viewBox="0 0 512 512" style="enable-background:new 0 0 512 512;" xml:space="preserve">
<circle style="fill:#E16B5A;" cx="256" cy="256" r="256"/>
<path style="fill:#D16354;" d="M509.256,293.332L430.208,98.32c-8.26-16.432-24.604-26.4-43.956-26.572L128,72
	c-32.5,0.252-52,20.764-52,52v2.048v2.048V324v2.048v2.056l6.584,25.356L93.236,396l31.62,79.86C163.22,498.788,208.064,512,256,512
	C384.7,512,491.184,417.016,509.256,293.332z"/>
<path style="fill:#FFC066;" d="M424,392H92l-16-68V124c0-31.236,19.5-51.752,52-52l258.252-0.252C414.264,72,436,92.764,436,124v200
	L424,392z"/>
<path style="fill:#F2B661;" d="M386.252,71.748l-15.724,0.016C398.408,72.152,420,92.868,420,124v200l-12,68h16l12-68V124
	C436,92.764,414.264,72,386.252,71.748z"/>
<g>
	<path style="fill:#263740;" d="M360,128c0,6.6-5.4,12-12,12H168c-6.6,0-12-5.4-12-12v-8c0-6.6,5.4-12,12-12h180c6.6,0,12,5.4,12,12
		V128z"/>
	<rect x="100" y="164" style="fill:#263740;" width="312" height="160"/>
</g>
<rect x="108" y="172" style="fill:#B2E3FF;" width="296" height="144"/>
<path style="fill:#FFFFFF;" d="M164.004,352c0,8.844-7.156,16-16.004,16c-8.84,0-15.996-7.156-15.996-16c0-8.84,7.156-16,15.996-16
	C156.848,336,164.004,343.16,164.004,352z"/>
<path style="fill:#263740;" d="M148,372c-11.024,0-19.996-8.972-19.996-20s8.972-20,19.996-20c11.028,0,20.004,8.972,20.004,20
	S159.028,372,148,372z M148,340c-6.616,0-11.996,5.384-11.996,12s5.38,12,11.996,12c6.62,0,12.004-5.384,12.004-12
	S154.62,340,148,340z"/>
<g>
	<path style="fill:#66401E;" d="M104,392v11.928C104,416,113.852,416,128,416c14.14,0,24,0,24-12.728V392H104z"/>
	<path style="fill:#66401E;" d="M360,392v11.928C360,416,369.852,416,384,416c14.14,0,24,0,24-12.728V392H360z"/>
</g>
<g>
	<path style="fill:#F5F5F5;" d="M132,212c-1.024,0-2.048-0.392-2.828-1.172c-1.564-1.564-1.564-4.092,0-5.656l20-20
		c1.564-1.564,4.092-1.564,5.656,0s1.564,4.092,0,5.656l-20,20C134.048,211.608,133.024,212,132,212z"/>
	<path style="fill:#F5F5F5;" d="M132,244c-1.024,0-2.048-0.392-2.828-1.172c-1.564-1.564-1.564-4.092,0-5.656l52-52
		c1.564-1.564,4.092-1.564,5.656,0s1.564,4.092,0,5.656l-52,52C134.048,243.608,133.024,244,132,244z"/>
	<path style="fill:#F5F5F5;" d="M276,212c-1.024,0-2.048-0.392-2.828-1.172c-1.564-1.564-1.564-4.092,0-5.656l16-16
		c1.564-1.564,4.092-1.564,5.656,0s1.564,4.092,0,5.656l-16,16C278.048,211.608,277.024,212,276,212z"/>
</g>
<path style="fill:#FFFFFF;" d="M384,352c0,8.844-7.156,16-16.004,16c-8.84,0-15.996-7.156-15.996-16c0-8.84,7.156-16,15.996-16
	C376.844,336,384,343.16,384,352z"/>
<g>
	<path style="fill:#263740;" d="M367.996,372C356.968,372,348,363.028,348,352s8.968-20,19.996-20c11.032,0,20.004,8.972,20.004,20
		S379.028,372,367.996,372z M367.996,340c-6.612,0-11.996,5.384-11.996,12s5.384,12,11.996,12c6.616,0,12.004-5.384,12.004-12
		S374.612,340,367.996,340z"/>
	<rect x="252" y="172" style="fill:#263740;" width="8" height="144"/>
</g>
<path style="fill:#CCCCCC;" d="M196,384c-11.028,0-20-8.972-20-20v-16c0-11.028,8.972-20,20-20h120c11.028,0,20,8.972,20,20v16
	c0,11.028-8.972,20-20,20H196z"/>
<path style="fill:#263740;" d="M328,364c0,6.6-5.4,12-12,12H196c-6.6,0-12-5.4-12-12v-16c0-6.6,5.4-12,12-12h120c6.6,0,12,5.4,12,12
	V364z"/>
<g>
	<path style="fill:#CCCCCC;" d="M256,368c-6.616,0-12-5.384-12-12s5.384-12,12-12s12,5.384,12,12S262.616,368,256,368z M256,352
		c-2.204,0-4,1.792-4,4s1.796,4,4,4c2.208,0,4-1.792,4-4S258.208,352,256,352z"/>
	<rect x="184" y="352" style="fill:#CCCCCC;" width="64" height="8"/>
	<rect x="264" y="352" style="fill:#CCCCCC;" width="64" height="8"/>
</g>
<g>
	<path style="fill:#263740;" d="M295.996,324c-1.74,0-3.34-1.144-3.844-2.904c-0.604-2.12,0.624-4.336,2.752-4.944l51.98-14.852
		l-2.676-8.036c-0.7-2.096,0.432-4.364,2.528-5.06c2.108-0.708,4.36,0.432,5.06,2.528l4,12c0.348,1.036,0.252,2.168-0.252,3.132
		c-0.512,0.964-1.392,1.68-2.44,1.98l-56,16C296.732,323.948,296.364,324,295.996,324z"/>
	<path style="fill:#263740;" d="M315.996,304c-1.74,0-3.34-1.144-3.844-2.904c-0.604-2.12,0.624-4.336,2.752-4.944l56-16
		c2.104-0.58,4.336,0.62,4.944,2.752c0.604,2.12-0.624,4.336-2.752,4.944l-56,16C316.732,303.948,316.364,304,315.996,304z"/>
	<path style="fill:#263740;" d="M136,324c-1.74,0-3.34-1.144-3.844-2.904c-0.608-2.12,0.624-4.336,2.748-4.944l51.984-14.852
		l-2.68-8.036c-0.7-2.096,0.432-4.364,2.528-5.06c2.104-0.708,4.364,0.432,5.06,2.528l4,12c0.344,1.036,0.252,2.168-0.256,3.132
		s-1.388,1.68-2.436,1.98l-56,16C136.732,323.948,136.36,324,136,324z"/>
	<path style="fill:#263740;" d="M156,304c-1.74,0-3.34-1.144-3.844-2.904c-0.608-2.12,0.624-4.336,2.748-4.944l56-16
		c2.124-0.584,4.34,0.624,4.944,2.752c0.608,2.12-0.624,4.336-2.748,4.944l-56,16C156.732,303.948,156.36,304,156,304z"/>
</g>
<g>
</g>
<g>
</g>
<g>
</g>
<g>
</g>
<g>
</g>
<g>
</g>
<g>
</g>
<g>
</g>
<g>
</g>
<g>
</g>
<g>
</g>
<g>
</g>
<g>
</g>
<g>
</g>
<g>
</g>
</svg>
