<?xml version="1.0" encoding="iso-8859-1"?>
<!-- Generator: Adobe Illustrator 19.0.0, SVG Export Plug-In . SVG Version: 6.00 Build 0)  -->
<svg version="1.1" id="Layer_1" xmlns="http://www.w3.org/2000/svg" xmlns:xlink="http://www.w3.org/1999/xlink" x="0px" y="0px"
	 viewBox="0 0 505 505" style="enable-background:new 0 0 505 505;" xml:space="preserve">
<circle style="fill:#324A5E;" cx="252.5" cy="252.5" r="252.5"/>
<polygon style="fill:#FFFFFF;" points="179.4,418.9 179.4,365.3 125.9,365.3 125.9,86.1 379.1,86.1 379.1,418.9 "/>
<polygon style="fill:#E6E9EE;" points="179.4,418.9 125.9,365.3 179.4,365.3 "/>
<path style="fill:#54C0EB;" d="M303,319.8h-64.9c-7.5,0-13.7-6.1-13.7-13.7V281h-7.1v25.1c0,11.4,9.3,20.8,20.8,20.8H303
	c7.5,0,13.7,6.1,13.7,13.7v25.9h7.1v-25.9C323.8,329.2,314.5,319.8,303,319.8z"/>
<path style="fill:#84DBFF;" d="M320.1,380.8L320.1,380.8c-9.3,0-16.8-7.5-16.8-16.8l0,0c0-9.3,7.5-16.8,16.8-16.8l0,0
	c9.3,0,16.8,7.5,16.8,16.8l0,0C336.9,373.3,329.4,380.8,320.1,380.8z"/>
<path style="fill:#2C9984;" d="M261.7,179.8c7.5,0,13.7,6.1,13.7,13.7v28.1h7.1v-28.1c0-11.4-9.3-20.8-20.8-20.8h-64.9
	c-7.5,0-13.7-6.1-13.7-13.7v-25.9H176V159c0,11.4,9.3,20.8,20.8,20.8H261.7z"/>
<path style="fill:#4CDBC4;" d="M179.7,118.9L179.7,118.9c9.3,0,16.8,7.5,16.8,16.8l0,0c0,9.3-7.5,16.8-16.8,16.8l0,0
	c-9.3,0-16.8-7.5-16.8-16.8l0,0C162.9,126.4,170.4,118.9,179.7,118.9z"/>
<path style="fill:#FF7058;" d="M303.8,249.8c0,29.8-24.1,53.9-53.9,53.9S196,279.6,196,249.8s24.1-53.9,53.9-53.9v53.9L303.8,249.8
	L303.8,249.8z"/>
<path style="fill:#FFD05B;" d="M303.8,249.8h-53.9v-53.9C279.7,195.9,303.8,220,303.8,249.8z"/>
<g>
</g>
<g>
</g>
<g>
</g>
<g>
</g>
<g>
</g>
<g>
</g>
<g>
</g>
<g>
</g>
<g>
</g>
<g>
</g>
<g>
</g>
<g>
</g>
<g>
</g>
<g>
</g>
<g>
</g>
</svg>
