<?xml version="1.0" encoding="iso-8859-1"?>
<!-- Generator: Adobe Illustrator 19.0.0, SVG Export Plug-In . SVG Version: 6.00 Build 0)  -->
<svg version="1.1" id="Layer_1" xmlns="http://www.w3.org/2000/svg" xmlns:xlink="http://www.w3.org/1999/xlink" x="0px" y="0px"
	 viewBox="0 0 512 512" style="enable-background:new 0 0 512 512;" xml:space="preserve">
<circle style="fill:#4AB8A1;" cx="256" cy="256" r="256"/>
<path style="fill:#3AA68F;" d="M487.084,366.256l-74.376-186.14C404.976,159.02,384.344,144,360.764,144H151.24
	C121.296,144,96,168.176,96,198.324v114.628c0,7.852,1.748,15.32,4.808,22.108l63.976,160.14
	c28.344,10.816,59.076,16.792,91.216,16.792C357.904,512,445.888,452.444,487.084,366.256z"/>
<path style="fill:#359984;" d="M368.764,152H159.24c-29.944,0-57.54,24.176-57.54,54.324v114.632
	C101.7,351.1,129.292,376,159.24,376h209.528c29.94,0,52.932-24.9,52.932-55.044V206.324C421.7,176.176,398.708,152,368.764,152z"/>
<path style="fill:#406A80;" d="M360.764,144H151.24c-29.944,0-57.54,24.176-57.54,54.324v114.632C93.7,343.1,121.292,368,151.24,368
	h209.528c29.94,0,52.932-24.9,52.932-55.044V198.324C413.7,168.176,390.708,144,360.764,144z"/>
<g>
	<rect x="93.7" y="200" style="fill:#FFFFFF;" width="320" height="28"/>
	<polygon style="fill:#FFFFFF;" points="246.052,200 96,200 96,228 234.74,228 	"/>
	<rect x="129.7" y="264" style="fill:#FFFFFF;" width="60" height="12"/>
	<rect x="129.7" y="284" style="fill:#FFFFFF;" width="116" height="20"/>
	<polygon style="fill:#FFFFFF;" points="212.116,284 132,284 132,304 204.032,304 	"/>
</g>
<g>
</g>
<g>
</g>
<g>
</g>
<g>
</g>
<g>
</g>
<g>
</g>
<g>
</g>
<g>
</g>
<g>
</g>
<g>
</g>
<g>
</g>
<g>
</g>
<g>
</g>
<g>
</g>
<g>
</g>
</svg>
