<?xml version="1.0" encoding="iso-8859-1"?>
<!-- Generator: Adobe Illustrator 19.0.0, SVG Export Plug-In . SVG Version: 6.00 Build 0)  -->
<svg version="1.1" id="Layer_1" xmlns="http://www.w3.org/2000/svg" xmlns:xlink="http://www.w3.org/1999/xlink" x="0px" y="0px"
	 viewBox="0 0 297 297" style="enable-background:new 0 0 297 297;" xml:space="preserve">
<g>
	<g>
		<circle style="fill:#79302A;" cx="148.5" cy="148.5" r="148.5"/>
	</g>
	<path style="fill:#68201C;" d="M54.192,193.475l103.249,103.249c65.151-3.87,118.997-49.735,134.829-110.909L177.061,70.606
		L54.192,193.475z"/>
	<g>
		<g>
			<path style="fill:#87939B;" d="M128.258,219.534c-7.635,0-12.606-0.493-13.228-0.559c-2.472-0.26-4.265-2.474-4.006-4.945
				c0.259-2.471,2.482-4.265,4.942-4.006l0,0c0.464,0.048,46.596,4.561,79.67-15.854c23.195-14.316,41.317-13.479,52.435-10.257
				c12.301,3.565,18.971,10.745,19.249,11.049c1.678,1.834,1.551,4.68-0.283,6.357c-1.833,1.677-4.68,1.552-6.357-0.283
				c-0.867-0.928-22.037-22.835-60.316,0.792C175.678,217.066,145.323,219.534,128.258,219.534z"/>
		</g>
	</g>
	<g>
		<g>
			<circle style="fill:#E3E5E4;" cx="115.5" cy="132" r="82.5"/>
		</g>
		<g>
			<path style="fill:#D0D5D9;" d="M115.5,219c-47.972,0-87-39.028-87-87s39.028-87,87-87s87,39.028,87,87S163.472,219,115.5,219z
				 M115.5,54c-43.01,0-78,34.99-78,78s34.99,78,78,78s78-34.99,78-78S158.51,54,115.5,54z"/>
		</g>
	</g>
	<g>
		<g>
			<path style="fill:#D0D5D9;" d="M198,132c0-45.563-36.936-82.5-82.5-82.5v165C161.064,214.5,198,177.563,198,132z"/>
		</g>
		<g>
			<path style="fill:#A1A5A8;" d="M202.5,132c0-47.972-39.028-87-87-87v9c43.01,0,78,34.99,78,78s-34.99,78-78,78v9
				C163.472,219,202.5,179.972,202.5,132z"/>
		</g>
	</g>
	<g>
		<circle style="fill:#404447;" cx="72.632" cy="107.25" r="16.5"/>
	</g>
	<g>
		<circle style="fill:#2C3033;" cx="158.368" cy="156.75" r="16.5"/>
	</g>
	<g>
		<circle style="fill:#404447;" cx="72.632" cy="156.75" r="16.5"/>
	</g>
	<g>
		<circle style="fill:#2C3033;" cx="158.368" cy="107.25" r="16.5"/>
	</g>
	<g>
		<circle style="fill:#404447;" cx="115.5" cy="82.5" r="16.5"/>
	</g>
	<g>
		<circle style="fill:#404447;" cx="115.5" cy="181.5" r="16.5"/>
	</g>
	<g>
		<path style="fill:#2C3033;" d="M132,181.5c0-9.113-7.387-16.5-16.5-16.5v33C124.613,198,132,190.613,132,181.5z"/>
	</g>
	<g>
		<path style="fill:#2C3033;" d="M115.5,66c-0.056,0-0.11,0.008-0.166,0.008v32.983C115.39,98.992,115.444,99,115.5,99
			c9.113,0,16.5-7.387,16.5-16.5S124.613,66,115.5,66z"/>
	</g>
	<g>
		<g>
			<path style="fill:#404447;" d="M115.5,148.5c-9.098,0-16.5-7.402-16.5-16.5s7.402-16.5,16.5-16.5S132,122.902,132,132
				S124.598,148.5,115.5,148.5z M115.5,121.5c-5.79,0-10.5,4.71-10.5,10.5c0,5.79,4.71,10.5,10.5,10.5S126,137.79,126,132
				S121.29,121.5,115.5,121.5z"/>
		</g>
	</g>
	<g>
		<g>
			<path style="fill:#2C3033;" d="M132,132c0-9.098-7.402-16.5-16.5-16.5v6c5.79,0,10.5,4.71,10.5,10.5c0,5.79-4.71,10.5-10.5,10.5
				v6C124.598,148.5,132,141.098,132,132z"/>
		</g>
	</g>
</g>
<g>
</g>
<g>
</g>
<g>
</g>
<g>
</g>
<g>
</g>
<g>
</g>
<g>
</g>
<g>
</g>
<g>
</g>
<g>
</g>
<g>
</g>
<g>
</g>
<g>
</g>
<g>
</g>
<g>
</g>
</svg>
