<?xml version="1.0" encoding="iso-8859-1"?>
<!-- Generator: Adobe Illustrator 19.0.0, SVG Export Plug-In . SVG Version: 6.00 Build 0)  -->
<svg version="1.1" id="Layer_1" xmlns="http://www.w3.org/2000/svg" xmlns:xlink="http://www.w3.org/1999/xlink" x="0px" y="0px"
	 viewBox="0 0 512 512" style="enable-background:new 0 0 512 512;" xml:space="preserve">
<g>
	<circle style="fill:#FEE187;" cx="256" cy="256" r="256"/>
	<circle style="fill:#FEE187;" cx="256" cy="256" r="256"/>
</g>
<g>
	<path style="fill:#FFC61B;" d="M276.97,511.14c130.212-10.559,232.865-118.551,234.977-250.98L395.609,145.318l-52.336,33.671
		l7.482,7.482l-87.126,52.012L88.319,278.919l23.961,49.916l-7.702,6.703L276.97,511.14z"/>
	<polygon style="fill:#FFC61B;" points="315.763,135.327 302.545,114.352 294.357,85.333 240.674,89.347 315.763,162.047 	"/>
</g>
<path style="fill:#930000;" d="M322.801,175.84c-2.167,0-4.184-1.37-4.906-3.539L290.63,90.505h-46.697
	c-2.857,0-5.172-2.315-5.172-5.172s2.315-5.172,5.172-5.172h50.424c2.226,0,4.203,1.424,4.906,3.537l28.444,85.333
	c0.903,2.708-0.56,5.639-3.27,6.54C323.894,175.754,323.343,175.84,322.801,175.84z"/>
<path style="fill:#C92F00;" d="M286.689,341.333h80.843c3.986,0,7.34-2.979,7.811-6.937l21.83-183.377
	c0.557-4.68-3.098-8.797-7.811-8.797H264.857c-4.713,0-8.37,4.117-7.811,8.797l21.83,183.377
	C279.349,338.354,282.705,341.333,286.689,341.333z"/>
<path style="fill:#930000;" d="M262.465,196.525l16.413,137.871c0.471,3.956,3.827,6.937,7.811,6.937h80.844
	c3.986,0,7.34-2.981,7.811-6.937l16.413-137.871H262.465z"/>
<path style="fill:#E09112;" d="M99.556,256c0-47.128,38.205-85.333,85.333-85.333s85.333,38.205,85.333,85.333H99.556z"/>
<path style="fill:#FF5419;" d="M184.889,170.667c-0.433,0-0.86,0.026-1.293,0.033V256h86.626
	C270.222,208.872,232.017,170.667,184.889,170.667z"/>
<path style="fill:#E09112;" d="M96.97,305.457c0,7.127,0.855,14.053,2.462,20.685c2.232,9.218,10.464,15.725,19.947,15.725h131.019
	c9.483,0,17.715-6.508,19.947-15.725c1.607-6.632,2.462-13.559,2.462-20.685H96.97z"/>
<path style="fill:#FF5419;" d="M183.596,305.457v36.411h66.801c9.483,0,17.715-6.508,19.947-15.725
	c1.607-6.632,2.462-13.559,2.462-20.685L183.596,305.457L183.596,305.457z"/>
<path style="fill:#B54324;" d="M99.556,284.444h170.667c7.854,0,14.222-6.368,14.222-14.222l0,0c0-7.854-6.368-14.222-14.222-14.222
	H99.556c-7.854,0-14.222,6.368-14.222,14.222l0,0C85.333,278.076,91.701,284.444,99.556,284.444z"/>
<path style="fill:#C92F00;" d="M270.222,256h-86.626v28.444h86.626c7.854,0,14.222-6.368,14.222-14.222
	C284.444,262.368,278.076,256,270.222,256z"/>
<path style="fill:#D35933;" d="M99.556,312.889h170.667c7.854,0,14.222-6.368,14.222-14.222l0,0c0-7.854-6.368-14.222-14.222-14.222
	H99.556c-7.854,0-14.222,6.368-14.222,14.222l0,0C85.333,306.521,91.701,312.889,99.556,312.889z"/>
<path style="fill:#B54324;" d="M270.222,284.444h-86.626v28.444h86.626c7.854,0,14.222-6.368,14.222-14.222
	S278.076,284.444,270.222,284.444z"/>
<g>
</g>
<g>
</g>
<g>
</g>
<g>
</g>
<g>
</g>
<g>
</g>
<g>
</g>
<g>
</g>
<g>
</g>
<g>
</g>
<g>
</g>
<g>
</g>
<g>
</g>
<g>
</g>
<g>
</g>
</svg>
