<?xml version="1.0" encoding="iso-8859-1"?>
<!-- Generator: Adobe Illustrator 19.0.0, SVG Export Plug-In . SVG Version: 6.00 Build 0)  -->
<svg version="1.1" id="Layer_1" xmlns="http://www.w3.org/2000/svg" xmlns:xlink="http://www.w3.org/1999/xlink" x="0px" y="0px"
	 viewBox="0 0 496.2 496.2" style="enable-background:new 0 0 496.2 496.2;" xml:space="preserve">
<path style="fill:#25B7D3;" d="M496.2,248.1C496.2,111.1,385.1,0,248.1,0S0,111.1,0,248.1s111.1,248.1,248.1,248.1
	S496.2,385.1,496.2,248.1z"/>
<path style="fill:#B7CAC4;" d="M412.6,177.8L250.4,96.7l-160,81.1c0,2.2,0,15.6,0,17.7l162.2,86.7l160-86.7
	C412.6,193.4,412.6,180,412.6,177.8z"/>
<path style="fill:#E1E1E1;" d="M412.6,186.9l-162.2-81.1l-160,81.1c0,2.2,0,15.6,0,17.7l162.2,86.7l160-86.7
	C412.6,202.5,412.6,189.1,412.6,186.9z"/>
<polygon style="fill:#B7CAC4;" points="90.3,203.4 412.3,203.4 393.9,257 253.8,292 201,286.9 "/>
<rect x="63.696" y="175.858" transform="matrix(-0.4675 -0.884 0.884 -0.4675 73.9829 504.6817)" style="fill:#B9EFBD;" width="250.602" height="108.401"/>
<g>
	<path style="fill:#71AD71;" d="M202,360.1l-113.2-214l87.1-46.1l113.2,214L202,360.1z M285.8,313.3L174.7,103.1l-82.6,43.7
		L203.3,357L285.8,313.3z"/>
	<path style="fill:#71AD71;" d="M208.9,267.8c20.9-11,28.9-36.9,17.8-57.8c-11-20.9-36.9-28.9-57.8-17.8
		c-20.8,11.1-28.8,36.9-17.8,57.8C162.2,270.9,188.1,278.9,208.9,267.8z"/>
</g>
<path style="fill:#63BD6E;" d="M211.2,217c-1.4-1.8-3.2-2.9-5.4-3.2s-4.3,0.1-6.5,1.2c-2.1,1.1-3.6,2.6-4.6,4.3
	c-0.9,1.7-1.2,4-0.8,6.8L211.2,217z M169.9,242.8c1.3,1.8,3.3,3,5.8,3.3c2.5,0.4,5.1-0.2,7.7-1.6c2.3-1.2,3.8-2.6,4.7-4.3
	c0.9-1.6,1.1-4.1,0.7-7.5L169.9,242.8z"/>
<rect x="91.601" y="164.722" transform="matrix(-0.2402 -0.9707 0.9707 -0.2402 56.4872 482.0544)" style="fill:#B9EFBD;" width="250.594" height="108.398"/>
<g>
	<path style="fill:#71AD71;" d="M198.1,348.3l-58.1-235l95.7-23.7l58.1,235L198.1,348.3z M290.7,323.2L233.6,92.3l-90.7,22.4
		L200,345.6L290.7,323.2z"/>
	<path style="fill:#71AD71;" d="M227.1,260.5c22.9-5.7,36.9-28.9,31.2-51.8c-5.7-22.9-28.9-36.9-51.8-31.2
		c-22.9,5.7-36.9,28.9-31.3,51.8C181,252.2,204.2,266.2,227.1,260.5z"/>
</g>
<path style="fill:#63BD6E;" d="M241.6,211.7c-1-2.1-2.5-3.6-4.5-4.4c-2-0.8-4.2-1-6.6-0.4c-2.3,0.6-4.1,1.6-5.5,3.1
	c-1.3,1.5-2.1,3.6-2.4,6.4L241.6,211.7z M195.3,226.7c0.9,2.1,2.5,3.7,4.8,4.6c2.3,0.9,5,1.1,7.9,0.3c2.5-0.6,4.3-1.6,5.6-3
	c1.2-1.4,2.1-3.8,2.5-7.1L195.3,226.7z"/>
<rect x="191.9" y="89.9" style="fill:#B9EFBD;" width="108.4" height="250.6"/>
<g>
	<path style="fill:#71AD71;" d="M196.8,336.3V94.2h98.5v242.1H196.8z M292.8,334.1V96.3h-93.4v237.8H292.8z"/>
	<path style="fill:#71AD71;" d="M246.1,258c23.6,0,42.8-19.1,42.8-42.8s-19.2-42.8-42.8-42.8s-42.8,19.1-42.8,42.8
		S222.4,258,246.1,258z"/>
</g>
<path style="fill:#63BD6E;" d="M271.8,214.1c-0.4-2.3-1.5-4-3.3-5.4c-1.8-1.3-3.9-2-6.3-2s-4.4,0.6-6,1.7c-1.6,1.1-2.9,3-3.9,5.7
	H271.8z M223.3,217.6c0.3,2.3,1.5,4.1,3.6,5.6c2,1.5,4.6,2.2,7.5,2.2c2.6,0,4.6-0.5,6.2-1.6c1.5-1,2.9-3.1,4.2-6.3h-21.5V217.6z"/>
<rect x="152.905" y="165.324" transform="matrix(0.2657 -0.9641 0.9641 0.2657 -7.3432 429.4117)" style="fill:#B9EFBD;" width="250.611" height="108.405"/>
<g>
	<path style="fill:#71AD71;" d="M198.6,323.1l64.3-233.4l95,26.2l-64.3,233.4L198.6,323.1z M291.7,346.5l63.2-229.3l-90.1-24.8
		l-63.2,229.3L291.7,346.5z"/>
	<path style="fill:#71AD71;" d="M266.9,260.7c22.8,6.3,46.3-7.1,52.6-29.9c6.3-22.8-7.1-46.3-29.9-52.6s-46.3,7.1-52.6,29.9
		C230.7,230.9,244.1,254.4,266.9,260.7z"/>
</g>
<path style="fill:#63BD6E;" d="M303.4,225.2c0.2-2.3-0.4-4.3-1.8-6s-3.2-2.9-5.5-3.6c-2.3-0.6-4.4-0.6-6.3,0s-3.6,2.1-5.2,4.4
	L303.4,225.2z M255.6,215.7c-0.3,2.3,0.4,4.4,1.9,6.4c1.6,2,3.8,3.4,6.7,4.1c2.5,0.7,4.6,0.7,6.3,0.1c1.8-0.6,3.7-2.2,5.7-5
	L255.6,215.7z"/>
<rect x="180.02" y="176.924" transform="matrix(0.4872 -0.8733 0.8733 0.4872 -45.2688 385.1565)" style="fill:#B9EFBD;" width="250.602" height="108.401"/>
<g>
	<path style="fill:#71AD71;" d="M203.4,312.8l118-211.4l86.1,48l-118,211.4L203.4,312.8z M288.2,357.7L404.1,150l-81.6-45.5
		L206.6,312.2L288.2,357.7z"/>
	<path style="fill:#71AD71;" d="M284.5,268.4c20.6,11.5,46.7,4.1,58.2-16.5s4.1-46.7-16.5-58.2s-46.7-4.1-58.2,16.5
		C256.5,230.9,263.9,256.9,284.5,268.4z"/>
</g>
<path style="fill:#B9EFBD;" d="M274.7,212.7l6.1,3.4c1.8-2.3,3.6-4,5.5-5.1c1.9-1,4.2-1.5,7.1-1.5c2.8,0.1,5.9,0.9,9.2,2.5l-1.7,5.7
	c-3.5-1.4-6.3-2.1-8.4-2c-3,0.2-5.2,1.3-6.5,3.1l19.5,10.9c1.6-1.8,3.8-3.4,6.5-4.8c2-1,4.2-1.4,6.6-1.2s4.9,1,7.3,2.4
	c4.4,2.4,7.2,5.7,8.5,9.7c0.8,2.8,0.5,5.9-0.9,9.5l2.9,1.6l-1.7,3l-2.9-1.6c-2,2.7-4.4,4.5-7.1,5.3c-3.5,1-7.3,0.6-11.5-1.1l2-5.8
	c2.6,1,4.8,1.4,6.6,1.2c1.8-0.2,3.4-1.1,4.7-2.5l-17.7-9.9c-2.2,2.1-3.7,3.5-4.7,4.1c-1.7,1.1-3.5,1.8-5.2,2.2
	c-1.8,0.3-3.6,0.3-5.6-0.1c-2-0.4-3.9-1.1-5.8-2.2c-4.3-2.4-7.2-5.5-8.8-9.3c-1.6-3.8-1.5-7.6,0.3-11.3l-6.2-3.5L274.7,212.7z
	 M328.4,242.7c0.7-2.2,0.6-4.3-0.3-6.3s-2.4-3.6-4.5-4.8s-4.1-1.7-6.1-1.5s-4,1.2-6.1,3.1L328.4,242.7z M284.3,222
	c-0.8,2.1-0.7,4.3,0.4,6.6s2.9,4.2,5.5,5.6c2.2,1.2,4.3,1.8,6.1,1.6c1.9-0.2,4.1-1.3,6.7-3.5L284.3,222z"/>
<path style="fill:#EDEDED;" d="M90.4,203.3v153.1c0,8,6.5,14.4,14.4,14.4h293.3c8,0,14.4-6.5,14.4-14.4l-0.3-153.3l-159.8,87.7
	L90.4,203.3"/>
<g>
	<path style="fill:#E5E5E5;" d="M252.6,291.3l159.5-87.2l0.3,152.2c0,8-6.5,14.5-14.5,14.5L252.6,291.3z"/>
	<path style="fill:#E5E5E5;" d="M90.3,203.4l163.5,88l-149.1,78.9c-8,0-14.5-6.5-14.5-14.5L90.3,203.4z"/>
</g>
<g>
</g>
<g>
</g>
<g>
</g>
<g>
</g>
<g>
</g>
<g>
</g>
<g>
</g>
<g>
</g>
<g>
</g>
<g>
</g>
<g>
</g>
<g>
</g>
<g>
</g>
<g>
</g>
<g>
</g>
</svg>
