<?xml version="1.0" encoding="iso-8859-1"?>
<!-- Generator: Adobe Illustrator 19.0.0, SVG Export Plug-In . SVG Version: 6.00 Build 0)  -->
<svg version="1.1" id="Layer_1" xmlns="http://www.w3.org/2000/svg" xmlns:xlink="http://www.w3.org/1999/xlink" x="0px" y="0px"
	 viewBox="0 0 512 512" style="enable-background:new 0 0 512 512;" xml:space="preserve">
<path style="fill:#FF9F19;" d="M47.58,362.534L47.58,362.534c-4.447,0-8.719-1.77-11.865-4.917
	c-45.802-45.806-45.802-120.332,0-166.133L191.484,35.714c45.791-45.785,120.315-45.806,166.127,0c6.555,6.55,6.555,17.18,0,23.731
	L59.444,357.617C56.298,360.764,52.026,362.534,47.58,362.534z"/>
<path style="fill:#F28618;" d="M237.449,510.634c-30.09,0-60.168-11.444-83.069-34.351c-6.555-6.55-6.555-17.18,0-23.731
	l298.167-298.167c6.555-6.555,17.176-6.549,23.731-0.006c22.114,22.109,34.296,51.614,34.296,83.069s-12.183,60.955-34.296,83.064
	L320.518,476.284C297.617,499.183,267.528,510.634,237.449,510.634z"/>
<path style="fill:#E6563A;" d="M482.564,29.435c-39.27-39.248-103.143-39.248-142.413,0.011L29.447,340.162
	C9.823,359.786,0,385.574,0,411.351c0,25.789,9.823,51.577,29.447,71.212c19.624,19.624,45.401,29.436,71.19,29.436
	s51.566-9.812,71.201-29.436l310.727-310.727C521.812,132.578,521.812,68.705,482.564,29.435z"/>
<path style="fill:#D9472B;" d="M482.564,171.837L171.838,482.564c-19.635,19.624-45.412,29.436-71.201,29.436
	s-51.566-9.812-71.19-29.436c-0.201-0.201-0.358-0.414-0.548-0.604l52.013-52.002l28.619-28.63l43.622-43.622l18.729-18.729
	l136.674-136.674l30.678-30.678l18.74-18.74l30.678-30.678l12.956-12.956l80.353-80.353c0.19,0.19,0.403,0.347,0.604,0.537
	C521.812,68.705,521.812,132.578,482.564,171.837z"/>
<path style="fill:#FFE14D;" d="M435.295,98.768c-2.931,8.794-12.464,13.538-21.224,10.606c-4.218-1.399-8.525-1.41-12.464-0.123
	c-2.942,0.951-5.672,2.629-7.999,4.956c-2.327,2.327-3.994,5.046-4.945,7.977l-0.011,0.011c-1.287,3.949-1.287,8.268,0.123,12.475
	c6.456,19.367,1.499,40.378-12.933,54.81c-14.444,14.444-35.444,19.411-54.822,12.945c-4.218-1.41-8.525-1.41-12.464-0.123
	l-0.011,0.011c-2.931,0.94-5.661,2.607-7.988,4.934c-2.327,2.327-3.983,5.057-4.934,7.977c-1.298,3.949-1.298,8.279,0.101,12.497
	c6.467,19.367,1.499,40.367-12.933,54.81c-14.433,14.433-35.399,19.389-54.81,12.933c-4.218-1.41-8.537-1.41-12.475-0.123
	c-2.931,0.951-5.661,2.618-7.988,4.956c-2.327,2.327-3.994,5.046-4.945,7.977v0.011c-1.298,3.938-1.298,8.257,0.112,12.475
	c6.456,19.367,1.499,40.378-12.933,54.81c-14.433,14.444-35.433,19.4-54.822,12.933c-4.196-1.398-8.525-1.398-12.486-0.101
	l-0.011,0.011c-2.92,0.94-5.639,2.596-7.966,4.923c-2.327,2.327-3.994,5.046-4.934,7.977v0.011
	c-1.298,3.949-1.298,8.268,0.112,12.486c2.92,8.783-1.835,18.293-10.617,21.224c-1.768,0.582-3.547,0.861-5.303,0.861
	c-4.934,0-9.644-2.193-12.81-5.941l-0.011-0.011c-1.343-1.589-2.405-3.446-3.099-5.527c-6.456-19.378-1.499-40.378,12.933-54.822
	c14.444-14.433,35.421-19.367,54.822-12.922c2.529,0.839,5.091,1.175,7.586,1.029c4.766-0.269,9.286-2.271,12.877-5.863
	c3.58-3.58,5.594-8.111,5.863-12.878c0.145-2.495-0.201-5.068-1.04-7.597c-6.456-19.367-1.499-40.367,12.945-54.81
	c14.444-14.433,35.455-19.378,54.81-12.933c2.517,0.839,5.091,1.175,7.597,1.029c4.755-0.28,9.286-2.282,12.866-5.863
	c3.58-3.591,5.583-8.1,5.863-12.866c0.145-2.495-0.19-5.068-1.029-7.597c-6.456-19.367-1.499-40.378,12.933-54.81
	c14.455-14.433,35.466-19.389,54.81-12.933c2.54,0.839,5.102,1.186,7.597,1.04c4.766-0.269,9.286-2.294,12.866-5.874
	c3.58-3.58,5.605-8.1,5.874-12.866c0.145-2.495-0.19-5.068-1.04-7.597c-6.456-19.378-1.499-40.378,12.933-54.822
	c14.455-14.433,35.466-19.389,54.822-12.933c2.193,0.727,4.14,1.868,5.773,3.312C435.373,85.174,437.499,92.167,435.295,98.768z"/>
<g>
	<path style="fill:#FFCC33;" d="M189.75,375.572c-14.433,14.444-35.433,19.4-54.822,12.933c-4.196-1.398-8.514-1.398-12.475-0.101
		l30.7-30.7c4.766-0.268,9.275-2.271,12.866-5.863c3.58-3.58,5.594-8.1,5.863-12.866l30.689-30.689
		c-1.298,3.938-1.298,8.257,0.112,12.475C209.139,340.128,204.182,361.139,189.75,375.572z"/>
	<path style="fill:#FFCC33;" d="M99.026,435.036c-1.768,0.582-3.547,0.861-5.303,0.861c-4.934,0-9.644-2.193-12.81-5.941
		l28.619-28.63c-1.298,3.949-1.298,8.268,0.112,12.486C112.563,422.595,107.808,432.105,99.026,435.036z"/>
	<path style="fill:#FFCC33;" d="M282.79,282.532c-14.433,14.433-35.399,19.389-54.81,12.933c-4.229-1.41-8.536-1.41-12.475-0.112
		l30.7-30.7c4.755-0.28,9.275-2.282,12.855-5.863c3.58-3.591,5.583-8.089,5.863-12.855l30.7-30.7
		c-1.298,3.949-1.298,8.268,0.101,12.486C302.19,247.088,297.222,268.088,282.79,282.532z"/>
	<path style="fill:#FFCC33;" d="M435.295,98.768c-2.931,8.794-12.464,13.538-21.224,10.606c-4.218-1.399-8.525-1.41-12.464-0.123
		l28.608-28.608c0.078,0.078,0.157,0.134,0.246,0.201C435.373,85.174,437.499,92.167,435.295,98.768z"/>
	<path style="fill:#FFCC33;" d="M375.841,189.481c-14.444,14.444-35.444,19.411-54.822,12.945c-4.218-1.41-8.525-1.41-12.464-0.123
		l30.678-30.678c4.766-0.269,9.286-2.294,12.866-5.874c3.58-3.58,5.605-8.1,5.874-12.866l30.678-30.678
		c-1.287,3.949-1.287,8.257,0.123,12.464C395.23,154.037,390.274,175.048,375.841,189.481z"/>
</g>
<g>
</g>
<g>
</g>
<g>
</g>
<g>
</g>
<g>
</g>
<g>
</g>
<g>
</g>
<g>
</g>
<g>
</g>
<g>
</g>
<g>
</g>
<g>
</g>
<g>
</g>
<g>
</g>
<g>
</g>
</svg>
