<?xml version="1.0" encoding="iso-8859-1"?>
<!-- Generator: Adobe Illustrator 19.0.0, SVG Export Plug-In . SVG Version: 6.00 Build 0)  -->
<svg version="1.1" id="Layer_1" xmlns="http://www.w3.org/2000/svg" xmlns:xlink="http://www.w3.org/1999/xlink" x="0px" y="0px"
	 viewBox="0 0 297 297" style="enable-background:new 0 0 297 297;" xml:space="preserve">
<g>
	<g>
		<g>
			<circle style="fill:#662621;" cx="148.5" cy="148.5" r="148.5"/>
		</g>
	</g>
	<path style="fill:#591B18;" d="M295.635,128.362l-33.35-33.302L52.173,220.702l74.662,74.72C133.908,296.456,141.14,297,148.5,297
		c82.014,0,148.5-66.486,148.5-148.5C297,141.669,296.529,134.948,295.635,128.362z"/>
	<g>
		<path style="fill:#F9B65F;" d="M236.978,109.351c-36.54,54.913-98.916,87.447-164.859,85.986
			c-18.638-0.397-31.601-13.842-28.718-26.171l0,0c2.853-12.404,16.236-20.006,29.714-19.799
			c50.237,1.113,97.758-23.672,125.595-65.507c7.543-11.172,21.435-17.796,33.241-13.037l0,0
			C243.711,75.516,247.319,93.839,236.978,109.351z"/>
	</g>
	<g>
		<path style="fill:#E89C42;" d="M231.951,70.824c-11.806-4.759-25.697,1.865-33.241,13.037
			c-13.374,20.098-31.298,36.247-51.877,47.494V182c36.246-14.242,67.961-39.31,90.144-72.648
			C247.319,93.839,243.711,75.516,231.951,70.824z"/>
	</g>
	<g>
		<path style="fill:#C0392B;" d="M242.567,120.811c-36.54,54.913-98.916,87.447-164.859,85.986
			C59.07,206.4,46.107,192.955,48.99,180.626l0,0c2.853-12.404,16.236-20.006,29.714-19.799
			c50.237,1.113,97.758-23.672,125.595-65.507c7.543-11.172,21.435-17.796,33.241-13.037l0,0
			C249.3,86.976,252.908,105.299,242.567,120.811z"/>
	</g>
	<g>
		<path style="fill:#B52B24;" d="M237.54,82.284c-11.806-4.759-25.697,1.865-33.241,13.037
			c-14.571,21.898-34.541,39.112-57.465,50.399v49.837c38.571-13.797,72.417-39.704,95.733-74.745
			C252.907,105.299,249.3,86.976,237.54,82.284z"/>
	</g>
	<g>
		<path style="fill:#F9B65F;" d="M261.186,133.396c-40.918,61.493-110.769,97.925-184.613,96.289
			c-20.872-0.445-35.387-15.501-32.159-29.307l0,0c3.195-13.89,18.182-22.403,33.274-22.171
			c56.257,1.246,109.472-26.509,140.645-73.356c8.447-12.51,24.003-19.928,37.224-14.599l0,0
			C268.725,95.506,272.765,116.025,261.186,133.396z"/>
	</g>
	<g>
		<path style="fill:#E89C42;" d="M255.556,90.252c-13.22-5.329-28.776,2.088-37.224,14.599
			c-17.814,26.772-42.833,47.293-71.498,59.746v54.918c46.152-14.716,86.81-44.728,114.352-86.118
			C272.765,116.025,268.725,95.506,255.556,90.252z"/>
	</g>
	<g>
		<path style="fill:#E67E22;" d="M107.549,179.401c-10.813,0-24.044-12.854-28.037-17.641c-1.415-1.696-1.188-4.219,0.509-5.634
			c1.696-1.416,4.22-1.188,5.634,0.509c5.598,6.711,16.886,15.552,22.565,14.721c1.908-0.281,5.008-8.247,6.498-12.076
			c2.974-7.641,5.782-14.857,11.355-16.665c5.609-1.818,12.146,2.392,19.064,6.851c3.436,2.212,10.595,6.828,12.259,5.942
			c1.678-0.874,1.992-9.371,2.143-13.454c0.304-8.227,0.591-15.996,5.292-19.554c4.673-3.535,12.199-1.708,20.166,0.226
			c3.992,0.969,12.296,2.984,13.621,1.581c3.383-3.593-0.522-13.773-3.374-21.207c-0.337-0.878-0.669-1.744-0.987-2.591
			c-0.778-2.067,0.267-4.374,2.334-5.152c2.066-0.781,4.374,0.267,5.152,2.334c0.313,0.832,0.64,1.682,0.971,2.544
			c4.01,10.455,8.556,22.305,1.729,29.557c-4.512,4.79-12.681,2.809-21.333,0.708c-4.414-1.071-11.807-2.865-13.45-1.62
			c-1.675,1.268-1.957,8.906-2.126,13.47c-0.327,8.859-0.636,17.228-6.437,20.253c-5.802,3.026-12.84-1.511-20.291-6.312
			c-3.841-2.475-10.28-6.609-12.264-5.966c-1.963,0.637-4.721,7.724-6.369,11.957c-3.229,8.296-6.277,16.132-12.789,17.089
			C108.782,179.359,108.168,179.401,107.549,179.401z"/>
	</g>
	<g>
		<path style="fill:#CE6617;" d="M202.714,100.135c-0.331-0.862-0.657-1.712-0.971-2.544c-0.778-2.067-3.086-3.115-5.152-2.334
			c-2.067,0.778-3.112,3.085-2.334,5.152c0.318,0.847,0.65,1.713,0.987,2.591c2.852,7.434,6.757,17.614,3.374,21.207
			c-1.325,1.403-9.629-0.612-13.621-1.581c-7.967-1.934-15.493-3.761-20.166-0.226c-4.701,3.558-4.988,11.327-5.292,19.554
			c-0.15,4.083-0.465,12.58-2.143,13.454c-1.424,0.758-6.868-2.511-10.563-4.857v9.378c5.195,2.978,10.055,4.768,14.263,2.573
			c5.801-3.025,6.109-11.394,6.437-20.253c0.169-4.563,0.451-12.202,2.126-13.47c1.644-1.245,9.036,0.549,13.45,1.62
			c8.652,2.101,16.821,4.082,21.333-0.708C211.27,122.439,206.724,110.59,202.714,100.135z"/>
	</g>
</g>
<g>
</g>
<g>
</g>
<g>
</g>
<g>
</g>
<g>
</g>
<g>
</g>
<g>
</g>
<g>
</g>
<g>
</g>
<g>
</g>
<g>
</g>
<g>
</g>
<g>
</g>
<g>
</g>
<g>
</g>
</svg>
