<?xml version="1.0" encoding="iso-8859-1"?>
<!-- Generator: Adobe Illustrator 19.0.0, SVG Export Plug-In . SVG Version: 6.00 Build 0)  -->
<svg version="1.1" id="Layer_1" xmlns="http://www.w3.org/2000/svg" xmlns:xlink="http://www.w3.org/1999/xlink" x="0px" y="0px"
	 viewBox="0 0 508 508" style="enable-background:new 0 0 508 508;" xml:space="preserve">
<circle style="fill:#84DBFF;" cx="254" cy="254" r="254"/>
<rect x="313.2" y="105.2" style="fill:#F1543F;" width="32.4" height="58"/>
<rect x="308" y="91.6" style="fill:#FF7058;" width="43.2" height="14.4"/>
<polygon style="fill:#FFFFFF;" points="380.8,226.8 254,112.4 127.2,226.8 124.8,226.8 124.8,228.8 124.8,228.8 124.8,228.8 
	124.8,392 383.2,392 383.2,226.8 "/>
<polygon style="fill:#FF7058;" points="383.2,228.8 423.2,228.8 254,76.4 84.8,228.8 124.8,228.8 254,112.4 "/>
<polygon style="fill:#334A5E;" points="334.8,238.4 285.6,242 298,254.8 258.4,294.4 222,258.4 155.6,324.8 174.4,343.6 222,296 
	258.4,332.4 317.2,273.6 330,286.8 "/>
<g>
</g>
<g>
</g>
<g>
</g>
<g>
</g>
<g>
</g>
<g>
</g>
<g>
</g>
<g>
</g>
<g>
</g>
<g>
</g>
<g>
</g>
<g>
</g>
<g>
</g>
<g>
</g>
<g>
</g>
</svg>
