<?xml version="1.0" encoding="iso-8859-1"?>
<!-- Generator: Adobe Illustrator 19.0.0, SVG Export Plug-In . SVG Version: 6.00 Build 0)  -->
<svg version="1.1" id="Layer_1" xmlns="http://www.w3.org/2000/svg" xmlns:xlink="http://www.w3.org/1999/xlink" x="0px" y="0px"
	 viewBox="0 0 512 512" style="enable-background:new 0 0 512 512;" xml:space="preserve">
<circle style="fill:#31BAFD;" cx="256" cy="256" r="256"/>
<path style="fill:#2B9ED8;" d="M509.295,293.233L345.643,129.581L230.348,337.389l-14.484,72.706l96.29,95.713
	C414.677,482.859,493.966,398.426,509.295,293.233z"/>
<path style="fill:#E6F3FF;" d="M369.778,199.111c0-63.395-51.846-114.679-115.45-113.766
	c-60.818,0.874-110.749,50.412-112.078,111.221c-0.783,35.821,15.005,67.962,40.217,89.333c10.419,8.832,16.643,21.63,16.643,35.288
	v48.59h113.778v-48.604c0-13.469,5.922-26.271,16.236-34.932C353.973,265.378,369.778,234.098,369.778,199.111z"/>
<path style="fill:#CFDBE6;" d="M255.426,85.357v284.42h57.463v-48.604c0-13.469,5.922-26.271,16.236-34.932
	c24.848-20.864,40.653-52.145,40.653-87.131C369.778,136.083,318.524,85.049,255.426,85.357z"/>
<path style="fill:#324A5E;" d="M256,426.667L256,426.667c-31.418,0-56.889-25.471-56.889-56.889v-28.444h113.778v28.444
	C312.889,401.196,287.418,426.667,256,426.667z"/>
<path style="fill:#2B3B4E;" d="M255.426,341.333v85.32c0.191,0.002,0.381,0.014,0.574,0.014l0,0
	c31.418,0,56.889-25.471,56.889-56.889v-28.444H255.426z"/>
<circle style="fill:#FFD15D;" cx="256" cy="199.111" r="58.733"/>
<g>
	<path style="fill:#F9B54C;" d="M256,140.371c-0.193,0-0.383,0.012-0.574,0.014v117.451c0.191,0.002,0.381,0.014,0.574,0.014
		c32.44,0,58.74-26.298,58.74-58.74S288.442,140.371,256,140.371z"/>
	<path style="fill:#F9B54C;" d="M256,269.919c-39.043,0-70.808-31.765-70.808-70.808s31.765-70.808,70.808-70.808
		s70.808,31.765,70.808,70.808S295.043,269.919,256,269.919z M256,152.438c-25.736,0-46.673,20.937-46.673,46.673
		s20.937,46.673,46.673,46.673s46.673-20.937,46.673-46.673S281.736,152.438,256,152.438z"/>
</g>
<path style="fill:#F4A200;" d="M256,128.303c-0.193,0-0.383,0.014-0.574,0.014v24.135c0.191-0.002,0.381-0.014,0.574-0.014
	c25.736,0,46.673,20.937,46.673,46.673S281.736,245.784,256,245.784c-0.193,0-0.383-0.012-0.574-0.014v24.135
	c0.191,0.002,0.381,0.014,0.574,0.014c39.043,0,70.808-31.765,70.808-70.808S295.043,128.303,256,128.303z"/>
<rect x="243.933" y="170.667" style="fill:#F9B54C;" width="24.135" height="56.889"/>
<rect x="255.431" y="170.667" style="fill:#F4A200;" width="12.641" height="56.889"/>
<g>
</g>
<g>
</g>
<g>
</g>
<g>
</g>
<g>
</g>
<g>
</g>
<g>
</g>
<g>
</g>
<g>
</g>
<g>
</g>
<g>
</g>
<g>
</g>
<g>
</g>
<g>
</g>
<g>
</g>
</svg>
