<?xml version="1.0" encoding="iso-8859-1"?>
<!-- Generator: Adobe Illustrator 19.0.0, SVG Export Plug-In . SVG Version: 6.00 Build 0)  -->
<svg version="1.1" id="Layer_1" xmlns="http://www.w3.org/2000/svg" xmlns:xlink="http://www.w3.org/1999/xlink" x="0px" y="0px"
	 viewBox="0 0 508 508" style="enable-background:new 0 0 508 508;" xml:space="preserve">
<circle style="fill:#84DBFF;" cx="254" cy="254" r="254"/>
<g>
	<path style="fill:#FFFFFF;" d="M208.4,183.2H114c-12.8,0-22.8-10.4-22.8-22.8l0,0c0-12.8,10.4-22.8,22.8-22.8h94.4
		c12.8,0,22.8,10.4,22.8,22.8l0,0C231.2,172.8,221.2,183.2,208.4,183.2z"/>
	<circle style="fill:#FFFFFF;" cx="135.2" cy="128.4" r="31.6"/>
</g>
<circle style="fill:#E6E9EE;" cx="144.8" cy="176.8" r="28"/>
<g>
	<circle style="fill:#FFFFFF;" cx="149.2" cy="176.8" r="28"/>
	<circle style="fill:#FFFFFF;" cx="196.4" cy="142.8" r="19.2"/>
</g>
<circle style="fill:#E6E9EE;" cx="170.8" cy="136" r="28"/>
<circle style="fill:#FFFFFF;" cx="170.8" cy="140.8" r="28"/>
<circle style="fill:#E6E9EE;" cx="185.2" cy="174.4" r="22.4"/>
<circle style="fill:#FFFFFF;" cx="189.2" cy="178.4" r="22.4"/>
<path style="fill:#324A5E;" d="M266,258v41.6h-17.2v-40.8c-16,0-30.8-3.6-44.4-10.8v-32.8c4.4,3.6,11.2,7.2,20.4,10.4
	s17.2,4.8,24,5.6V188c-18.4-6.8-30.8-14.4-37.6-22.4s-10-17.6-10-29.2c0-12.4,4.4-22.8,13.2-31.6s20.4-13.6,34.8-15.2v-22H266v21.6
	c16.4,0.8,28.8,3.6,37.2,8v32c-11.2-6.8-23.2-10.8-37.2-12.4v44.8c17.2,6.4,29.6,13.2,37.2,21.2s11.2,17.6,11.2,28.8
	c0,13.2-4,23.6-12.4,31.6C293.6,251.2,281.6,256,266,258z M248.8,154.8v-37.2c-10.8,2-16.4,7.6-16.4,17.2
	C232.4,142.4,238,149.2,248.8,154.8z M266,194.4V230c11.2-1.6,16.8-7.2,16.8-16.8C282.8,205.6,277.2,199.6,266,194.4z"/>
<polygon style="fill:#FF7058;" points="322.4,440.4 193.2,440.4 172,323.6 343.2,323.6 "/>
<rect x="158" y="299.6" style="fill:#F1543F;" width="199.2" height="24"/>
<g>
	<path style="fill:#FFFFFF;" d="M408.4,244h-67.6c-9.2,0-16.4-7.2-16.4-16.4l0,0c0-9.2,7.2-16.4,16.4-16.4h67.6
		c9.2,0,16.4,7.2,16.4,16.4l0,0C424.8,236.8,417.6,244,408.4,244z"/>
	<circle style="fill:#FFFFFF;" cx="356" cy="205.2" r="22.8"/>
</g>
<circle style="fill:#E6E9EE;" cx="362.8" cy="239.6" r="20"/>
<g>
	<circle style="fill:#FFFFFF;" cx="365.6" cy="239.6" r="20"/>
	<circle style="fill:#FFFFFF;" cx="399.6" cy="215.2" r="14"/>
</g>
<circle style="fill:#E6E9EE;" cx="381.2" cy="210.4" r="20"/>
<circle style="fill:#FFFFFF;" cx="381.2" cy="214" r="20"/>
<circle style="fill:#E6E9EE;" cx="391.6" cy="238" r="16"/>
<circle style="fill:#FFFFFF;" cx="394.4" cy="240.8" r="16"/>
<g>
</g>
<g>
</g>
<g>
</g>
<g>
</g>
<g>
</g>
<g>
</g>
<g>
</g>
<g>
</g>
<g>
</g>
<g>
</g>
<g>
</g>
<g>
</g>
<g>
</g>
<g>
</g>
<g>
</g>
</svg>
