<?xml version="1.0" encoding="iso-8859-1"?>
<!-- Generator: Adobe Illustrator 19.0.0, SVG Export Plug-In . SVG Version: 6.00 Build 0)  -->
<svg version="1.1" id="Layer_1" xmlns="http://www.w3.org/2000/svg" xmlns:xlink="http://www.w3.org/1999/xlink" x="0px" y="0px"
	 viewBox="0 0 512 512" style="enable-background:new 0 0 512 512;" xml:space="preserve">
<path style="fill:#2C4290;" d="M499.449,176.667C466.054,74.12,369.691,0,256,0C114.615,0,0,114.615,0,256
	c0,97.034,53.986,181.458,133.561,224.877L499.449,176.667z"/>
<path style="fill:#383838;" d="M512,256c0-27.694-4.415-54.353-12.551-79.333l-65.362-65.362L77.913,333.913l146.963,146.963
	l153.559-0.003C458.011,437.455,512,353.034,512,256z"/>
<polygon style="fill:#BCDEF7;" points="378.435,411.27 378.435,272.7 256,272.7 232.626,439.657 "/>
<polygon style="fill:#00A085;" points="434.087,333.913 256,333.913 222.609,155.826 434.087,222.609 "/>
<polygon style="fill:#2DB37F;" points="434.087,222.609 222.609,222.609 256,111.304 434.087,111.304 "/>
<path style="fill:#5AC779;" d="M378.435,311.652H256l-33.391-133.565l189.217,44.522v55.652
	C393.383,278.261,378.435,293.209,378.435,311.652z"/>
<path style="fill:#85DC79;" d="M411.826,222.609H222.609L256,133.565h122.435c0,18.443,14.948,33.391,33.391,33.391V222.609z"/>
<polygon style="fill:#2DB37F;" points="77.913,333.913 256,333.913 256,311.652 222.609,155.826 77.913,222.609 "/>
<polygon style="fill:#5AC779;" points="77.913,222.609 233.739,222.609 256,133.565 256,111.304 77.913,111.304 "/>
<path style="fill:#85DC79;" d="M133.565,311.652H256V178.087l-155.826,44.522v55.652
	C118.617,278.261,133.565,293.209,133.565,311.652z"/>
<path style="fill:#AFF078;" d="M100.174,222.609H256v-89.043H133.565c0,18.443-14.948,33.391-33.391,33.391V222.609z"/>
<path style="fill:#00A085;" d="M256,161.391l-34.601,61.217L256,283.826c33.81,0,61.217-27.408,61.217-61.217
	S289.81,161.391,256,161.391z"/>
<path style="fill:#2DB37F;" d="M194.783,222.609c0,33.81,27.408,61.217,61.217,61.217V161.391
	C222.19,161.391,194.783,188.799,194.783,222.609z"/>
<path style="fill:#FFFFFF;" d="M194.783,299.965c0-48.434,0-96.835,0-96.835c0-16.9-13.708-30.609-30.609-30.609
	s-30.609,13.707-30.609,30.609V411.27l161.391,31.209v-42.339C294.957,344.814,250.108,299.965,194.783,299.965z"/>
<path style="fill:#BCDEF7;" d="M144.696,202.733v25.441l19.478-6.36l19.478,6.36v-25.452c0-10.51-8.738-19.07-19.478-19.07
	S144.696,192.211,144.696,202.733z"/>
<path style="fill:#DDEFFB;" d="M144.696,228.174l38.957-0.011c0-10.73-8.738-19.467-19.478-19.467S144.696,217.433,144.696,228.174z
	"/>
<path style="fill:#4A75C3;" d="M233.739,429.639L256,512c44.35,0,86.064-11.283,122.435-31.127v-36.212L233.739,429.639z"/>
<g>
	<path style="fill:#458FDE;" d="M133.565,444.661v36.212C169.936,500.717,211.65,512,256,512v-82.361L133.565,444.661z"/>
	<polygon style="fill:#458FDE;" points="256,444.661 378.435,444.661 378.435,411.27 256,411.27 232.626,427.965 	"/>
</g>
<rect x="133.565" y="411.27" style="fill:#6FAEE8;" width="122.435" height="33.391"/>
<path style="fill:#00A085;" d="M364.522,200.348l-12.582,22.261l12.582,22.261c12.295,0,22.261-9.966,22.261-22.261
	C386.783,210.314,376.816,200.348,364.522,200.348z"/>
<path style="fill:#2DB37F;" d="M342.261,222.609c0,12.295,9.966,22.261,22.261,22.261v-44.522
	C352.227,200.348,342.261,210.314,342.261,222.609z"/>
<polygon style="fill:#85DC79;" points="311.652,33.391 256,89.043 239.304,53.334 256,33.391 "/>
<polygon style="fill:#AFF078;" points="200.348,33.391 256,89.043 256,33.391 "/>
<g>
</g>
<g>
</g>
<g>
</g>
<g>
</g>
<g>
</g>
<g>
</g>
<g>
</g>
<g>
</g>
<g>
</g>
<g>
</g>
<g>
</g>
<g>
</g>
<g>
</g>
<g>
</g>
<g>
</g>
</svg>
