<?xml version="1.0" encoding="iso-8859-1"?>
<!-- Generator: Adobe Illustrator 19.0.0, SVG Export Plug-In . SVG Version: 6.00 Build 0)  -->
<svg version="1.1" id="Layer_1" xmlns="http://www.w3.org/2000/svg" xmlns:xlink="http://www.w3.org/1999/xlink" x="0px" y="0px"
	 viewBox="0 0 512 512" style="enable-background:new 0 0 512 512;" xml:space="preserve">
<circle style="fill:#E6F3FF;" cx="256" cy="256" r="256"/>
<path style="fill:#CFDBE6;" d="M186.887,370.976l132.989,132.989c98.702-25.352,174.378-108.087,189.39-210.532L392.07,176.237
	l-60.806,99.331l-89.993-89.993l-18.601,30.199l90.065,90.065l-37.198,20.265L186.887,370.976z"/>
<path style="fill:#FF80AA;" d="M414.599,231.577c0-43.796-35.504-79.3-79.3-79.3s-79.3,35.504-79.3,79.3
	c0-43.796-35.504-79.3-79.3-79.3s-79.3,35.504-79.3,79.3C97.401,334.438,256,416.609,256,416.609S414.599,339.609,414.599,231.577z"
	/>
<path style="fill:#FD5790;" d="M256,416.611c0,0,158.599-77.002,158.599-185.032c0-43.796-35.504-79.3-79.3-79.3
	s-79.3,35.504-79.3,79.3V416.611z"/>
<g>
</g>
<g>
</g>
<g>
</g>
<g>
</g>
<g>
</g>
<g>
</g>
<g>
</g>
<g>
</g>
<g>
</g>
<g>
</g>
<g>
</g>
<g>
</g>
<g>
</g>
<g>
</g>
<g>
</g>
</svg>
