<?xml version="1.0" encoding="iso-8859-1"?>
<!-- Generator: Adobe Illustrator 19.0.0, SVG Export Plug-In . SVG Version: 6.00 Build 0)  -->
<svg version="1.1" id="Layer_1" xmlns="http://www.w3.org/2000/svg" xmlns:xlink="http://www.w3.org/1999/xlink" x="0px" y="0px"
	 viewBox="0 0 297 297" style="enable-background:new 0 0 297 297;" xml:space="preserve">
<g>
	<g>
		<circle style="fill:#2ECC71;" cx="148.5" cy="148.5" r="148.5"/>
	</g>
	<g>
		<path style="fill:#2AB763;" d="M297,148.5c0-6.302-0.396-12.512-1.158-18.608L260,94.5l-223,108l96.02,93.699
			c5.088,0.527,10.252,0.801,15.48,0.801C230.514,297,297,230.514,297,148.5z"/>
	</g>
	<g>
		<rect x="37" y="94.5" style="fill:#FFFFFF;" width="223" height="108"/>
	</g>
	<g>
		<path style="fill:#73A668;" d="M232.025,105H64.975c-0.267,8.879-7.531,16-16.475,16v55c8.944,0,16.208,7.121,16.475,16h167.051
			c0.267-8.879,7.531-16,16.475-16v-55C239.556,121,232.292,113.879,232.025,105z"/>
	</g>
	<g>
		<ellipse style="fill:#BFF796;" cx="148.5" cy="148.5" rx="24.75" ry="33"/>
	</g>
	<g>
		<circle style="fill:#FFA800;" cx="198" cy="214.5" r="36"/>
	</g>
	<g>
		<circle style="fill:#FFCD02;" cx="198" cy="214.5" r="24.75"/>
	</g>
	<g>
		<circle style="fill:#FFA800;" cx="82.125" cy="76.875" r="22.125"/>
	</g>
	<g>
		<circle style="fill:#FFCD02;" cx="82.125" cy="76.875" r="15.211"/>
	</g>
</g>
<g>
</g>
<g>
</g>
<g>
</g>
<g>
</g>
<g>
</g>
<g>
</g>
<g>
</g>
<g>
</g>
<g>
</g>
<g>
</g>
<g>
</g>
<g>
</g>
<g>
</g>
<g>
</g>
<g>
</g>
</svg>
