<?xml version="1.0" encoding="iso-8859-1"?>
<!-- Generator: Adobe Illustrator 19.0.0, SVG Export Plug-In . SVG Version: 6.00 Build 0)  -->
<svg version="1.1" id="Layer_1" xmlns="http://www.w3.org/2000/svg" xmlns:xlink="http://www.w3.org/1999/xlink" x="0px" y="0px"
	 viewBox="0 0 512 512" style="enable-background:new 0 0 512 512;" xml:space="preserve">
<circle style="fill:#C2D5D8;" cx="256" cy="256" r="256"/>
<path style="fill:#805026;" d="M106.736,160c0-8.8,8.464-16,17.264-16h124h124c8.8,0,14.736,7.2,14.736,16v40h-280
	C106.736,200,106.736,160,106.736,160z"/>
<rect x="124.043" y="127.983" transform="matrix(0.7071 -0.7071 0.7071 0.7071 -67.1026 229.9644)" style="fill:#238C7C;" width="239.994" height="135.999"/>
<path style="fill:#A3CCC5;" d="M270.444,84.704L132.708,222.44c3.108,6.52,3.108,14.136,0,20.656l64.196,64.196
	c6.52-3.108,14.136-3.108,20.656,0l137.736-137.736c-3.108-6.52-3.108-14.136,0-20.656L291.1,84.704
	C284.58,87.816,276.964,87.816,270.444,84.704z"/>
<g>
	<circle style="fill:#238C7C;" cx="187.436" cy="252.56" r="12"/>
	<circle style="fill:#238C7C;" cx="300.56" cy="139.432" r="12"/>
	<circle style="fill:#238C7C;" cx="244" cy="196" r="40"/>
</g>
<path style="fill:#B37035;" d="M106.736,160c0,8.8,8.464,16,17.264,16h208h60c8.8,0,14.736,7.2,14.736,16v184
	c0,8.8-5.928,16-14.736,16H124c-8.8,0-17.264-7.2-17.264-16V160z"/>
<path style="fill:#A66831;" d="M406.736,184c0-4.416-3.584-8-8-8l0,0c-4.416,0-8,3.584-8,8v200c0,4.416,3.584,8,8,8l0,0
	c4.416,0,8-3.584,8-8V184z"/>
<path style="fill:#D9C182;" d="M408,248h-52c-22.092,0-40,17.908-40,40s17.908,40,40,40h52c2.212,0,2.736-1.792,2.736-4v-72
	C410.736,249.792,410.212,248,408,248z"/>
<path style="fill:#B37035;" d="M352,252h-0.632c-18,1.992-31.684,17.472-31.684,36s13.528,34.008,31.528,36H352h54.736v-72H352z"/>
<circle style="fill:#263740;" cx="352" cy="288" r="16"/>
<g>
	<rect x="122.736" y="200" style="fill:#D9C182;" width="16" height="4"/>
	<rect x="162.736" y="200" style="fill:#D9C182;" width="16" height="4"/>
	<rect x="202.736" y="200" style="fill:#D9C182;" width="16" height="4"/>
	<rect x="242.736" y="200" style="fill:#D9C182;" width="16" height="4"/>
	<rect x="282.72" y="200" style="fill:#D9C182;" width="16" height="4"/>
	<rect x="322.72" y="200" style="fill:#D9C182;" width="16" height="4"/>
	<rect x="362.72" y="200" style="fill:#D9C182;" width="16" height="4"/>
	<rect x="122.736" y="372" style="fill:#D9C182;" width="16" height="4"/>
	<rect x="162.736" y="372" style="fill:#D9C182;" width="16" height="4"/>
	<rect x="202.736" y="372" style="fill:#D9C182;" width="16" height="4"/>
	<rect x="242.736" y="372" style="fill:#D9C182;" width="16" height="4"/>
	<rect x="282.72" y="372" style="fill:#D9C182;" width="16" height="4"/>
	<rect x="322.72" y="372" style="fill:#D9C182;" width="16" height="4"/>
	<rect x="362.72" y="372" style="fill:#D9C182;" width="16" height="4"/>
</g>
<g>
</g>
<g>
</g>
<g>
</g>
<g>
</g>
<g>
</g>
<g>
</g>
<g>
</g>
<g>
</g>
<g>
</g>
<g>
</g>
<g>
</g>
<g>
</g>
<g>
</g>
<g>
</g>
<g>
</g>
</svg>
