<?xml version="1.0" encoding="iso-8859-1"?>
<!-- Generator: Adobe Illustrator 19.0.0, SVG Export Plug-In . SVG Version: 6.00 Build 0)  -->
<svg version="1.1" id="Layer_1" xmlns="http://www.w3.org/2000/svg" xmlns:xlink="http://www.w3.org/1999/xlink" x="0px" y="0px"
	 viewBox="0 0 505 505" style="enable-background:new 0 0 505 505;" xml:space="preserve">
<circle style="fill:#FD8469;" cx="252.5" cy="252.5" r="252.5"/>
<path style="fill:#EDF2F2;" d="M448.4,222l-150-149.9c-5.2-5.2-13.6-5.2-18.7,0l-87.1,87.1c-5.2,5.2-5.2,13.6,0,18.7l149.9,150
	c5.2,5.2,13.6,5.2,18.7,0l87.1-87.1C453.5,235.6,453.5,227.2,448.4,222z"/>
<rect x="215.641" y="166.775" transform="matrix(-0.7071 -0.7071 0.7071 -0.7071 440.5074 553.5132)" style="fill:#324A5E;" width="238.498" height="37.5"/>
<path style="fill:#4CDBC4;" d="M363.6,149.4H123c-6.3,0-11.4,5.1-11.4,11.4v188.4c0,6.3,5.1,11.4,11.4,11.4h240.6
	c6.3,0,11.4-5.1,11.4-11.4V160.9C375.1,154.6,369.9,149.4,363.6,149.4z"/>
<path style="fill:#E19070;" d="M303.8,224.6c-16.8,0-30.5,13.6-30.5,30.5c0,16.8,13.6,30.5,30.5,30.5H375v-61H303.8z"/>
<circle style="fill:#FFFFFF;" cx="303.5" cy="255.1" r="11.4"/>
<g>
</g>
<g>
</g>
<g>
</g>
<g>
</g>
<g>
</g>
<g>
</g>
<g>
</g>
<g>
</g>
<g>
</g>
<g>
</g>
<g>
</g>
<g>
</g>
<g>
</g>
<g>
</g>
<g>
</g>
</svg>
