<?xml version="1.0" encoding="iso-8859-1"?>
<!-- Generator: Adobe Illustrator 19.0.0, SVG Export Plug-In . SVG Version: 6.00 Build 0)  -->
<svg version="1.1" id="Layer_1" xmlns="http://www.w3.org/2000/svg" xmlns:xlink="http://www.w3.org/1999/xlink" x="0px" y="0px"
	 viewBox="0 0 512.002 512.002" style="enable-background:new 0 0 512.002 512.002;" xml:space="preserve">
<circle style="fill:#D8DBBA;" cx="256.001" cy="256.001" r="256.001"/>
<path style="fill:#C6C9A3;" d="M511.777,245.685L333.568,67.477c-50.462-6.714-64.933,17.964-51.082,67.351l73.865,72.043
	l-138.708,13.452l-28.614,17.436l-32.024-32.021l-21.227,21.227l26.871,26.868l-5.532,30.308l-47.872,15.916l90.075,92.042
	l-8.32,26.209l-11.632,5.751l87.687,87.687C403.31,505.954,512,393.679,512,255.999C512,252.544,511.915,249.109,511.777,245.685
	L511.777,245.685z"/>
<g>
	<path style="fill:#333333;" d="M356.548,197.76c2.316,1.948,9.483,3.566,17.367,3.221c4.343-0.189,8.732-1.068,12.376-2.96
		c3.184-1.654,5.769-4.147,7.089-7.739c1.691-4.601,1.58-11.118-1.391-20.14c-6.379-19.358-29.133-19.879-52.231-20.41
		c-26.499-0.607-53.384-1.225-65.038-26.301c-9.545-20.541-4.904-37.209,5.423-48.256c5.893-6.302,13.689-10.675,21.741-12.802
		c8.194-2.164,16.738-2.023,23.946,0.742c10.599,4.068,18.278,13.338,18.246,28.644c-0.736,8.874-13.398,7.51-12.691-0.03
		c0.018-9.107-4.221-14.495-10.075-16.742c-4.731-1.815-10.517-1.859-16.2-0.358c-5.825,1.538-11.453,4.689-15.688,9.22
		c-7.08,7.573-10.117,19.316-3.186,34.229c8.334,17.934,31.258,18.46,53.851,18.977c27.592,0.633,54.772,1.259,63.946,29.103
		c3.972,12.057,3.896,21.381,1.278,28.497c-2.546,6.926-7.331,11.63-13.156,14.655c-5.367,2.788-11.628,4.075-17.72,4.341
		c-10.873,0.477-21.767-2.604-26.031-6.188L356.548,197.76L356.548,197.76z"/>
	<path style="fill:#333333;" d="M203.874,181.171c-57.579,56.008-32.153,69.255-59.487,49.706l-18.004,49.31
		c0,0,10.775,13.587,41.458,23.901c7.547,6.454,19.102,16.675,22.19,21.307c4.099,6.149-1.638,70.11-3.165,86.303
		c-3.453,2.146-8.415,5.686-8.479,9.192c-0.063,3.507,1.76,4.103,4.249,3.696c1.347,3.789,7.25,1.056,7.827,0.374
		c4.997,5.723,11.243-4.482,11.183-11.317c1.72-14.027,11.087-92.102,7.17-97.443c-0.696-0.952-1.65-2.646-2.758-4.815
		c1.906-0.049,3.73-0.205,5.481-0.461c7.243,6.298,16.147,14.403,18.802,18.385c4.099,6.149-1.638,70.109-3.165,86.3
		c-3.453,2.148-8.415,5.815-8.478,9.192c-0.079,4.168,1.864,4.103,4.459,3.661c0.945,2.795,5.564,1.629,7.464,0.379
		c4.431,1.825,6.032,0.598,7.889-2.239c1.61-2.464,3.815-6.263,3.447-9.047c1.72-14.027,11.087-92.102,7.17-97.445
		c-2.307-3.144-7.421-14.431-11.674-24.236c12.858-15.069,21.157-34.176,29.037-44.258c11.96-15.3,34.072-11.169,33.862-11.146
		c0.498,0.307,0.957,0.628,1.361,0.971c10.175,8.609-0.163,53.057,16.274,71.843c16.438,18.783,16.405,24.239,16.405,24.239
		l0.196,73.328c-3.428,2.048-15.748,10.784-7.189,13.905c1.626,1.876,5.478,0.796,7.289-0.496c2.206,3.296,6.519,1.159,8.609-1.082
		c1.227-1.315,0.586-6.212,2.544-10.322s-0.237-48.44,2.544-58.457c2.781-10.016,8.841-14.145-1.687-30.112
		c-3.282-4.98-3.465-11.813-2.415-20.264c1.504,4.729-3.128,1.294,6.581,12.39c9.709,11.096,16.405,24.239,16.405,24.239
		l0.196,73.328c-3.661,2.034-16.435,9.873-7.445,13.803c1.19,2.484,5.711,1.273,7.578-0.058c1.965,2.93,9.716,0.028,9.495-3.568
		c0.321-2.146-0.007-4.747,1.624-8.171c1.631-3.423,1.31-52.976,4.092-62.992c2.781-10.016,7.291-9.609-3.235-25.577
		c-10.526-15.967,10.763-50.974,2.471-97.276C368.892,156.699,261.855,124.771,203.874,181.171L203.874,181.171z"/>
	<path style="fill:#333333;" d="M87.606,236.368c-2.706-5.711-5.236-16.228,1.552-30.629c8.164,2.141,15.598,7.119,19.817,16.61
		l14.108-3.183l14.108,3.186c4.219-9.492,11.653-14.471,19.817-16.612c6.789,14.401,4.259,24.918,1.552,30.631
		c0.186,0.403,0.351,0.812,0.491,1.229c2.767,8.192,5.057,31.016-2.553,38.037c-7.61,7.022-13.198,20.133-19.582,24.423
		c-6.074,4.085-21.593,4.085-27.669,0c-6.381-4.289-9.791-17.401-19.579-24.423c-9.791-7.022-5.32-29.845-2.556-38.037
		C87.254,237.182,87.419,236.77,87.606,236.368z"/>
	<path style="fill:#333333;" d="M114.071,294.291c-7.124,3.882-13.55,7.801-20.634,18.137c2.583-6.193,4.913-12.228,16.8-18.862
		c-8.013,1.922-14.853,4.604-23.362,11.739c3.972-4.881,9.545-9.984,20.848-13.347c-7.713,0.659-16.519,2.272-25.055,7.174
		c5.506-4.694,12.774-8.953,27.883-9.776L114.071,294.291z M124.435,294.291c7.124,3.882,13.55,7.801,20.634,18.137
		c-2.583-6.193-4.913-12.228-16.8-18.862c8.013,1.922,14.853,4.604,23.362,11.739c-3.972-4.881-9.545-9.984-20.848-13.347
		c7.713,0.659,16.519,2.272,25.055,7.174c-5.506-4.694-12.774-8.953-27.883-9.776L124.435,294.291z"/>
</g>
<path style="fill:#FFFF00;" d="M91.602,251.32l20.989,15.13c0,0-7.974,5.707-16.777,2.556
	C87.01,265.855,91.601,251.32,91.602,251.32L91.602,251.32z"/>
<path style="fill:#FFBA00;" d="M91.602,251.32l20.989,15.13c0,0-0.088,0.063-0.256,0.172l-19.67-11.827
	c-1.545,4.613-1.236,8.671,0.675,12.763C87.98,262.784,91.601,251.32,91.602,251.32L91.602,251.32z"/>
<path style="fill:#FFFF00;" d="M142.365,251.32l-20.989,15.13c0,0,7.974,5.707,16.777,2.556
	C146.956,265.854,142.365,251.32,142.365,251.32L142.365,251.32z"/>
<path style="fill:#FFBA00;" d="M142.365,251.32l-20.989,15.13c0.489,0.346,17.981-10.484,19.926-11.655
	c1.545,4.613,1.236,8.671-0.675,12.763C145.985,262.784,142.365,251.32,142.365,251.32L142.365,251.32z"/>
<g>
</g>
<g>
</g>
<g>
</g>
<g>
</g>
<g>
</g>
<g>
</g>
<g>
</g>
<g>
</g>
<g>
</g>
<g>
</g>
<g>
</g>
<g>
</g>
<g>
</g>
<g>
</g>
<g>
</g>
</svg>
